{
copyright = "Copyright (c) 2015, Cadson Demak (info@cadsondemak.com)";
customParameters = (
{
name = vendorID;
value = CDK;
},
{
name = description;
value = "New Copyright (c) 2015, Cadson Demak (info@cadsondemak.com)";
},
{
name = license;

glyphs = (
{
glyphname = A;
lastChange = "2015-10-22 08:52:07 +0000";
layers = (
{
layerId = "5C59C03B-63D5-4D42-95DD-0674E6EE1F81";
name = "Light Italic";
paths = (
{
closed = 1;
nodes = (
"156 0 LINE",
"158 18 LINE",
"144 18 LINE SMOOTH",
"124 18 OFFCURVE",
"95 28 OFFCURVE",
"95 46 CURVE SMOOTH",
"95 49 OFFCURVE",
"96 52 OFFCURVE",
"98 55 CURVE SMOOTH",
"416 624 LINE",
"500 46 LINE SMOOTH",
"503 29 OFFCURVE",
"462 18 OFFCURVE",
"439 18 CURVE SMOOTH",
"426 18 LINE",
"423 0 LINE",
"624 0 LINE",
"627 18 LINE",
"612 18 LINE SMOOTH",
"588 18 OFFCURVE",
"559 32 OFFCURVE",
"556 52 CURVE SMOOTH",
"455 709 LINE",
"414 688 LINE",
"57 52 LINE SMOOTH",
"46 33 OFFCURVE",
"8 18 OFFCURVE",
"-16 18 CURVE SMOOTH",
"-31 18 LINE",
"-34 0 LINE"
);
},
{
closed = 1;
nodes = (
"488 224 LINE",
"493 254 LINE",
"188 254 LINE",
"182 224 LINE"
);
}
);
width = 667;
}
);
leftKerningGroup = A;
note = A;
rightKerningGroup = A;
unicode = 0041;
},
{
glyphname = Aacute;
lastChange = "2015-10-21 17:44:02 +0000";
layers = (
{
layerId = "5C59C03B-63D5-4D42-95DD-0674E6EE1F81";
name = "Light Italic";
paths = (
{
closed = 1;
nodes = (
"156 0 LINE",
"158 18 LINE",
"144 18 LINE SMOOTH",
"124 18 OFFCURVE",
"95 28 OFFCURVE",
"95 46 CURVE SMOOTH",
"95 49 OFFCURVE",
"96 52 OFFCURVE",
"98 55 CURVE SMOOTH",
"416 624 LINE",
"500 46 LINE SMOOTH",
"503 29 OFFCURVE",
"462 18 OFFCURVE",
"439 18 CURVE SMOOTH",
"426 18 LINE",
"423 0 LINE",
"624 0 LINE",
"627 18 LINE",
"612 18 LINE SMOOTH",
"588 18 OFFCURVE",
"559 32 OFFCURVE",
"556 52 CURVE SMOOTH",
"455 709 LINE",
"414 688 LINE",
"57 52 LINE SMOOTH",
"46 33 OFFCURVE",
"8 18 OFFCURVE",
"-16 18 CURVE SMOOTH",
"-31 18 LINE",
"-34 0 LINE"
);
},
{
closed = 1;
nodes = (
"488 224 LINE",
"493 254 LINE",
"188 254 LINE",
"182 224 LINE"
);
},
{
closed = 1;
nodes = (
"529 861 LINE SMOOTH",
"545 870 OFFCURVE",
"556 883 OFFCURVE",
"556 895 CURVE SMOOTH",
"556 904 OFFCURVE",
"550 910 OFFCURVE",
"540 910 CURVE SMOOTH",
"528 910 OFFCURVE",
"515 901 OFFCURVE",
"506 894 CURVE",
"381 801 LINE",
"389 786 LINE"
);
}
);
width = 667;
}
);
leftKerningGroup = A;
note = Aacute;
rightKerningGroup = A;
unicode = 00C1;
},
{
glyphname = Abreve;
lastChange = "2015-10-21 17:44:02 +0000";
layers = (
{
layerId = "5C59C03B-63D5-4D42-95DD-0674E6EE1F81";
name = "Light Italic";
paths = (
{
closed = 1;
nodes = (
"156 0 LINE",
"158 18 LINE",
"144 18 LINE SMOOTH",
"124 18 OFFCURVE",
"95 28 OFFCURVE",
"95 46 CURVE SMOOTH",
"95 49 OFFCURVE",
"96 52 OFFCURVE",
"98 55 CURVE SMOOTH",
"416 624 LINE",
"500 46 LINE SMOOTH",
"503 29 OFFCURVE",
"462 18 OFFCURVE",
"439 18 CURVE SMOOTH",
"426 18 LINE",
"423 0 LINE",
"624 0 LINE",
"627 18 LINE",
"612 18 LINE SMOOTH",
"588 18 OFFCURVE",
"559 32 OFFCURVE",
"556 52 CURVE SMOOTH",
"455 709 LINE",
"414 688 LINE",
"57 52 LINE SMOOTH",
"46 33 OFFCURVE",
"8 18 OFFCURVE",
"-16 18 CURVE SMOOTH",
"-31 18 LINE",
"-34 0 LINE"
);
},
{
closed = 1;
nodes = (
"488 224 LINE",
"493 254 LINE",
"188 254 LINE",
"182 224 LINE"
);
},
{
closed = 1;
nodes = (
"529 776 OFFCURVE",
"584 818 OFFCURVE",
"605 895 CURVE",
"578 895 LINE",
"555 822 OFFCURVE",
"503 808 OFFCURVE",
"458 808 CURVE SMOOTH",
"415 808 OFFCURVE",
"372 820 OFFCURVE",
"372 881 CURVE SMOOTH",
"372 886 OFFCURVE",
"372 890 OFFCURVE",
"372 895 CURVE",
"347 895 LINE",
"346 886 OFFCURVE",
"345 878 OFFCURVE",
"345 870 CURVE SMOOTH",
"345 808 OFFCURVE",
"383 776 OFFCURVE",
"452 776 CURVE SMOOTH"
);
}
);
width = 667;
}
);
leftKerningGroup = A;
note = Abreve;
rightKerningGroup = A;
unicode = 0102;
},
{
glyphname = Abreveacute;
lastChange = "2015-10-21 17:44:02 +0000";
layers = (
{
layerId = "5C59C03B-63D5-4D42-95DD-0674E6EE1F81";
name = "Light Italic";
paths = (
{
closed = 1;
nodes = (
"156 0 LINE",
"158 18 LINE",
"144 18 LINE SMOOTH",
"124 18 OFFCURVE",
"95 28 OFFCURVE",
"95 46 CURVE SMOOTH",
"95 49 OFFCURVE",
"96 52 OFFCURVE",
"98 55 CURVE SMOOTH",
"416 624 LINE",
"500 46 LINE SMOOTH",
"503 29 OFFCURVE",
"462 18 OFFCURVE",
"439 18 CURVE SMOOTH",
"426 18 LINE",
"423 0 LINE",
"624 0 LINE",
"627 18 LINE",
"612 18 LINE SMOOTH",
"588 18 OFFCURVE",
"559 32 OFFCURVE",
"556 52 CURVE SMOOTH",
"455 709 LINE",
"414 688 LINE",
"57 52 LINE SMOOTH",
"46 33 OFFCURVE",
"8 18 OFFCURVE",
"-16 18 CURVE SMOOTH",
"-31 18 LINE",
"-34 0 LINE"
);
},
{
closed = 1;
nodes = (
"488 224 LINE",
"493 254 LINE",
"188 254 LINE",
"182 224 LINE"
);
},
{
closed = 1;
nodes = (
"531 780 OFFCURVE",
"586 822 OFFCURVE",
"607 899 CURVE",
"581 899 LINE",
"558 827 OFFCURVE",
"505 812 OFFCURVE",
"460 812 CURVE SMOOTH",
"418 812 OFFCURVE",
"374 825 OFFCURVE",
"374 884 CURVE SMOOTH",
"374 889 OFFCURVE",
"374 894 OFFCURVE",
"375 899 CURVE",
"348 899 LINE",
"348 890 OFFCURVE",
"347 881 OFFCURVE",
"347 873 CURVE SMOOTH",
"347 812 OFFCURVE",
"384 780 OFFCURVE",
"453 780 CURVE SMOOTH"
);
},
{
closed = 1;
nodes = (
"585 959 LINE",
"601 967 OFFCURVE",
"611 978 OFFCURVE",
"613 988 CURVE",
"615 999 OFFCURVE",
"609 1008 OFFCURVE",
"596 1008 CURVE SMOOTH",
"584 1008 OFFCURVE",
"570 999 OFFCURVE",
"561 991 CURVE",
"444 902 LINE",
"452 888 LINE"
);
}
);
width = 667;
}
);
leftKerningGroup = A;
note = Abreveacute;
rightKerningGroup = A;
unicode = 1EAE;
},
{
glyphname = Abrevedotbelow;
lastChange = "2015-10-21 17:44:03 +0000";
layers = (
{
layerId = "5C59C03B-63D5-4D42-95DD-0674E6EE1F81";
name = "Light Italic";
paths = (
{
closed = 1;
nodes = (
"156 0 LINE",
"158 18 LINE",
"144 18 LINE SMOOTH",
"124 18 OFFCURVE",
"95 28 OFFCURVE",
"95 46 CURVE SMOOTH",
"95 49 OFFCURVE",
"96 52 OFFCURVE",
"98 55 CURVE SMOOTH",
"416 624 LINE",
"500 46 LINE SMOOTH",
"503 29 OFFCURVE",
"462 18 OFFCURVE",
"439 18 CURVE SMOOTH",
"426 18 LINE",
"423 0 LINE",
"624 0 LINE",
"627 18 LINE",
"612 18 LINE SMOOTH",
"588 18 OFFCURVE",
"559 32 OFFCURVE",
"556 52 CURVE SMOOTH",
"455 709 LINE",
"414 688 LINE",
"57 52 LINE SMOOTH",
"46 33 OFFCURVE",
"8 18 OFFCURVE",
"-16 18 CURVE SMOOTH",
"-31 18 LINE",
"-34 0 LINE"
);
},
{
closed = 1;
nodes = (
"287 -136 OFFCURVE",
"303 -122 OFFCURVE",
"307 -100 CURVE",
"308 -96 OFFCURVE",
"308 -93 OFFCURVE",
"308 -90 CURVE SMOOTH",
"308 -74 OFFCURVE",
"299 -64 OFFCURVE",
"281 -64 CURVE SMOOTH",
"262 -64 OFFCURVE",
"245 -78 OFFCURVE",
"240 -100 CURVE",
"239 -103 OFFCURVE",
"239 -106 OFFCURVE",
"239 -108 CURVE SMOOTH",
"239 -125 OFFCURVE",
"251 -136 OFFCURVE",
"267 -136 CURVE SMOOTH"
);
},
{
closed = 1;
nodes = (
"488 224 LINE",
"493 254 LINE",
"188 254 LINE",
"182 224 LINE"
);
},
{
closed = 1;
nodes = (
"530 780 OFFCURVE",
"585 822 OFFCURVE",
"606 899 CURVE",
"579 899 LINE",
"556 826 OFFCURVE",
"504 812 OFFCURVE",
"459 812 CURVE SMOOTH",
"416 812 OFFCURVE",
"372 824 OFFCURVE",
"372 885 CURVE SMOOTH",
"372 890 OFFCURVE",
"373 894 OFFCURVE",
"373 899 CURVE",
"348 899 LINE",
"347 890 OFFCURVE",
"346 882 OFFCURVE",
"346 874 CURVE SMOOTH",
"346 812 OFFCURVE",
"384 780 OFFCURVE",
"453 780 CURVE SMOOTH"
);
}
);
width = 667;
}
);
leftKerningGroup = A;
note = Abrevedotbelow;
rightKerningGroup = A;
unicode = 1EB6;
},
{
glyphname = Abrevegrave;
lastChange = "2015-10-21 17:44:04 +0000";
layers = (
{
layerId = "5C59C03B-63D5-4D42-95DD-0674E6EE1F81";
name = "Light Italic";
paths = (
{
closed = 1;
nodes = (
"156 0 LINE",
"158 18 LINE",
"144 18 LINE SMOOTH",
"124 18 OFFCURVE",
"95 28 OFFCURVE",
"95 46 CURVE SMOOTH",
"95 49 OFFCURVE",
"96 52 OFFCURVE",
"98 55 CURVE SMOOTH",
"416 624 LINE",
"500 46 LINE SMOOTH",
"503 29 OFFCURVE",
"462 18 OFFCURVE",
"439 18 CURVE SMOOTH",
"426 18 LINE",
"423 0 LINE",
"624 0 LINE",
"627 18 LINE",
"612 18 LINE SMOOTH",
"588 18 OFFCURVE",
"559 32 OFFCURVE",
"556 52 CURVE SMOOTH",
"455 709 LINE",
"414 688 LINE",
"57 52 LINE SMOOTH",
"46 33 OFFCURVE",
"8 18 OFFCURVE",
"-16 18 CURVE SMOOTH",
"-31 18 LINE",
"-34 0 LINE"
);
},
{
closed = 1;
nodes = (
"488 224 LINE",
"493 254 LINE",
"188 254 LINE",
"182 224 LINE"
);
},
{
closed = 1;
nodes = (
"531 780 OFFCURVE",
"586 822 OFFCURVE",
"607 899 CURVE",
"581 899 LINE",
"558 827 OFFCURVE",
"505 812 OFFCURVE",
"460 812 CURVE SMOOTH",
"418 812 OFFCURVE",
"374 825 OFFCURVE",
"374 884 CURVE SMOOTH",
"374 889 OFFCURVE",
"374 894 OFFCURVE",
"375 899 CURVE",
"348 899 LINE",
"348 890 OFFCURVE",
"347 881 OFFCURVE",
"347 873 CURVE SMOOTH",
"347 812 OFFCURVE",
"384 780 OFFCURVE",
"453 780 CURVE SMOOTH"
);
},
{
closed = 1;
nodes = (
"500 902 LINE",
"420 991 LINE",
"414 999 OFFCURVE",
"404 1008 OFFCURVE",
"392 1008 CURVE SMOOTH",
"379 1008 OFFCURVE",
"370 999 OFFCURVE",
"368 988 CURVE",
"365 978 OFFCURVE",
"370 967 OFFCURVE",
"382 958 CURVE SMOOTH",
"487 887 LINE"
);
}
);
width = 667;
}
);
leftKerningGroup = A;
note = Abrevegrave;
rightKerningGroup = A;
unicode = 1EB0;
},
{
glyphname = Abrevehookabove;
lastChange = "2015-10-21 17:44:03 +0000";
layers = (
{
layerId = "5C59C03B-63D5-4D42-95DD-0674E6EE1F81";
name = "Light Italic";
paths = (
{
closed = 1;
nodes = (
"156 0 LINE",
"158 18 LINE",
"144 18 LINE SMOOTH",
"124 18 OFFCURVE",
"95 28 OFFCURVE",
"95 46 CURVE SMOOTH",
"95 49 OFFCURVE",
"96 52 OFFCURVE",
"98 55 CURVE SMOOTH",
"416 624 LINE",
"500 46 LINE SMOOTH",
"503 29 OFFCURVE",
"462 18 OFFCURVE",
"439 18 CURVE SMOOTH",
"426 18 LINE",
"423 0 LINE",
"624 0 LINE",
"627 18 LINE",
"612 18 LINE SMOOTH",
"588 18 OFFCURVE",
"559 32 OFFCURVE",
"556 52 CURVE SMOOTH",
"455 709 LINE",
"414 688 LINE",
"57 52 LINE SMOOTH",
"46 33 OFFCURVE",
"8 18 OFFCURVE",
"-16 18 CURVE SMOOTH",
"-31 18 LINE",
"-34 0 LINE"
);
},
{
closed = 1;
nodes = (
"488 224 LINE",
"493 254 LINE",
"188 254 LINE",
"182 224 LINE"
);
},
{
closed = 1;
nodes = (
"531 780 OFFCURVE",
"586 822 OFFCURVE",
"607 899 CURVE",
"581 899 LINE",
"558 827 OFFCURVE",
"505 812 OFFCURVE",
"460 812 CURVE SMOOTH",
"418 812 OFFCURVE",
"374 825 OFFCURVE",
"374 884 CURVE SMOOTH",
"374 889 OFFCURVE",
"374 894 OFFCURVE",
"375 899 CURVE",
"348 899 LINE",
"348 890 OFFCURVE",
"347 881 OFFCURVE",
"347 873 CURVE SMOOTH",
"347 812 OFFCURVE",
"384 780 OFFCURVE",
"453 780 CURVE SMOOTH"
);
},
{
closed = 1;
nodes = (
"500 886 LINE",
"485 891 OFFCURVE",
"475 896 OFFCURVE",
"479 913 CURVE",
"484 941 OFFCURVE",
"566 949 OFFCURVE",
"566 997 CURVE SMOOTH",
"566 1025 OFFCURVE",
"537 1037 OFFCURVE",
"503 1037 CURVE SMOOTH",
"476 1037 OFFCURVE",
"434 1028 OFFCURVE",
"428 1000 CURVE SMOOTH",
"426 989 OFFCURVE",
"433 981 OFFCURVE",
"443 981 CURVE SMOOTH",
"470 981 OFFCURVE",
"464 1016 OFFCURVE",
"502 1016 CURVE SMOOTH",
"518 1016 OFFCURVE",
"529 1005 OFFCURVE",
"526 992 CURVE SMOOTH",
"519 956 OFFCURVE",
"451 948 OFFCURVE",
"444 912 CURVE",
"440 890 OFFCURVE",
"451 871 OFFCURVE",
"490 871 CURVE"
);
}
);
width = 667;
}
);
leftKerningGroup = A;
note = Abrevehookabove;
rightKerningGroup = A;
unicode = 1EB2;
},
{
glyphname = Abrevetilde;
lastChange = "2015-10-21 17:44:02 +0000";
layers = (
{
layerId = "5C59C03B-63D5-4D42-95DD-0674E6EE1F81";
name = "Light Italic";
paths = (
{
closed = 1;
nodes = (
"156 0 LINE",
"158 18 LINE",
"144 18 LINE SMOOTH",
"124 18 OFFCURVE",
"95 28 OFFCURVE",
"95 46 CURVE SMOOTH",
"95 49 OFFCURVE",
"96 52 OFFCURVE",
"98 55 CURVE SMOOTH",
"416 624 LINE",
"500 46 LINE SMOOTH",
"503 29 OFFCURVE",
"462 18 OFFCURVE",
"439 18 CURVE SMOOTH",
"426 18 LINE",
"423 0 LINE",
"624 0 LINE",
"627 18 LINE",
"612 18 LINE SMOOTH",
"588 18 OFFCURVE",
"559 32 OFFCURVE",
"556 52 CURVE SMOOTH",
"455 709 LINE",
"414 688 LINE",
"57 52 LINE SMOOTH",
"46 33 OFFCURVE",
"8 18 OFFCURVE",
"-16 18 CURVE SMOOTH",
"-31 18 LINE",
"-34 0 LINE"
);
},
{
closed = 1;
nodes = (
"488 224 LINE",
"493 254 LINE",
"188 254 LINE",
"182 224 LINE"
);
},
{
closed = 1;
nodes = (
"531 780 OFFCURVE",
"586 822 OFFCURVE",
"607 899 CURVE",
"581 899 LINE",
"558 827 OFFCURVE",
"505 812 OFFCURVE",
"460 812 CURVE SMOOTH",
"418 812 OFFCURVE",
"374 825 OFFCURVE",
"374 884 CURVE SMOOTH",
"374 889 OFFCURVE",
"374 894 OFFCURVE",
"375 899 CURVE",
"348 899 LINE",
"348 890 OFFCURVE",
"347 881 OFFCURVE",
"347 873 CURVE SMOOTH",
"347 812 OFFCURVE",
"384 780 OFFCURVE",
"453 780 CURVE SMOOTH"
);
},
{
closed = 1;
nodes = (
"381 984 OFFCURVE",
"403 1007 OFFCURVE",
"432 1007 CURVE SMOOTH",
"474 1007 OFFCURVE",
"505 949 OFFCURVE",
"548 949 CURVE SMOOTH",
"591 949 OFFCURVE",
"623 983 OFFCURVE",
"644 1037 CURVE",
"630 1046 LINE",
"612 1006 OFFCURVE",
"591 981 OFFCURVE",
"560 981 CURVE SMOOTH",
"520 981 OFFCURVE",
"486 1038 OFFCURVE",
"443 1038 CURVE SMOOTH",
"403 1038 OFFCURVE",
"368 1008 OFFCURVE",
"348 955 CURVE",
"362 945 LINE"
);
}
);
width = 667;
}
);
leftKerningGroup = A;
note = Abrevetilde;
rightKerningGroup = A;
unicode = 1EB4;
},
{
glyphname = Acaron;
lastChange = "2015-10-21 17:44:02 +0000";
layers = (
{
layerId = "5C59C03B-63D5-4D42-95DD-0674E6EE1F81";
name = "Light Italic";
paths = (
{
closed = 1;
nodes = (
"156 0 LINE",
"158 18 LINE",
"144 18 LINE SMOOTH",
"124 18 OFFCURVE",
"95 28 OFFCURVE",
"95 46 CURVE SMOOTH",
"95 49 OFFCURVE",
"96 52 OFFCURVE",
"98 55 CURVE SMOOTH",
"416 624 LINE",
"500 46 LINE SMOOTH",
"503 29 OFFCURVE",
"462 18 OFFCURVE",
"439 18 CURVE SMOOTH",
"426 18 LINE",
"423 0 LINE",
"624 0 LINE",
"627 18 LINE",
"612 18 LINE SMOOTH",
"588 18 OFFCURVE",
"559 32 OFFCURVE",
"556 52 CURVE SMOOTH",
"455 709 LINE",
"414 688 LINE",
"57 52 LINE SMOOTH",
"46 33 OFFCURVE",
"8 18 OFFCURVE",
"-16 18 CURVE SMOOTH",
"-31 18 LINE",
"-34 0 LINE"
);
},
{
closed = 1;
nodes = (
"488 224 LINE",
"493 254 LINE",
"188 254 LINE",
"182 224 LINE"
);
},
{
closed = 1;
nodes = (
"468 785 LINE",
"595 892 LINE",
"584 910 LINE",
"477 831 LINE",
"470 827 OFFCURVE",
"466 824 OFFCURVE",
"462 824 CURVE SMOOTH",
"458 824 OFFCURVE",
"453 826 OFFCURVE",
"447 831 CURVE",
"373 910 LINE",
"354 892 LINE",
"437 785 LINE"
);
}
);
width = 667;
}
);
leftKerningGroup = A;
note = Acaron;
rightKerningGroup = A;
unicode = 01CD;
},
{
glyphname = Acircumflex;
lastChange = "2015-10-21 17:44:03 +0000";
layers = (
{
layerId = "5C59C03B-63D5-4D42-95DD-0674E6EE1F81";
name = "Light Italic";
paths = (
{
closed = 1;
nodes = (
"156 0 LINE",
"158 18 LINE",
"144 18 LINE SMOOTH",
"124 18 OFFCURVE",
"95 28 OFFCURVE",
"95 46 CURVE SMOOTH",
"95 49 OFFCURVE",
"96 52 OFFCURVE",
"98 55 CURVE SMOOTH",
"416 624 LINE",
"500 46 LINE SMOOTH",
"503 29 OFFCURVE",
"462 18 OFFCURVE",
"439 18 CURVE SMOOTH",
"426 18 LINE",
"423 0 LINE",
"624 0 LINE",
"627 18 LINE",
"612 18 LINE SMOOTH",
"588 18 OFFCURVE",
"559 32 OFFCURVE",
"556 52 CURVE SMOOTH",
"455 709 LINE",
"414 688 LINE",
"57 52 LINE SMOOTH",
"46 33 OFFCURVE",
"8 18 OFFCURVE",
"-16 18 CURVE SMOOTH",
"-31 18 LINE",
"-34 0 LINE"
);
},
{
closed = 1;
nodes = (
"488 224 LINE",
"493 254 LINE",
"188 254 LINE",
"182 224 LINE"
);
},
{
closed = 1;
nodes = (
"454 864 LINE",
"461 868 OFFCURVE",
"468 871 OFFCURVE",
"471 871 CURVE SMOOTH",
"475 871 OFFCURVE",
"479 868 OFFCURVE",
"484 864 CURVE",
"558 785 LINE",
"577 803 LINE",
"494 910 LINE",
"463 910 LINE",
"336 803 LINE",
"348 785 LINE"
);
}
);
width = 667;
}
);
leftKerningGroup = A;
note = Acircumflex;
rightKerningGroup = A;
unicode = 00C2;
},
{
glyphname = Acircumflexacute;
lastChange = "2015-10-21 17:44:03 +0000";
layers = (
{
layerId = "5C59C03B-63D5-4D42-95DD-0674E6EE1F81";
name = "Light Italic";
paths = (
{
closed = 1;
nodes = (
"156 0 LINE",
"158 18 LINE",
"144 18 LINE SMOOTH",
"124 18 OFFCURVE",
"95 28 OFFCURVE",
"95 46 CURVE SMOOTH",
"95 49 OFFCURVE",
"96 52 OFFCURVE",
"98 55 CURVE SMOOTH",
"416 624 LINE",
"500 46 LINE SMOOTH",
"503 29 OFFCURVE",
"462 18 OFFCURVE",
"439 18 CURVE SMOOTH",
"426 18 LINE",
"423 0 LINE",
"624 0 LINE",
"627 18 LINE",
"612 18 LINE SMOOTH",
"588 18 OFFCURVE",
"559 32 OFFCURVE",
"556 52 CURVE SMOOTH",
"455 709 LINE",
"414 688 LINE",
"57 52 LINE SMOOTH",
"46 33 OFFCURVE",
"8 18 OFFCURVE",
"-16 18 CURVE SMOOTH",
"-31 18 LINE",
"-34 0 LINE"
);
},
{
closed = 1;
nodes = (
"488 224 LINE",
"493 254 LINE",
"188 254 LINE",
"182 224 LINE"
);
},
{
closed = 1;
nodes = (
"455 862 LINE",
"462 866 OFFCURVE",
"468 870 OFFCURVE",
"472 870 CURVE SMOOTH",
"476 870 OFFCURVE",
"481 867 OFFCURVE",
"486 863 CURVE",
"560 785 LINE",
"578 803 LINE",
"496 910 LINE",
"465 910 LINE",
"339 803 LINE",
"350 785 LINE"
);
},
{
closed = 1;
nodes = (
"703 954 LINE",
"719 962 OFFCURVE",
"730 974 OFFCURVE",
"732 983 CURVE",
"733 994 OFFCURVE",
"728 1003 OFFCURVE",
"715 1003 CURVE SMOOTH",
"703 1003 OFFCURVE",
"688 994 OFFCURVE",
"679 986 CURVE",
"564 897 LINE",
"571 883 LINE"
);
}
);
width = 667;
}
);
leftKerningGroup = A;
note = Acircumflexacute;
rightKerningGroup = A;
unicode = 1EA4;
},
{
glyphname = Acircumflexdotbelow;
lastChange = "2015-10-21 17:44:04 +0000";
layers = (
{
layerId = "5C59C03B-63D5-4D42-95DD-0674E6EE1F81";
name = "Light Italic";
paths = (
{
closed = 1;
nodes = (
"156 0 LINE",
"158 18 LINE",
"144 18 LINE SMOOTH",
"124 18 OFFCURVE",
"95 28 OFFCURVE",
"95 46 CURVE SMOOTH",
"95 49 OFFCURVE",
"96 52 OFFCURVE",
"98 55 CURVE SMOOTH",
"416 624 LINE",
"500 46 LINE SMOOTH",
"503 29 OFFCURVE",
"462 18 OFFCURVE",
"439 18 CURVE SMOOTH",
"426 18 LINE",
"423 0 LINE",
"624 0 LINE",
"627 18 LINE",
"612 18 LINE SMOOTH",
"588 18 OFFCURVE",
"559 32 OFFCURVE",
"556 52 CURVE SMOOTH",
"455 709 LINE",
"414 688 LINE",
"57 52 LINE SMOOTH",
"46 33 OFFCURVE",
"8 18 OFFCURVE",
"-16 18 CURVE SMOOTH",
"-31 18 LINE",
"-34 0 LINE"
);
},
{
closed = 1;
nodes = (
"287 -136 OFFCURVE",
"303 -122 OFFCURVE",
"307 -100 CURVE",
"308 -96 OFFCURVE",
"308 -93 OFFCURVE",
"308 -90 CURVE SMOOTH",
"308 -74 OFFCURVE",
"299 -64 OFFCURVE",
"281 -64 CURVE SMOOTH",
"262 -64 OFFCURVE",
"245 -78 OFFCURVE",
"240 -100 CURVE",
"239 -103 OFFCURVE",
"239 -106 OFFCURVE",
"239 -108 CURVE SMOOTH",
"239 -125 OFFCURVE",
"251 -136 OFFCURVE",
"267 -136 CURVE SMOOTH"
);
},
{
closed = 1;
nodes = (
"488 224 LINE",
"493 254 LINE",
"188 254 LINE",
"182 224 LINE"
);
},
{
closed = 1;
nodes = (
"455 863 LINE",
"462 867 OFFCURVE",
"468 870 OFFCURVE",
"472 870 CURVE SMOOTH",
"476 870 OFFCURVE",
"480 867 OFFCURVE",
"485 863 CURVE",
"559 784 LINE",
"578 802 LINE",
"495 909 LINE",
"464 909 LINE",
"337 802 LINE",
"348 784 LINE"
);
}
);
width = 667;
}
);
leftKerningGroup = A;
note = Acircumflexdotbelow;
rightKerningGroup = A;
unicode = 1EAC;
},
{
glyphname = Acircumflexgrave;
lastChange = "2015-10-21 17:44:02 +0000";
layers = (
{
layerId = "5C59C03B-63D5-4D42-95DD-0674E6EE1F81";
name = "Light Italic";
paths = (
{
closed = 1;
nodes = (
"156 0 LINE",
"158 18 LINE",
"144 18 LINE SMOOTH",
"124 18 OFFCURVE",
"95 28 OFFCURVE",
"95 46 CURVE SMOOTH",
"95 49 OFFCURVE",
"96 52 OFFCURVE",
"98 55 CURVE SMOOTH",
"416 624 LINE",
"500 46 LINE SMOOTH",
"503 29 OFFCURVE",
"462 18 OFFCURVE",
"439 18 CURVE SMOOTH",
"426 18 LINE",
"423 0 LINE",
"624 0 LINE",
"627 18 LINE",
"612 18 LINE SMOOTH",
"588 18 OFFCURVE",
"559 32 OFFCURVE",
"556 52 CURVE SMOOTH",
"455 709 LINE",
"414 688 LINE",
"57 52 LINE SMOOTH",
"46 33 OFFCURVE",
"8 18 OFFCURVE",
"-16 18 CURVE SMOOTH",
"-31 18 LINE",
"-34 0 LINE"
);
},
{
closed = 1;
nodes = (
"488 224 LINE",
"493 254 LINE",
"188 254 LINE",
"182 224 LINE"
);
},
{
closed = 1;
nodes = (
"402 897 LINE",
"322 986 LINE",
"316 994 OFFCURVE",
"306 1003 OFFCURVE",
"294 1003 CURVE SMOOTH",
"281 1003 OFFCURVE",
"272 994 OFFCURVE",
"270 983 CURVE",
"268 974 OFFCURVE",
"272 962 OFFCURVE",
"284 954 CURVE SMOOTH",
"389 883 LINE"
);
},
{
closed = 1;
nodes = (
"455 862 LINE",
"462 866 OFFCURVE",
"468 870 OFFCURVE",
"472 870 CURVE SMOOTH",
"476 870 OFFCURVE",
"481 867 OFFCURVE",
"486 863 CURVE",
"560 785 LINE",
"578 803 LINE",
"496 910 LINE",
"465 910 LINE",
"339 803 LINE",
"350 785 LINE"
);
}
);
width = 667;
}
);
leftKerningGroup = A;
note = Acircumflexgrave;
rightKerningGroup = A;
unicode = 1EA6;
},
{
glyphname = Acircumflexhookabove;
lastChange = "2015-10-21 17:44:04 +0000";
layers = (
{
layerId = "5C59C03B-63D5-4D42-95DD-0674E6EE1F81";
name = "Light Italic";
paths = (
{
closed = 1;
nodes = (
"156 0 LINE",
"158 18 LINE",
"144 18 LINE SMOOTH",
"124 18 OFFCURVE",
"95 28 OFFCURVE",
"95 46 CURVE SMOOTH",
"95 49 OFFCURVE",
"96 52 OFFCURVE",
"98 55 CURVE SMOOTH",
"416 624 LINE",
"500 46 LINE SMOOTH",
"503 29 OFFCURVE",
"462 18 OFFCURVE",
"439 18 CURVE SMOOTH",
"426 18 LINE",
"423 0 LINE",
"624 0 LINE",
"627 18 LINE",
"612 18 LINE SMOOTH",
"588 18 OFFCURVE",
"559 32 OFFCURVE",
"556 52 CURVE SMOOTH",
"455 709 LINE",
"414 688 LINE",
"57 52 LINE SMOOTH",
"46 33 OFFCURVE",
"8 18 OFFCURVE",
"-16 18 CURVE SMOOTH",
"-31 18 LINE",
"-34 0 LINE"
);
},
{
closed = 1;
nodes = (
"488 224 LINE",
"493 254 LINE",
"188 254 LINE",
"182 224 LINE"
);
},
{
closed = 1;
nodes = (
"443 852 LINE",
"452 860 OFFCURVE",
"464 870 OFFCURVE",
"472 870 CURVE SMOOTH",
"476 870 OFFCURVE",
"481 867 OFFCURVE",
"486 863 CURVE",
"560 785 LINE",
"578 803 LINE",
"496 910 LINE",
"465 910 LINE",
"339 803 LINE",
"350 785 LINE"
);
},
{
closed = 1;
nodes = (
"621 881 LINE",
"606 886 OFFCURVE",
"596 891 OFFCURVE",
"600 908 CURVE",
"605 936 OFFCURVE",
"687 944 OFFCURVE",
"687 992 CURVE SMOOTH",
"687 1020 OFFCURVE",
"658 1032 OFFCURVE",
"624 1032 CURVE SMOOTH",
"597 1032 OFFCURVE",
"556 1023 OFFCURVE",
"550 995 CURVE SMOOTH",
"548 984 OFFCURVE",
"555 976 OFFCURVE",
"564 976 CURVE SMOOTH",
"591 976 OFFCURVE",
"585 1011 OFFCURVE",
"623 1011 CURVE SMOOTH",
"639 1011 OFFCURVE",
"650 1000 OFFCURVE",
"647 987 CURVE SMOOTH",
"640 951 OFFCURVE",
"573 943 OFFCURVE",
"565 907 CURVE",
"562 885 OFFCURVE",
"573 866 OFFCURVE",
"611 866 CURVE"
);
}
);
width = 667;
}
);
leftKerningGroup = A;
note = Acircumflexhookabove;
rightKerningGroup = A;
unicode = 1EA8;
},
{
glyphname = Acircumflextilde;
lastChange = "2015-10-21 17:44:02 +0000";
layers = (
{
layerId = "5C59C03B-63D5-4D42-95DD-0674E6EE1F81";
name = "Light Italic";
paths = (
{
closed = 1;
nodes = (
"156 0 LINE",
"158 18 LINE",
"144 18 LINE SMOOTH",
"124 18 OFFCURVE",
"95 28 OFFCURVE",
"95 46 CURVE SMOOTH",
"95 49 OFFCURVE",
"96 52 OFFCURVE",
"98 55 CURVE SMOOTH",
"416 624 LINE",
"500 46 LINE SMOOTH",
"503 29 OFFCURVE",
"462 18 OFFCURVE",
"439 18 CURVE SMOOTH",
"426 18 LINE",
"423 0 LINE",
"624 0 LINE",
"627 18 LINE",
"612 18 LINE SMOOTH",
"588 18 OFFCURVE",
"559 32 OFFCURVE",
"556 52 CURVE SMOOTH",
"455 709 LINE",
"414 688 LINE",
"57 52 LINE SMOOTH",
"46 33 OFFCURVE",
"8 18 OFFCURVE",
"-16 18 CURVE SMOOTH",
"-31 18 LINE",
"-34 0 LINE"
);
},
{
closed = 1;
nodes = (
"488 224 LINE",
"493 254 LINE",
"188 254 LINE",
"182 224 LINE"
);
},
{
closed = 1;
nodes = (
"455 862 LINE",
"462 866 OFFCURVE",
"468 870 OFFCURVE",
"472 870 CURVE SMOOTH",
"476 870 OFFCURVE",
"481 867 OFFCURVE",
"486 863 CURVE",
"560 785 LINE",
"578 803 LINE",
"496 910 LINE",
"465 910 LINE",
"339 803 LINE",
"350 785 LINE"
);
},
{
closed = 1;
nodes = (
"385 979 OFFCURVE",
"407 1002 OFFCURVE",
"436 1002 CURVE SMOOTH",
"478 1002 OFFCURVE",
"509 944 OFFCURVE",
"552 944 CURVE SMOOTH",
"594 944 OFFCURVE",
"627 978 OFFCURVE",
"648 1032 CURVE",
"634 1041 LINE",
"614 1001 OFFCURVE",
"594 976 OFFCURVE",
"564 976 CURVE SMOOTH",
"524 976 OFFCURVE",
"490 1033 OFFCURVE",
"446 1033 CURVE SMOOTH",
"407 1033 OFFCURVE",
"372 1003 OFFCURVE",
"352 950 CURVE",
"366 940 LINE"
);
}
);
width = 667;
}
);
leftKerningGroup = A;
note = Acircumflextilde;
rightKerningGroup = A;
unicode = 1EAA;
},
{
glyphname = Adieresis;
lastChange = "2015-10-21 17:44:02 +0000";
layers = (
{
layerId = "5C59C03B-63D5-4D42-95DD-0674E6EE1F81";
name = "Light Italic";
paths = (
{
closed = 1;
nodes = (
"156 0 LINE",
"158 18 LINE",
"144 18 LINE SMOOTH",
"124 18 OFFCURVE",
"95 28 OFFCURVE",
"95 46 CURVE SMOOTH",
"95 49 OFFCURVE",
"96 52 OFFCURVE",
"98 55 CURVE SMOOTH",
"416 624 LINE",
"500 46 LINE SMOOTH",
"503 29 OFFCURVE",
"462 18 OFFCURVE",
"439 18 CURVE SMOOTH",
"426 18 LINE",
"423 0 LINE",
"624 0 LINE",
"627 18 LINE",
"612 18 LINE SMOOTH",
"588 18 OFFCURVE",
"559 32 OFFCURVE",
"556 52 CURVE SMOOTH",
"455 709 LINE",
"414 688 LINE",
"57 52 LINE SMOOTH",
"46 33 OFFCURVE",
"8 18 OFFCURVE",
"-16 18 CURVE SMOOTH",
"-31 18 LINE",
"-34 0 LINE"
);
},
{
closed = 1;
nodes = (
"488 224 LINE",
"493 254 LINE",
"188 254 LINE",
"182 224 LINE"
);
},
{
closed = 1;
nodes = (
"373 783 OFFCURVE",
"390 797 OFFCURVE",
"395 819 CURVE",
"396 822 OFFCURVE",
"396 825 OFFCURVE",
"396 828 CURVE SMOOTH",
"396 845 OFFCURVE",
"385 855 OFFCURVE",
"368 855 CURVE SMOOTH",
"348 855 OFFCURVE",
"332 841 OFFCURVE",
"328 819 CURVE",
"327 815 OFFCURVE",
"327 812 OFFCURVE",
"327 808 CURVE SMOOTH",
"327 793 OFFCURVE",
"337 783 OFFCURVE",
"353 783 CURVE SMOOTH"
);
},
{
closed = 1;
nodes = (
"568 783 OFFCURVE",
"585 797 OFFCURVE",
"589 819 CURVE",
"590 822 OFFCURVE",
"590 825 OFFCURVE",
"590 828 CURVE SMOOTH",
"590 845 OFFCURVE",
"580 855 OFFCURVE",
"563 855 CURVE SMOOTH",
"542 855 OFFCURVE",
"526 841 OFFCURVE",
"522 819 CURVE",
"521 815 OFFCURVE",
"521 812 OFFCURVE",
"521 809 CURVE SMOOTH",
"521 793 OFFCURVE",
"531 783 OFFCURVE",
"548 783 CURVE SMOOTH"
);
}
);
width = 667;
}
);
leftKerningGroup = A;
note = Adieresis;
rightKerningGroup = A;
unicode = 00C4;
},
{
glyphname = Adotbelow;
lastChange = "2015-10-21 17:44:03 +0000";
layers = (
{
layerId = "5C59C03B-63D5-4D42-95DD-0674E6EE1F81";
name = "Light Italic";
paths = (
{
closed = 1;
nodes = (
"156 0 LINE",
"158 18 LINE",
"144 18 LINE SMOOTH",
"124 18 OFFCURVE",
"95 28 OFFCURVE",
"95 46 CURVE SMOOTH",
"95 49 OFFCURVE",
"96 52 OFFCURVE",
"98 55 CURVE SMOOTH",
"416 624 LINE",
"500 46 LINE SMOOTH",
"503 29 OFFCURVE",
"462 18 OFFCURVE",
"439 18 CURVE SMOOTH",
"426 18 LINE",
"423 0 LINE",
"624 0 LINE",
"627 18 LINE",
"612 18 LINE SMOOTH",
"588 18 OFFCURVE",
"559 32 OFFCURVE",
"556 52 CURVE SMOOTH",
"455 709 LINE",
"414 688 LINE",
"57 52 LINE SMOOTH",
"46 33 OFFCURVE",
"8 18 OFFCURVE",
"-16 18 CURVE SMOOTH",
"-31 18 LINE",
"-34 0 LINE"
);
},
{
closed = 1;
nodes = (
"288 -136 OFFCURVE",
"304 -122 OFFCURVE",
"308 -100 CURVE",
"309 -96 OFFCURVE",
"309 -93 OFFCURVE",
"309 -90 CURVE SMOOTH",
"309 -74 OFFCURVE",
"300 -64 OFFCURVE",
"282 -64 CURVE SMOOTH",
"263 -64 OFFCURVE",
"246 -78 OFFCURVE",
"241 -100 CURVE",
"240 -103 OFFCURVE",
"240 -106 OFFCURVE",
"240 -108 CURVE SMOOTH",
"240 -125 OFFCURVE",
"252 -136 OFFCURVE",
"268 -136 CURVE SMOOTH"
);
},
{
closed = 1;
nodes = (
"488 224 LINE",
"493 254 LINE",
"188 254 LINE",
"182 224 LINE"
);
}
);
width = 667;
}
);
leftKerningGroup = A;
note = Adotbelow;
rightKerningGroup = A;
unicode = 1EA0;
},
{
glyphname = Agrave;
lastChange = "2015-10-21 17:44:03 +0000";
layers = (
{
layerId = "5C59C03B-63D5-4D42-95DD-0674E6EE1F81";
name = "Light Italic";
paths = (
{
closed = 1;
nodes = (
"156 0 LINE",
"158 18 LINE",
"144 18 LINE SMOOTH",
"124 18 OFFCURVE",
"95 28 OFFCURVE",
"95 46 CURVE SMOOTH",
"95 49 OFFCURVE",
"96 52 OFFCURVE",
"98 55 CURVE SMOOTH",
"416 624 LINE",
"500 46 LINE SMOOTH",
"503 29 OFFCURVE",
"462 18 OFFCURVE",
"439 18 CURVE SMOOTH",
"426 18 LINE",
"423 0 LINE",
"624 0 LINE",
"627 18 LINE",
"612 18 LINE SMOOTH",
"588 18 OFFCURVE",
"559 32 OFFCURVE",
"556 52 CURVE SMOOTH",
"455 709 LINE",
"414 688 LINE",
"57 52 LINE SMOOTH",
"46 33 OFFCURVE",
"8 18 OFFCURVE",
"-16 18 CURVE SMOOTH",
"-31 18 LINE",
"-34 0 LINE"
);
},
{
closed = 1;
nodes = (
"488 224 LINE",
"493 254 LINE",
"188 254 LINE",
"182 224 LINE"
);
},
{
closed = 1;
nodes = (
"536 801 LINE",
"449 894 LINE SMOOTH",
"442 902 OFFCURVE",
"433 910 OFFCURVE",
"421 910 CURVE SMOOTH",
"411 910 OFFCURVE",
"397 901 OFFCURVE",
"397 885 CURVE SMOOTH",
"397 876 OFFCURVE",
"404 867 OFFCURVE",
"413 861 CURVE SMOOTH",
"522 786 LINE"
);
}
);
width = 667;
}
);
leftKerningGroup = A;
note = Agrave;
rightKerningGroup = A;
unicode = 00C0;
},
{
glyphname = Ahookabove;
lastChange = "2015-10-21 17:44:04 +0000";
layers = (
{
layerId = "5C59C03B-63D5-4D42-95DD-0674E6EE1F81";
name = "Light Italic";
paths = (
{
closed = 1;
nodes = (
"156 0 LINE",
"158 18 LINE",
"144 18 LINE SMOOTH",
"124 18 OFFCURVE",
"95 28 OFFCURVE",
"95 46 CURVE SMOOTH",
"95 49 OFFCURVE",
"96 52 OFFCURVE",
"98 55 CURVE SMOOTH",
"416 624 LINE",
"500 46 LINE SMOOTH",
"503 29 OFFCURVE",
"462 18 OFFCURVE",
"439 18 CURVE SMOOTH",
"426 18 LINE",
"423 0 LINE",
"624 0 LINE",
"627 18 LINE",
"612 18 LINE SMOOTH",
"588 18 OFFCURVE",
"559 32 OFFCURVE",
"556 52 CURVE SMOOTH",
"455 709 LINE",
"414 688 LINE",
"57 52 LINE SMOOTH",
"46 33 OFFCURVE",
"8 18 OFFCURVE",
"-16 18 CURVE SMOOTH",
"-31 18 LINE",
"-34 0 LINE"
);
},
{
closed = 1;
nodes = (
"488 224 LINE",
"493 254 LINE",
"188 254 LINE",
"182 224 LINE"
);
},
{
closed = 1;
nodes = (
"497 795 LINE",
"484 799 OFFCURVE",
"475 803 OFFCURVE",
"475 815 CURVE SMOOTH",
"475 817 OFFCURVE",
"475 820 OFFCURVE",
"476 823 CURVE SMOOTH",
"482 854 OFFCURVE",
"563 871 OFFCURVE",
"572 918 CURVE SMOOTH",
"573 922 OFFCURVE",
"573 926 OFFCURVE",
"573 930 CURVE SMOOTH",
"573 960 OFFCURVE",
"547 974 OFFCURVE",
"511 974 CURVE SMOOTH",
"466 974 OFFCURVE",
"427 954 OFFCURVE",
"427 921 CURVE SMOOTH",
"427 912 OFFCURVE",
"432 908 OFFCURVE",
"441 908 CURVE SMOOTH",
"455 908 OFFCURVE",
"459 917 OFFCURVE",
"467 931 CURVE SMOOTH",
"474 946 OFFCURVE",
"492 951 OFFCURVE",
"507 951 CURVE SMOOTH",
"528 951 OFFCURVE",
"536 941 OFFCURVE",
"536 929 CURVE SMOOTH",
"536 926 OFFCURVE",
"536 924 OFFCURVE",
"535 921 CURVE",
"526 878 OFFCURVE",
"450 866 OFFCURVE",
"442 823 CURVE SMOOTH",
"441 819 OFFCURVE",
"441 816 OFFCURVE",
"441 812 CURVE SMOOTH",
"441 793 OFFCURVE",
"455 778 OFFCURVE",
"486 778 CURVE"
);
}
);
width = 667;
}
);
leftKerningGroup = A;
note = Ahookabove;
rightKerningGroup = A;
unicode = 1EA2;
},
{
glyphname = Amacron;
lastChange = "2015-10-21 17:44:02 +0000";
layers = (
{
layerId = "5C59C03B-63D5-4D42-95DD-0674E6EE1F81";
name = "Light Italic";
paths = (
{
closed = 1;
nodes = (
"156 0 LINE",
"158 18 LINE",
"144 18 LINE SMOOTH",
"124 18 OFFCURVE",
"95 28 OFFCURVE",
"95 46 CURVE SMOOTH",
"95 49 OFFCURVE",
"96 52 OFFCURVE",
"98 55 CURVE SMOOTH",
"416 624 LINE",
"500 46 LINE SMOOTH",
"503 29 OFFCURVE",
"462 18 OFFCURVE",
"439 18 CURVE SMOOTH",
"426 18 LINE",
"423 0 LINE",
"624 0 LINE",
"627 18 LINE",
"612 18 LINE SMOOTH",
"588 18 OFFCURVE",
"559 32 OFFCURVE",
"556 52 CURVE SMOOTH",
"455 709 LINE",
"414 688 LINE",
"57 52 LINE SMOOTH",
"46 33 OFFCURVE",
"8 18 OFFCURVE",
"-16 18 CURVE SMOOTH",
"-31 18 LINE",
"-34 0 LINE"
);
},
{
closed = 1;
nodes = (
"488 224 LINE",
"493 254 LINE",
"188 254 LINE",
"182 224 LINE"
);
},
{
closed = 1;
nodes = (
"593 785 LINE",
"600 814 LINE",
"320 814 LINE",
"313 785 LINE"
);
}
);
width = 667;
}
);
leftKerningGroup = A;
note = Amacron;
rightKerningGroup = A;
unicode = 0100;
},
{
glyphname = Aogonek;
lastChange = "2015-10-21 17:44:04 +0000";
layers = (
{
layerId = "5C59C03B-63D5-4D42-95DD-0674E6EE1F81";
name = "Light Italic";
paths = (
{
closed = 1;
nodes = (
"156 0 LINE",
"158 18 LINE",
"144 18 LINE SMOOTH",
"124 18 OFFCURVE",
"95 28 OFFCURVE",
"95 46 CURVE SMOOTH",
"95 49 OFFCURVE",
"96 52 OFFCURVE",
"98 55 CURVE SMOOTH",
"416 624 LINE",
"500 46 LINE SMOOTH",
"503 29 OFFCURVE",
"462 18 OFFCURVE",
"439 18 CURVE SMOOTH",
"426 18 LINE",
"423 0 LINE",
"624 0 LINE",
"627 18 LINE",
"612 18 LINE SMOOTH",
"588 18 OFFCURVE",
"559 32 OFFCURVE",
"556 52 CURVE SMOOTH",
"455 709 LINE",
"414 688 LINE",
"57 52 LINE SMOOTH",
"46 33 OFFCURVE",
"8 18 OFFCURVE",
"-16 18 CURVE SMOOTH",
"-31 18 LINE",
"-34 0 LINE"
);
},
{
closed = 1;
nodes = (
"538 -176 OFFCURVE",
"555 -172 OFFCURVE",
"579 -162 CURVE",
"581 -145 LINE",
"564 -150 OFFCURVE",
"550 -153 OFFCURVE",
"538 -153 CURVE SMOOTH",
"511 -153 OFFCURVE",
"489 -142 OFFCURVE",
"489 -114 CURVE SMOOTH",
"489 -110 OFFCURVE",
"490 -105 OFFCURVE",
"491 -100 CURVE SMOOTH",
"499 -60 OFFCURVE",
"535 -22 OFFCURVE",
"579 1 CURVE",
"550 1 LINE",
"500 -21 OFFCURVE",
"462 -58 OFFCURVE",
"452 -104 CURVE SMOOTH",
"451 -109 OFFCURVE",
"450 -114 OFFCURVE",
"450 -119 CURVE SMOOTH",
"450 -147 OFFCURVE",
"466 -176 OFFCURVE",
"516 -176 CURVE SMOOTH"
);
},
{
closed = 1;
nodes = (
"488 224 LINE",
"493 254 LINE",
"188 254 LINE",
"182 224 LINE"
);
}
);
width = 667;
}
);
leftKerningGroup = A;
note = Aogonek;
rightKerningGroup = A;
unicode = 0104;
},
{
glyphname = Aring;
lastChange = "2015-10-21 17:44:03 +0000";
layers = (
{
layerId = "5C59C03B-63D5-4D42-95DD-0674E6EE1F81";
name = "Light Italic";
paths = (
{
closed = 1;
nodes = (
"156 0 LINE",
"158 18 LINE",
"144 18 LINE SMOOTH",
"124 18 OFFCURVE",
"95 28 OFFCURVE",
"95 46 CURVE SMOOTH",
"95 49 OFFCURVE",
"96 52 OFFCURVE",
"98 55 CURVE SMOOTH",
"416 624 LINE",
"500 46 LINE SMOOTH",
"503 29 OFFCURVE",
"462 18 OFFCURVE",
"439 18 CURVE SMOOTH",
"426 18 LINE",
"423 0 LINE",
"624 0 LINE",
"627 18 LINE",
"612 18 LINE SMOOTH",
"588 18 OFFCURVE",
"559 32 OFFCURVE",
"556 52 CURVE SMOOTH",
"455 709 LINE",
"414 688 LINE",
"57 52 LINE SMOOTH",
"46 33 OFFCURVE",
"8 18 OFFCURVE",
"-16 18 CURVE SMOOTH",
"-31 18 LINE",
"-34 0 LINE"
);
},
{
closed = 1;
nodes = (
"488 224 LINE",
"493 254 LINE",
"188 254 LINE",
"182 224 LINE"
);
},
{
closed = 1;
nodes = (
"499 760 OFFCURVE",
"545 801 OFFCURVE",
"545 857 CURVE SMOOTH",
"545 894 OFFCURVE",
"520 918 OFFCURVE",
"481 918 CURVE SMOOTH",
"429 918 OFFCURVE",
"383 878 OFFCURVE",
"383 821 CURVE SMOOTH",
"383 784 OFFCURVE",
"409 760 OFFCURVE",
"448 760 CURVE SMOOTH"
);
},
{
closed = 1;
nodes = (
"428 784 OFFCURVE",
"412 799 OFFCURVE",
"412 825 CURVE SMOOTH",
"412 866 OFFCURVE",
"442 893 OFFCURVE",
"475 893 CURVE SMOOTH",
"500 893 OFFCURVE",
"516 877 OFFCURVE",
"516 852 CURVE SMOOTH",
"516 810 OFFCURVE",
"486 784 OFFCURVE",
"453 784 CURVE SMOOTH"
);
}
);
width = 667;
}
);
leftKerningGroup = A;
note = Aring;
rightKerningGroup = A;
unicode = 00C5;
},
{
glyphname = Aringacute;
lastChange = "2015-10-21 17:44:02 +0000";
layers = (
{
layerId = "5C59C03B-63D5-4D42-95DD-0674E6EE1F81";
name = "Light Italic";
paths = (
{
closed = 1;
nodes = (
"156 0 LINE",
"158 18 LINE",
"144 18 LINE SMOOTH",
"124 18 OFFCURVE",
"95 28 OFFCURVE",
"95 46 CURVE SMOOTH",
"95 49 OFFCURVE",
"96 52 OFFCURVE",
"98 55 CURVE SMOOTH",
"416 624 LINE",
"500 46 LINE SMOOTH",
"503 29 OFFCURVE",
"462 18 OFFCURVE",
"439 18 CURVE SMOOTH",
"426 18 LINE",
"423 0 LINE",
"624 0 LINE",
"627 18 LINE",
"612 18 LINE SMOOTH",
"588 18 OFFCURVE",
"559 32 OFFCURVE",
"556 52 CURVE SMOOTH",
"455 709 LINE",
"414 688 LINE",
"57 52 LINE SMOOTH",
"46 33 OFFCURVE",
"8 18 OFFCURVE",
"-16 18 CURVE SMOOTH",
"-31 18 LINE",
"-34 0 LINE"
);
},
{
closed = 1;
nodes = (
"488 224 LINE",
"493 254 LINE",
"188 254 LINE",
"182 224 LINE"
);
},
{
closed = 1;
nodes = (
"499 760 OFFCURVE",
"545 801 OFFCURVE",
"545 857 CURVE SMOOTH",
"545 894 OFFCURVE",
"520 918 OFFCURVE",
"481 918 CURVE SMOOTH",
"429 918 OFFCURVE",
"383 878 OFFCURVE",
"383 821 CURVE SMOOTH",
"383 784 OFFCURVE",
"409 760 OFFCURVE",
"448 760 CURVE SMOOTH"
);
},
{
closed = 1;
nodes = (
"428 784 OFFCURVE",
"412 799 OFFCURVE",
"412 825 CURVE SMOOTH",
"412 866 OFFCURVE",
"442 893 OFFCURVE",
"475 893 CURVE SMOOTH",
"500 893 OFFCURVE",
"516 877 OFFCURVE",
"516 852 CURVE SMOOTH",
"516 810 OFFCURVE",
"486 784 OFFCURVE",
"453 784 CURVE SMOOTH"
);
},
{
closed = 1;
nodes = (
"564 1040 LINE SMOOTH",
"581 1049 OFFCURVE",
"591 1062 OFFCURVE",
"591 1074 CURVE SMOOTH",
"591 1083 OFFCURVE",
"586 1089 OFFCURVE",
"576 1089 CURVE SMOOTH",
"564 1089 OFFCURVE",
"550 1080 OFFCURVE",
"541 1073 CURVE",
"417 980 LINE",
"424 965 LINE"
);
}
);
width = 667;
}
);
leftKerningGroup = A;
note = Aringacute;
rightKerningGroup = A;
unicode = 01FA;
},
{
glyphname = Atilde;
lastChange = "2015-10-21 17:44:04 +0000";
layers = (
{
layerId = "5C59C03B-63D5-4D42-95DD-0674E6EE1F81";
name = "Light Italic";
paths = (
{
closed = 1;
nodes = (
"156 0 LINE",
"158 18 LINE",
"144 18 LINE SMOOTH",
"124 18 OFFCURVE",
"95 28 OFFCURVE",
"95 46 CURVE SMOOTH",
"95 49 OFFCURVE",
"96 52 OFFCURVE",
"98 55 CURVE SMOOTH",
"416 624 LINE",
"500 46 LINE SMOOTH",
"503 29 OFFCURVE",
"462 18 OFFCURVE",
"439 18 CURVE SMOOTH",
"426 18 LINE",
"423 0 LINE",
"624 0 LINE",
"627 18 LINE",
"612 18 LINE SMOOTH",
"588 18 OFFCURVE",
"559 32 OFFCURVE",
"556 52 CURVE SMOOTH",
"455 709 LINE",
"414 688 LINE",
"57 52 LINE SMOOTH",
"46 33 OFFCURVE",
"8 18 OFFCURVE",
"-16 18 CURVE SMOOTH",
"-31 18 LINE",
"-34 0 LINE"
);
},
{
closed = 1;
nodes = (
"488 224 LINE",
"493 254 LINE",
"188 254 LINE",
"182 224 LINE"
);
},
{
closed = 1;
nodes = (
"348 822 OFFCURVE",
"371 845 OFFCURVE",
"399 845 CURVE SMOOTH",
"442 845 OFFCURVE",
"474 787 OFFCURVE",
"518 787 CURVE SMOOTH",
"563 787 OFFCURVE",
"596 821 OFFCURVE",
"616 875 CURVE",
"602 884 LINE",
"583 844 OFFCURVE",
"563 819 OFFCURVE",
"531 819 CURVE SMOOTH",
"491 819 OFFCURVE",
"455 876 OFFCURVE",
"411 876 CURVE SMOOTH",
"371 876 OFFCURVE",
"335 847 OFFCURVE",
"315 793 CURVE",
"329 784 LINE"
);
}
);
width = 667;
}
);
leftKerningGroup = A;
note = Atilde;
rightKerningGroup = A;
unicode = 00C3;
},
{
glyphname = AE;
lastChange = "2015-10-21 17:44:02 +0000";
layers = (
{
layerId = "5C59C03B-63D5-4D42-95DD-0674E6EE1F81";
name = "Light Italic";
paths = (
{
closed = 1;
nodes = (
"158 0 LINE",
"161 18 LINE",
"147 18 LINE SMOOTH",
"134 18 OFFCURVE",
"98 25 OFFCURVE",
"98 44 CURVE SMOOTH",
"98 48 OFFCURVE",
"100 53 OFFCURVE",
"105 59 CURVE SMOOTH",
"234 224 LINE",
"489 224 LINE",
"454 52 LINE SMOOTH",
"448 27 OFFCURVE",
"421 18 OFFCURVE",
"395 18 CURVE SMOOTH",
"376 18 LINE",
"373 0 LINE",
"816 0 LINE",
"865 170 LINE",
"849 170 LINE",
"835 123 OFFCURVE",
"799 29 OFFCURVE",
"741 29 CURVE SMOOTH",
"501 29 LINE",
"567 356 LINE",
"739 356 LINE SMOOTH",
"766 356 OFFCURVE",
"773 337 OFFCURVE",
"773 310 CURVE SMOOTH",
"773 294 OFFCURVE",
"771 275 OFFCURVE",
"768 255 CURVE",
"784 255 LINE",
"831 487 LINE",
"815 487 LINE",
"801 434 OFFCURVE",
"788 386 OFFCURVE",
"746 386 CURVE SMOOTH",
"574 386 LINE",
"632 670 LINE",
"864 670 LINE SMOOTH",
"904 670 OFFCURVE",
"914 632 OFFCURVE",
"914 595 CURVE SMOOTH",
"914 574 OFFCURVE",
"911 554 OFFCURVE",
"909 539 CURVE",
"925 539 LINE",
"958 700 LINE",
"507 700 LINE",
"503 681 LINE",
"530 681 LINE SMOOTH",
"539 681 OFFCURVE",
"542 676 OFFCURVE",
"542 670 CURVE SMOOTH",
"542 665 OFFCURVE",
"540 661 OFFCURVE",
"538 657 CURVE SMOOTH",
"87 88 LINE SMOOTH",
"61 55 OFFCURVE",
"30 18 OFFCURVE",
"-13 18 CURVE SMOOTH",
"-27 18 LINE",
"-30 0 LINE"
);
},
{
closed = 1;
nodes = (
"577 656 LINE",
"494 254 LINE",
"256 254 LINE"
);
}
);
width = 906;
}
);
leftKerningGroup = A;
note = AE;
rightKerningGroup = E;
unicode = 00C6;
},
{
glyphname = AEacute;
lastChange = "2015-10-21 17:44:04 +0000";
layers = (
{
layerId = "5C59C03B-63D5-4D42-95DD-0674E6EE1F81";
name = "Light Italic";
paths = (
{
closed = 1;
nodes = (
"158 0 LINE",
"161 18 LINE",
"147 18 LINE SMOOTH",
"134 18 OFFCURVE",
"98 25 OFFCURVE",
"98 44 CURVE SMOOTH",
"98 48 OFFCURVE",
"100 53 OFFCURVE",
"105 59 CURVE SMOOTH",
"234 224 LINE",
"489 224 LINE",
"454 52 LINE SMOOTH",
"448 27 OFFCURVE",
"421 18 OFFCURVE",
"395 18 CURVE SMOOTH",
"376 18 LINE",
"373 0 LINE",
"816 0 LINE",
"865 170 LINE",
"849 170 LINE",
"835 123 OFFCURVE",
"799 29 OFFCURVE",
"741 29 CURVE SMOOTH",
"501 29 LINE",
"567 356 LINE",
"739 356 LINE SMOOTH",
"766 356 OFFCURVE",
"773 337 OFFCURVE",
"773 310 CURVE SMOOTH",
"773 294 OFFCURVE",
"771 275 OFFCURVE",
"768 255 CURVE",
"784 255 LINE",
"831 487 LINE",
"815 487 LINE",
"801 434 OFFCURVE",
"788 386 OFFCURVE",
"746 386 CURVE SMOOTH",
"574 386 LINE",
"632 670 LINE",
"864 670 LINE SMOOTH",
"904 670 OFFCURVE",
"914 632 OFFCURVE",
"914 595 CURVE SMOOTH",
"914 574 OFFCURVE",
"911 554 OFFCURVE",
"909 539 CURVE",
"925 539 LINE",
"958 700 LINE",
"507 700 LINE",
"503 681 LINE",
"530 681 LINE SMOOTH",
"539 681 OFFCURVE",
"542 676 OFFCURVE",
"542 670 CURVE SMOOTH",
"542 665 OFFCURVE",
"540 661 OFFCURVE",
"538 657 CURVE SMOOTH",
"87 88 LINE SMOOTH",
"61 55 OFFCURVE",
"30 18 OFFCURVE",
"-13 18 CURVE SMOOTH",
"-27 18 LINE",
"-30 0 LINE"
);
},
{
closed = 1;
nodes = (
"577 656 LINE",
"494 254 LINE",
"256 254 LINE"
);
},
{
closed = 1;
nodes = (
"870 861 LINE SMOOTH",
"886 870 OFFCURVE",
"897 883 OFFCURVE",
"897 895 CURVE SMOOTH",
"897 904 OFFCURVE",
"891 910 OFFCURVE",
"881 910 CURVE SMOOTH",
"869 910 OFFCURVE",
"855 901 OFFCURVE",
"847 894 CURVE",
"722 801 LINE",
"730 786 LINE"
);
}
);
width = 906;
}
);
leftKerningGroup = A;
note = AEacute;
rightKerningGroup = E;
unicode = 01FC;
},
{
glyphname = B;
lastChange = "2015-10-21 17:44:02 +0000";
layers = (
{
layerId = "5C59C03B-63D5-4D42-95DD-0674E6EE1F81";
name = "Light Italic";
paths = (
{
closed = 1;
nodes = (
"276 0 LINE SMOOTH",
"403 0 OFFCURVE",
"492 66 OFFCURVE",
"516 187 CURVE SMOOTH",
"519 203 OFFCURVE",
"522 220 OFFCURVE",
"522 236 CURVE SMOOTH",
"522 295 OFFCURVE",
"494 351 OFFCURVE",
"395 367 CURVE",
"395 368 OFFCURVE",
"395 370 OFFCURVE",
"395 370 CURVE",
"475 392 OFFCURVE",
"532 459 OFFCURVE",
"547 534 CURVE SMOOTH",
"550 549 OFFCURVE",
"552 563 OFFCURVE",
"552 575 CURVE SMOOTH",
"552 657 OFFCURVE",
"492 700 OFFCURVE",
"392 700 CURVE SMOOTH",
"124 700 LINE",
"120 681 LINE",
"147 681 LINE SMOOTH",
"184 681 OFFCURVE",
"203 672 OFFCURVE",
"198 647 CURVE SMOOTH",
"77 52 LINE SMOOTH",
"71 27 OFFCURVE",
"49 18 OFFCURVE",
"12 18 CURVE SMOOTH",
"-15 18 LINE",
"-18 0 LINE"
);
},
{
closed = 1;
nodes = (
"189 351 LINE",
"311 351 LINE SMOOTH",
"422 351 OFFCURVE",
"473 311 OFFCURVE",
"473 235 CURVE SMOOTH",
"473 220 OFFCURVE",
"472 205 OFFCURVE",
"468 188 CURVE SMOOTH",
"448 87 OFFCURVE",
"376 29 OFFCURVE",
"249 29 CURVE SMOOTH",
"124 29 LINE"
);
},
{
closed = 1;
nodes = (
"254 670 LINE",
"357 670 LINE SMOOTH",
"453 670 OFFCURVE",
"501 640 OFFCURVE",
"501 572 CURVE SMOOTH",
"501 560 OFFCURVE",
"500 548 OFFCURVE",
"497 534 CURVE SMOOTH",
"479 444 OFFCURVE",
"404 380 OFFCURVE",
"311 380 CURVE SMOOTH",
"195 380 LINE"
);
}
);
width = 548;
}
);
note = B;
unicode = 0042;
},
{
glyphname = C;
lastChange = "2015-10-21 17:48:17 +0000";
layers = (
{
layerId = "5C59C03B-63D5-4D42-95DD-0674E6EE1F81";
name = "Light Italic";
paths = (
{
closed = 1;
nodes = (
"426 -10 OFFCURVE",
"539 53 OFFCURVE",
"585 169 CURVE",
"558 169 LINE",
"509 63 OFFCURVE",
"400 19 OFFCURVE",
"320 19 CURVE SMOOTH",
"178 19 OFFCURVE",
"117 105 OFFCURVE",
"117 236 CURVE SMOOTH",
"117 271 OFFCURVE",
"121 309 OFFCURVE",
"130 350 CURVE SMOOTH",
"169 544 OFFCURVE",
"284 680 OFFCURVE",
"462 680 CURVE SMOOTH",
"562 680 OFFCURVE",
"627 627 OFFCURVE",
"627 544 CURVE SMOOTH",
"627 538 OFFCURVE",
"627 531 OFFCURVE",
"626 525 CURVE",
"644 525 LINE",
"681 705 LINE",
"656 705 LINE",
"647 662 LINE SMOOTH",
"644 649 OFFCURVE",
"639 644 OFFCURVE",
"635 644 CURVE SMOOTH",
"632 644 OFFCURVE",
"630 647 OFFCURVE",
"627 649 CURVE",
"607 669 OFFCURVE",
"552 710 OFFCURVE",
"461 710 CURVE SMOOTH",
"270 710 OFFCURVE",
"125 580 OFFCURVE",
"78 350 CURVE SMOOTH",
"69 307 OFFCURVE",
"65 268 OFFCURVE",
"65 233 CURVE SMOOTH",
"65 76 OFFCURVE",
"148 -10 OFFCURVE",
"302 -10 CURVE SMOOTH"
);
}
);
width = 618;
}
);
leftKerningGroup = C;
note = C;
rightKerningGroup = C;
unicode = 0043;
},
{
glyphname = Cacute;
lastChange = "2015-10-21 17:44:03 +0000";
layers = (
{
layerId = "5C59C03B-63D5-4D42-95DD-0674E6EE1F81";
name = "Light Italic";
paths = (
{
closed = 1;
nodes = (
"426 -10 OFFCURVE",
"539 53 OFFCURVE",
"585 169 CURVE",
"558 169 LINE",
"509 63 OFFCURVE",
"400 19 OFFCURVE",
"320 19 CURVE SMOOTH",
"178 19 OFFCURVE",
"117 105 OFFCURVE",
"117 236 CURVE SMOOTH",
"117 271 OFFCURVE",
"121 309 OFFCURVE",
"130 350 CURVE SMOOTH",
"169 544 OFFCURVE",
"284 680 OFFCURVE",
"462 680 CURVE SMOOTH",
"562 680 OFFCURVE",
"627 627 OFFCURVE",
"627 544 CURVE SMOOTH",
"627 538 OFFCURVE",
"627 531 OFFCURVE",
"626 525 CURVE",
"644 525 LINE",
"681 705 LINE",
"656 705 LINE",
"647 662 LINE SMOOTH",
"644 649 OFFCURVE",
"639 644 OFFCURVE",
"635 644 CURVE SMOOTH",
"632 644 OFFCURVE",
"630 647 OFFCURVE",
"627 649 CURVE",
"607 669 OFFCURVE",
"552 710 OFFCURVE",
"461 710 CURVE SMOOTH",
"270 710 OFFCURVE",
"125 580 OFFCURVE",
"78 350 CURVE SMOOTH",
"69 307 OFFCURVE",
"65 268 OFFCURVE",
"65 233 CURVE SMOOTH",
"65 76 OFFCURVE",
"148 -10 OFFCURVE",
"302 -10 CURVE SMOOTH"
);
},
{
closed = 1;
nodes = (
"540 861 LINE SMOOTH",
"557 870 OFFCURVE",
"567 883 OFFCURVE",
"567 895 CURVE SMOOTH",
"567 904 OFFCURVE",
"562 910 OFFCURVE",
"552 910 CURVE SMOOTH",
"540 910 OFFCURVE",
"526 901 OFFCURVE",
"517 894 CURVE",
"393 801 LINE",
"400 786 LINE"
);
}
);
width = 618;
}
);
leftKerningGroup = C;
note = Cacute;
rightKerningGroup = C;
unicode = 0106;
},
{
glyphname = Ccaron;
lastChange = "2015-10-21 17:44:04 +0000";
layers = (
{
layerId = "5C59C03B-63D5-4D42-95DD-0674E6EE1F81";
name = "Light Italic";
paths = (
{
closed = 1;
nodes = (
"426 -10 OFFCURVE",
"539 53 OFFCURVE",
"585 169 CURVE",
"558 169 LINE",
"509 63 OFFCURVE",
"400 19 OFFCURVE",
"320 19 CURVE SMOOTH",
"178 19 OFFCURVE",
"117 105 OFFCURVE",
"117 236 CURVE SMOOTH",
"117 271 OFFCURVE",
"121 309 OFFCURVE",
"130 350 CURVE SMOOTH",
"169 544 OFFCURVE",
"284 680 OFFCURVE",
"462 680 CURVE SMOOTH",
"562 680 OFFCURVE",
"627 627 OFFCURVE",
"627 544 CURVE SMOOTH",
"627 538 OFFCURVE",
"627 531 OFFCURVE",
"626 525 CURVE",
"644 525 LINE",
"681 705 LINE",
"656 705 LINE",
"647 662 LINE SMOOTH",
"644 649 OFFCURVE",
"639 644 OFFCURVE",
"635 644 CURVE SMOOTH",
"632 644 OFFCURVE",
"630 647 OFFCURVE",
"627 649 CURVE",
"607 669 OFFCURVE",
"552 710 OFFCURVE",
"461 710 CURVE SMOOTH",
"270 710 OFFCURVE",
"125 580 OFFCURVE",
"78 350 CURVE SMOOTH",
"69 307 OFFCURVE",
"65 268 OFFCURVE",
"65 233 CURVE SMOOTH",
"65 76 OFFCURVE",
"148 -10 OFFCURVE",
"302 -10 CURVE SMOOTH"
);
},
{
closed = 1;
nodes = (
"477 785 LINE",
"604 892 LINE",
"592 910 LINE",
"486 831 LINE",
"479 827 OFFCURVE",
"474 824 OFFCURVE",
"470 824 CURVE SMOOTH",
"467 824 OFFCURVE",
"462 826 OFFCURVE",
"456 831 CURVE",
"382 910 LINE",
"363 892 LINE",
"445 785 LINE"
);
}
);
width = 618;
}
);
leftKerningGroup = C;
note = Ccaron;
rightKerningGroup = C;
unicode = 010C;
},
{
glyphname = Ccedilla;
lastChange = "2015-10-21 17:44:04 +0000";
layers = (
{
layerId = "5C59C03B-63D5-4D42-95DD-0674E6EE1F81";
name = "Light Italic";
paths = (
{
closed = 1;
nodes = (
"426 -10 OFFCURVE",
"539 53 OFFCURVE",
"585 169 CURVE",
"558 169 LINE",
"509 63 OFFCURVE",
"400 19 OFFCURVE",
"320 19 CURVE SMOOTH",
"178 19 OFFCURVE",
"117 105 OFFCURVE",
"117 236 CURVE SMOOTH",
"117 271 OFFCURVE",
"121 309 OFFCURVE",
"130 350 CURVE SMOOTH",
"169 544 OFFCURVE",
"284 680 OFFCURVE",
"462 680 CURVE SMOOTH",
"562 680 OFFCURVE",
"627 627 OFFCURVE",
"627 544 CURVE SMOOTH",
"627 538 OFFCURVE",
"627 531 OFFCURVE",
"626 525 CURVE",
"644 525 LINE",
"681 705 LINE",
"656 705 LINE",
"647 662 LINE SMOOTH",
"644 649 OFFCURVE",
"639 644 OFFCURVE",
"635 644 CURVE SMOOTH",
"632 644 OFFCURVE",
"630 647 OFFCURVE",
"627 649 CURVE",
"607 669 OFFCURVE",
"552 710 OFFCURVE",
"461 710 CURVE SMOOTH",
"270 710 OFFCURVE",
"125 580 OFFCURVE",
"78 350 CURVE SMOOTH",
"69 307 OFFCURVE",
"65 268 OFFCURVE",
"65 233 CURVE SMOOTH",
"65 76 OFFCURVE",
"148 -10 OFFCURVE",
"302 -10 CURVE SMOOTH"
);
},
{
closed = 1;
nodes = (
"285 -197 OFFCURVE",
"339 -178 OFFCURVE",
"350 -123 CURVE SMOOTH",
"351 -119 OFFCURVE",
"351 -115 OFFCURVE",
"351 -111 CURVE SMOOTH",
"351 -80 OFFCURVE",
"324 -66 OFFCURVE",
"291 -65 CURVE",
"288 -65 OFFCURVE",
"285 -64 OFFCURVE",
"281 -64 CURVE SMOOTH",
"278 -64 OFFCURVE",
"275 -65 OFFCURVE",
"272 -65 CURVE",
"315 3 LINE",
"284 3 LINE",
"230 -75 LINE",
"239 -90 LINE",
"244 -90 OFFCURVE",
"250 -89 OFFCURVE",
"255 -89 CURVE SMOOTH",
"261 -89 OFFCURVE",
"268 -90 OFFCURVE",
"275 -90 CURVE SMOOTH",
"296 -91 OFFCURVE",
"317 -99 OFFCURVE",
"312 -123 CURVE SMOOTH",
"303 -163 OFFCURVE",
"271 -172 OFFCURVE",
"227 -172 CURVE",
"216 -171 OFFCURVE",
"203 -171 OFFCURVE",
"193 -169 CURVE",
"180 -191 LINE",
"192 -194 OFFCURVE",
"206 -197 OFFCURVE",
"222 -197 CURVE SMOOTH"
);
}
);
width = 618;
}
);
leftKerningGroup = C;
note = Ccedilla;
rightKerningGroup = C;
unicode = 00C7;
},
{
glyphname = Ccircumflex;
lastChange = "2015-10-21 17:44:04 +0000";
layers = (
{
layerId = "5C59C03B-63D5-4D42-95DD-0674E6EE1F81";
name = "Light Italic";
paths = (
{
closed = 1;
nodes = (
"426 -10 OFFCURVE",
"539 53 OFFCURVE",
"585 169 CURVE",
"558 169 LINE",
"509 63 OFFCURVE",
"400 19 OFFCURVE",
"320 19 CURVE SMOOTH",
"178 19 OFFCURVE",
"117 105 OFFCURVE",
"117 236 CURVE SMOOTH",
"117 271 OFFCURVE",
"121 309 OFFCURVE",
"130 350 CURVE SMOOTH",
"169 544 OFFCURVE",
"284 680 OFFCURVE",
"462 680 CURVE SMOOTH",
"562 680 OFFCURVE",
"627 627 OFFCURVE",
"627 544 CURVE SMOOTH",
"627 538 OFFCURVE",
"627 531 OFFCURVE",
"626 525 CURVE",
"644 525 LINE",
"681 705 LINE",
"656 705 LINE",
"647 662 LINE SMOOTH",
"644 649 OFFCURVE",
"639 644 OFFCURVE",
"635 644 CURVE SMOOTH",
"632 644 OFFCURVE",
"630 647 OFFCURVE",
"627 649 CURVE",
"607 669 OFFCURVE",
"552 710 OFFCURVE",
"461 710 CURVE SMOOTH",
"270 710 OFFCURVE",
"125 580 OFFCURVE",
"78 350 CURVE SMOOTH",
"69 307 OFFCURVE",
"65 268 OFFCURVE",
"65 233 CURVE SMOOTH",
"65 76 OFFCURVE",
"148 -10 OFFCURVE",
"302 -10 CURVE SMOOTH"
);
},
{
closed = 1;
nodes = (
"463 864 LINE",
"469 868 OFFCURVE",
"476 871 OFFCURVE",
"480 871 CURVE SMOOTH",
"484 871 OFFCURVE",
"488 868 OFFCURVE",
"492 864 CURVE",
"566 785 LINE",
"586 803 LINE",
"503 910 LINE",
"471 910 LINE",
"345 803 LINE",
"356 785 LINE"
);
}
);
width = 618;
}
);
leftKerningGroup = C;
note = Ccircumflex;
rightKerningGroup = C;
unicode = 0108;
},
{
glyphname = Cdotaccent;
lastChange = "2015-10-21 17:44:02 +0000";
layers = (
{
layerId = "5C59C03B-63D5-4D42-95DD-0674E6EE1F81";
name = "Light Italic";
paths = (
{
closed = 1;
nodes = (
"426 -10 OFFCURVE",
"539 53 OFFCURVE",
"585 169 CURVE",
"558 169 LINE",
"509 63 OFFCURVE",
"400 19 OFFCURVE",
"320 19 CURVE SMOOTH",
"178 19 OFFCURVE",
"117 105 OFFCURVE",
"117 236 CURVE SMOOTH",
"117 271 OFFCURVE",
"121 309 OFFCURVE",
"130 350 CURVE SMOOTH",
"169 544 OFFCURVE",
"284 680 OFFCURVE",
"462 680 CURVE SMOOTH",
"562 680 OFFCURVE",
"627 627 OFFCURVE",
"627 544 CURVE SMOOTH",
"627 538 OFFCURVE",
"627 531 OFFCURVE",
"626 525 CURVE",
"644 525 LINE",
"681 705 LINE",
"656 705 LINE",
"647 662 LINE SMOOTH",
"644 649 OFFCURVE",
"639 644 OFFCURVE",
"635 644 CURVE SMOOTH",
"632 644 OFFCURVE",
"630 647 OFFCURVE",
"627 649 CURVE",
"607 669 OFFCURVE",
"552 710 OFFCURVE",
"461 710 CURVE SMOOTH",
"270 710 OFFCURVE",
"125 580 OFFCURVE",
"78 350 CURVE SMOOTH",
"69 307 OFFCURVE",
"65 268 OFFCURVE",
"65 233 CURVE SMOOTH",
"65 76 OFFCURVE",
"148 -10 OFFCURVE",
"302 -10 CURVE SMOOTH"
);
},
{
closed = 1;
nodes = (
"495 761 OFFCURVE",
"512 774 OFFCURVE",
"516 796 CURVE",
"517 799 OFFCURVE",
"517 802 OFFCURVE",
"517 805 CURVE SMOOTH",
"517 822 OFFCURVE",
"507 832 OFFCURVE",
"491 832 CURVE SMOOTH",
"470 832 OFFCURVE",
"454 818 OFFCURVE",
"450 796 CURVE",
"449 792 OFFCURVE",
"449 789 OFFCURVE",
"449 786 CURVE SMOOTH",
"449 770 OFFCURVE",
"459 761 OFFCURVE",
"476 761 CURVE SMOOTH"
);
}
);
width = 618;
}
);
leftKerningGroup = C;
note = Cdotaccent;
rightKerningGroup = C;
unicode = 010A;
},
{
glyphname = D;
lastChange = "2015-10-21 17:44:04 +0000";
layers = (
{
layerId = "5C59C03B-63D5-4D42-95DD-0674E6EE1F81";
name = "Light Italic";
paths = (
{
closed = 1;
nodes = (
"263 0 LINE SMOOTH",
"449 0 OFFCURVE",
"570 125 OFFCURVE",
"616 350 CURVE SMOOTH",
"626 394 OFFCURVE",
"630 435 OFFCURVE",
"630 472 CURVE SMOOTH",
"630 619 OFFCURVE",
"556 700 OFFCURVE",
"406 700 CURVE SMOOTH",
"124 700 LINE",
"120 681 LINE",
"147 681 LINE SMOOTH",
"183 681 OFFCURVE",
"203 672 OFFCURVE",
"198 647 CURVE SMOOTH",
"77 52 LINE SMOOTH",
"71 27 OFFCURVE",
"48 18 OFFCURVE",
"12 18 CURVE SMOOTH",
"-15 18 LINE",
"-18 0 LINE"
);
},
{
closed = 1;
nodes = (
"254 672 LINE",
"399 672 LINE SMOOTH",
"523 672 OFFCURVE",
"579 595 OFFCURVE",
"579 469 CURVE SMOOTH",
"579 433 OFFCURVE",
"574 393 OFFCURVE",
"565 350 CURVE SMOOTH",
"525 154 OFFCURVE",
"425 27 OFFCURVE",
"266 27 CURVE SMOOTH",
"123 27 LINE"
);
}
);
width = 623;
}
);
note = D;
rightKerningGroup = D;
unicode = 0044;
},
{
glyphname = Eth;
lastChange = "2015-10-21 17:44:03 +0000";
layers = (
{
layerId = "5C59C03B-63D5-4D42-95DD-0674E6EE1F81";
name = "Light Italic";
paths = (
{
closed = 1;
nodes = (
"263 0 LINE SMOOTH",
"449 0 OFFCURVE",
"570 125 OFFCURVE",
"616 350 CURVE SMOOTH",
"626 394 OFFCURVE",
"630 435 OFFCURVE",
"630 472 CURVE SMOOTH",
"630 619 OFFCURVE",
"556 700 OFFCURVE",
"406 700 CURVE SMOOTH",
"124 700 LINE",
"120 681 LINE",
"147 681 LINE SMOOTH",
"183 681 OFFCURVE",
"203 672 OFFCURVE",
"198 647 CURVE SMOOTH",
"77 52 LINE SMOOTH",
"71 27 OFFCURVE",
"48 18 OFFCURVE",
"12 18 CURVE SMOOTH",
"-15 18 LINE",
"-18 0 LINE"
);
},
{
closed = 1;
nodes = (
"399 341 LINE",
"406 371 LINE",
"69 371 LINE",
"62 341 LINE"
);
},
{
closed = 1;
nodes = (
"254 672 LINE",
"399 672 LINE SMOOTH",
"523 672 OFFCURVE",
"579 595 OFFCURVE",
"579 469 CURVE SMOOTH",
"579 433 OFFCURVE",
"574 393 OFFCURVE",
"565 350 CURVE SMOOTH",
"525 154 OFFCURVE",
"425 27 OFFCURVE",
"266 27 CURVE SMOOTH",
"123 27 LINE"
);
}
);
width = 623;
}
);
note = Eth;
rightKerningGroup = D;
unicode = 00D0;
},
{
glyphname = Dcaron;
lastChange = "2015-10-21 17:44:04 +0000";
layers = (
{
layerId = "5C59C03B-63D5-4D42-95DD-0674E6EE1F81";
name = "Light Italic";
paths = (
{
closed = 1;
nodes = (
"263 0 LINE SMOOTH",
"449 0 OFFCURVE",
"570 125 OFFCURVE",
"616 350 CURVE SMOOTH",
"626 394 OFFCURVE",
"630 435 OFFCURVE",
"630 472 CURVE SMOOTH",
"630 619 OFFCURVE",
"556 700 OFFCURVE",
"406 700 CURVE SMOOTH",
"124 700 LINE",
"120 681 LINE",
"147 681 LINE SMOOTH",
"183 681 OFFCURVE",
"203 672 OFFCURVE",
"198 647 CURVE SMOOTH",
"77 52 LINE SMOOTH",
"71 27 OFFCURVE",
"48 18 OFFCURVE",
"12 18 CURVE SMOOTH",
"-15 18 LINE",
"-18 0 LINE"
);
},
{
closed = 1;
nodes = (
"254 672 LINE",
"399 672 LINE SMOOTH",
"523 672 OFFCURVE",
"579 595 OFFCURVE",
"579 469 CURVE SMOOTH",
"579 433 OFFCURVE",
"574 393 OFFCURVE",
"565 350 CURVE SMOOTH",
"525 154 OFFCURVE",
"425 27 OFFCURVE",
"266 27 CURVE SMOOTH",
"123 27 LINE"
);
},
{
closed = 1;
nodes = (
"442 785 LINE",
"568 892 LINE",
"557 910 LINE",
"450 831 LINE",
"444 827 OFFCURVE",
"439 824 OFFCURVE",
"435 824 CURVE SMOOTH",
"431 824 OFFCURVE",
"426 826 OFFCURVE",
"420 831 CURVE",
"347 910 LINE",
"327 892 LINE",
"410 785 LINE"
);
}
);
width = 623;
}
);
note = Dcaron;
rightKerningGroup = D;
unicode = 010E;
},
{
glyphname = Dcroat;
lastChange = "2015-10-21 17:44:03 +0000";
layers = (
{
layerId = "5C59C03B-63D5-4D42-95DD-0674E6EE1F81";
name = "Light Italic";
paths = (
{
closed = 1;
nodes = (
"263 0 LINE SMOOTH",
"449 0 OFFCURVE",
"570 125 OFFCURVE",
"616 350 CURVE SMOOTH",
"626 394 OFFCURVE",
"630 435 OFFCURVE",
"630 472 CURVE SMOOTH",
"630 619 OFFCURVE",
"556 700 OFFCURVE",
"406 700 CURVE SMOOTH",
"124 700 LINE",
"120 681 LINE",
"147 681 LINE SMOOTH",
"183 681 OFFCURVE",
"203 672 OFFCURVE",
"198 647 CURVE SMOOTH",
"77 52 LINE SMOOTH",
"71 27 OFFCURVE",
"48 18 OFFCURVE",
"12 18 CURVE SMOOTH",
"-15 18 LINE",
"-18 0 LINE"
);
},
{
closed = 1;
nodes = (
"399 341 LINE",
"406 371 LINE",
"69 371 LINE",
"62 341 LINE"
);
},
{
closed = 1;
nodes = (
"254 672 LINE",
"399 672 LINE SMOOTH",
"523 672 OFFCURVE",
"579 595 OFFCURVE",
"579 469 CURVE SMOOTH",
"579 433 OFFCURVE",
"574 393 OFFCURVE",
"565 350 CURVE SMOOTH",
"525 154 OFFCURVE",
"425 27 OFFCURVE",
"266 27 CURVE SMOOTH",
"123 27 LINE"
);
}
);
width = 623;
}
);
note = Dcroat;
rightKerningGroup = D;
unicode = 0110;
},
{
glyphname = Ddotbelow;
lastChange = "2015-10-21 17:44:03 +0000";
layers = (
{
layerId = "5C59C03B-63D5-4D42-95DD-0674E6EE1F81";
name = "Light Italic";
paths = (
{
closed = 1;
nodes = (
"263 0 LINE SMOOTH",
"449 0 OFFCURVE",
"570 125 OFFCURVE",
"616 350 CURVE SMOOTH",
"626 394 OFFCURVE",
"630 435 OFFCURVE",
"630 472 CURVE SMOOTH",
"630 619 OFFCURVE",
"556 700 OFFCURVE",
"406 700 CURVE SMOOTH",
"124 700 LINE",
"120 681 LINE",
"147 681 LINE SMOOTH",
"183 681 OFFCURVE",
"203 672 OFFCURVE",
"198 647 CURVE SMOOTH",
"77 52 LINE SMOOTH",
"71 27 OFFCURVE",
"48 18 OFFCURVE",
"12 18 CURVE SMOOTH",
"-15 18 LINE",
"-18 0 LINE"
);
},
{
closed = 1;
nodes = (
"250 -136 OFFCURVE",
"266 -122 OFFCURVE",
"270 -100 CURVE",
"271 -96 OFFCURVE",
"271 -93 OFFCURVE",
"271 -90 CURVE SMOOTH",
"271 -74 OFFCURVE",
"261 -64 OFFCURVE",
"244 -64 CURVE SMOOTH",
"225 -64 OFFCURVE",
"207 -78 OFFCURVE",
"203 -100 CURVE",
"202 -103 OFFCURVE",
"202 -106 OFFCURVE",
"202 -108 CURVE SMOOTH",
"202 -125 OFFCURVE",
"213 -136 OFFCURVE",
"229 -136 CURVE SMOOTH"
);
},
{
closed = 1;
nodes = (
"254 672 LINE",
"399 672 LINE SMOOTH",
"523 672 OFFCURVE",
"579 595 OFFCURVE",
"579 469 CURVE SMOOTH",
"579 433 OFFCURVE",
"574 393 OFFCURVE",
"565 350 CURVE SMOOTH",
"525 154 OFFCURVE",
"425 27 OFFCURVE",
"266 27 CURVE SMOOTH",
"123 27 LINE"
);
}
);
width = 623;
}
);
note = Ddotbelow;
rightKerningGroup = D;
unicode = 1E0C;
},
{
glyphname = Dlinebelow;
lastChange = "2015-10-21 17:44:04 +0000";
layers = (
{
layerId = "5C59C03B-63D5-4D42-95DD-0674E6EE1F81";
name = "Light Italic";
paths = (
{
closed = 1;
nodes = (
"263 0 LINE SMOOTH",
"449 0 OFFCURVE",
"570 125 OFFCURVE",
"616 350 CURVE SMOOTH",
"626 394 OFFCURVE",
"630 435 OFFCURVE",
"630 472 CURVE SMOOTH",
"630 619 OFFCURVE",
"556 700 OFFCURVE",
"406 700 CURVE SMOOTH",
"124 700 LINE",
"120 681 LINE",
"147 681 LINE SMOOTH",
"183 681 OFFCURVE",
"203 672 OFFCURVE",
"198 647 CURVE SMOOTH",
"77 52 LINE SMOOTH",
"71 27 OFFCURVE",
"48 18 OFFCURVE",
"12 18 CURVE SMOOTH",
"-15 18 LINE",
"-18 0 LINE"
);
},
{
closed = 1;
nodes = (
"375 -102 LINE",
"381 -75 LINE",
"101 -75 LINE",
"95 -102 LINE"
);
},
{
closed = 1;
nodes = (
"254 672 LINE",
"399 672 LINE SMOOTH",
"523 672 OFFCURVE",
"579 595 OFFCURVE",
"579 469 CURVE SMOOTH",
"579 433 OFFCURVE",
"574 393 OFFCURVE",
"565 350 CURVE SMOOTH",
"525 154 OFFCURVE",
"425 27 OFFCURVE",
"266 27 CURVE SMOOTH",
"123 27 LINE"
);
}
);
width = 623;
}
);
note = Dlinebelow;
rightKerningGroup = D;
unicode = 1E0E;
},
{
glyphname = E;
lastChange = "2015-10-21 17:44:04 +0000";
layers = (
{
layerId = "5C59C03B-63D5-4D42-95DD-0674E6EE1F81";
name = "Light Italic";
paths = (
{
closed = 1;
nodes = (
"461 0 LINE",
"510 170 LINE",
"493 170 LINE",
"480 123 OFFCURVE",
"444 29 OFFCURVE",
"386 29 CURVE SMOOTH",
"121 29 LINE",
"252 670 LINE",
"509 670 LINE SMOOTH",
"549 670 OFFCURVE",
"559 632 OFFCURVE",
"559 595 CURVE SMOOTH",
"559 574 OFFCURVE",
"556 554 OFFCURVE",
"554 539 CURVE",
"571 539 LINE",
"604 700 LINE",
"121 700 LINE",
"117 681 LINE",
"144 681 LINE SMOOTH",
"181 681 OFFCURVE",
"200 672 OFFCURVE",
"195 647 CURVE SMOOTH",
"74 52 LINE SMOOTH",
"68 27 OFFCURVE",
"46 18 OFFCURVE",
"9 18 CURVE SMOOTH",
"-18 18 LINE",
"-21 0 LINE"
);
},
{
closed = 1;
nodes = (
"426 255 LINE",
"473 487 LINE",
"457 487 LINE",
"443 434 OFFCURVE",
"430 386 OFFCURVE",
"387 386 CURVE SMOOTH",
"174 386 LINE",
"167 356 LINE",
"380 356 LINE SMOOTH",
"407 356 OFFCURVE",
"415 337 OFFCURVE",
"415 309 CURVE SMOOTH",
"415 293 OFFCURVE",
"413 274 OFFCURVE",
"410 255 CURVE"
);
}
);
width = 551;
}
);
note = E;
unicode = 0045;
},
{
glyphname = Eacute;
lastChange = "2015-10-21 17:44:03 +0000";
layers = (
{
layerId = "5C59C03B-63D5-4D42-95DD-0674E6EE1F81";
name = "Light Italic";
paths = (
{
closed = 1;
nodes = (
"461 0 LINE",
"510 170 LINE",
"493 170 LINE",
"480 123 OFFCURVE",
"444 29 OFFCURVE",
"386 29 CURVE SMOOTH",
"121 29 LINE",
"252 670 LINE",
"509 670 LINE SMOOTH",
"549 670 OFFCURVE",
"559 632 OFFCURVE",
"559 595 CURVE SMOOTH",
"559 574 OFFCURVE",
"556 554 OFFCURVE",
"554 539 CURVE",
"571 539 LINE",
"604 700 LINE",
"121 700 LINE",
"117 681 LINE",
"144 681 LINE SMOOTH",
"181 681 OFFCURVE",
"200 672 OFFCURVE",
"195 647 CURVE SMOOTH",
"74 52 LINE SMOOTH",
"68 27 OFFCURVE",
"46 18 OFFCURVE",
"9 18 CURVE SMOOTH",
"-18 18 LINE",
"-21 0 LINE"
);
},
{
closed = 1;
nodes = (
"426 255 LINE",
"473 487 LINE",
"457 487 LINE",
"443 434 OFFCURVE",
"430 386 OFFCURVE",
"387 386 CURVE SMOOTH",
"174 386 LINE",
"167 356 LINE",
"380 356 LINE SMOOTH",
"407 356 OFFCURVE",
"415 337 OFFCURVE",
"415 309 CURVE SMOOTH",
"415 293 OFFCURVE",
"413 274 OFFCURVE",
"410 255 CURVE"
);
},
{
closed = 1;
nodes = (
"491 861 LINE SMOOTH",
"507 870 OFFCURVE",
"517 883 OFFCURVE",
"517 895 CURVE SMOOTH",
"517 904 OFFCURVE",
"512 910 OFFCURVE",
"502 910 CURVE SMOOTH",
"490 910 OFFCURVE",
"476 901 OFFCURVE",
"468 894 CURVE",
"343 801 LINE",
"350 786 LINE"
);
}
);
width = 551;
}
);
note = Eacute;
unicode = 00C9;
},
{
glyphname = Ebreve;
lastChange = "2015-10-21 17:44:02 +0000";
layers = (
{
layerId = "5C59C03B-63D5-4D42-95DD-0674E6EE1F81";
name = "Light Italic";
paths = (
{
closed = 1;
nodes = (
"461 0 LINE",
"510 170 LINE",
"493 170 LINE",
"480 123 OFFCURVE",
"444 29 OFFCURVE",
"386 29 CURVE SMOOTH",
"121 29 LINE",
"252 670 LINE",
"509 670 LINE SMOOTH",
"549 670 OFFCURVE",
"559 632 OFFCURVE",
"559 595 CURVE SMOOTH",
"559 574 OFFCURVE",
"556 554 OFFCURVE",
"554 539 CURVE",
"571 539 LINE",
"604 700 LINE",
"121 700 LINE",
"117 681 LINE",
"144 681 LINE SMOOTH",
"181 681 OFFCURVE",
"200 672 OFFCURVE",
"195 647 CURVE SMOOTH",
"74 52 LINE SMOOTH",
"68 27 OFFCURVE",
"46 18 OFFCURVE",
"9 18 CURVE SMOOTH",
"-18 18 LINE",
"-21 0 LINE"
);
},
{
closed = 1;
nodes = (
"426 255 LINE",
"473 487 LINE",
"457 487 LINE",
"443 434 OFFCURVE",
"430 386 OFFCURVE",
"387 386 CURVE SMOOTH",
"174 386 LINE",
"167 356 LINE",
"380 356 LINE SMOOTH",
"407 356 OFFCURVE",
"415 337 OFFCURVE",
"415 309 CURVE SMOOTH",
"415 293 OFFCURVE",
"413 274 OFFCURVE",
"410 255 CURVE"
);
},
{
closed = 1;
nodes = (
"491 776 OFFCURVE",
"545 818 OFFCURVE",
"566 895 CURVE",
"540 895 LINE",
"516 822 OFFCURVE",
"465 808 OFFCURVE",
"420 808 CURVE SMOOTH",
"376 808 OFFCURVE",
"333 820 OFFCURVE",
"333 881 CURVE SMOOTH",
"333 886 OFFCURVE",
"334 890 OFFCURVE",
"334 895 CURVE",
"308 895 LINE",
"307 886 OFFCURVE",
"306 878 OFFCURVE",
"306 870 CURVE SMOOTH",
"306 808 OFFCURVE",
"345 776 OFFCURVE",
"414 776 CURVE SMOOTH"
);
}
);
width = 551;
}
);
note = Ebreve;
unicode = 0114;
},
{
glyphname = Ecaron;
lastChange = "2015-10-21 17:44:03 +0000";
layers = (
{
layerId = "5C59C03B-63D5-4D42-95DD-0674E6EE1F81";
name = "Light Italic";
paths = (
{
closed = 1;
nodes = (
"461 0 LINE",
"510 170 LINE",
"493 170 LINE",
"480 123 OFFCURVE",
"444 29 OFFCURVE",
"386 29 CURVE SMOOTH",
"121 29 LINE",
"252 670 LINE",
"509 670 LINE SMOOTH",
"549 670 OFFCURVE",
"559 632 OFFCURVE",
"559 595 CURVE SMOOTH",
"559 574 OFFCURVE",
"556 554 OFFCURVE",
"554 539 CURVE",
"571 539 LINE",
"604 700 LINE",
"121 700 LINE",
"117 681 LINE",
"144 681 LINE SMOOTH",
"181 681 OFFCURVE",
"200 672 OFFCURVE",
"195 647 CURVE SMOOTH",
"74 52 LINE SMOOTH",
"68 27 OFFCURVE",
"46 18 OFFCURVE",
"9 18 CURVE SMOOTH",
"-18 18 LINE",
"-21 0 LINE"
);
},
{
closed = 1;
nodes = (
"426 255 LINE",
"473 487 LINE",
"457 487 LINE",
"443 434 OFFCURVE",
"430 386 OFFCURVE",
"387 386 CURVE SMOOTH",
"174 386 LINE",
"167 356 LINE",
"380 356 LINE SMOOTH",
"407 356 OFFCURVE",
"415 337 OFFCURVE",
"415 309 CURVE SMOOTH",
"415 293 OFFCURVE",
"413 274 OFFCURVE",
"410 255 CURVE"
);
},
{
closed = 1;
nodes = (
"429 785 LINE",
"556 892 LINE",
"544 910 LINE",
"438 831 LINE",
"431 827 OFFCURVE",
"426 824 OFFCURVE",
"422 824 CURVE SMOOTH",
"419 824 OFFCURVE",
"414 826 OFFCURVE",
"408 831 CURVE",
"334 910 LINE",
"315 892 LINE",
"397 785 LINE"
);
}
);
width = 551;
}
);
note = Ecaron;
unicode = 011A;
},
{
glyphname = Ecircumflex;
lastChange = "2015-10-21 17:44:02 +0000";
layers = (
{
layerId = "5C59C03B-63D5-4D42-95DD-0674E6EE1F81";
name = "Light Italic";
paths = (
{
closed = 1;
nodes = (
"461 0 LINE",
"510 170 LINE",
"493 170 LINE",
"480 123 OFFCURVE",
"444 29 OFFCURVE",
"386 29 CURVE SMOOTH",
"121 29 LINE",
"252 670 LINE",
"509 670 LINE SMOOTH",
"549 670 OFFCURVE",
"559 632 OFFCURVE",
"559 595 CURVE SMOOTH",
"559 574 OFFCURVE",
"556 554 OFFCURVE",
"554 539 CURVE",
"571 539 LINE",
"604 700 LINE",
"121 700 LINE",
"117 681 LINE",
"144 681 LINE SMOOTH",
"181 681 OFFCURVE",
"200 672 OFFCURVE",
"195 647 CURVE SMOOTH",
"74 52 LINE SMOOTH",
"68 27 OFFCURVE",
"46 18 OFFCURVE",
"9 18 CURVE SMOOTH",
"-18 18 LINE",
"-21 0 LINE"
);
},
{
closed = 1;
nodes = (
"426 255 LINE",
"473 487 LINE",
"457 487 LINE",
"443 434 OFFCURVE",
"430 386 OFFCURVE",
"387 386 CURVE SMOOTH",
"174 386 LINE",
"167 356 LINE",
"380 356 LINE SMOOTH",
"407 356 OFFCURVE",
"415 337 OFFCURVE",
"415 309 CURVE SMOOTH",
"415 293 OFFCURVE",
"413 274 OFFCURVE",
"410 255 CURVE"
);
},
{
closed = 1;
nodes = (
"414 864 LINE",
"420 868 OFFCURVE",
"427 871 OFFCURVE",
"431 871 CURVE SMOOTH",
"435 871 OFFCURVE",
"439 868 OFFCURVE",
"444 864 CURVE",
"517 785 LINE",
"537 803 LINE",
"454 910 LINE",
"422 910 LINE",
"296 803 LINE",
"307 785 LINE"
);
}
);
width = 551;
}
);
note = Ecircumflex;
unicode = 00CA;
},
{
glyphname = Ecircumflexacute;
lastChange = "2015-10-21 17:44:03 +0000";
layers = (
{
layerId = "5C59C03B-63D5-4D42-95DD-0674E6EE1F81";
name = "Light Italic";
paths = (
{
closed = 1;
nodes = (
"461 0 LINE",
"510 170 LINE",
"493 170 LINE",
"480 123 OFFCURVE",
"444 29 OFFCURVE",
"386 29 CURVE SMOOTH",
"121 29 LINE",
"252 670 LINE",
"509 670 LINE SMOOTH",
"549 670 OFFCURVE",
"559 632 OFFCURVE",
"559 595 CURVE SMOOTH",
"559 574 OFFCURVE",
"556 554 OFFCURVE",
"554 539 CURVE",
"571 539 LINE",
"604 700 LINE",
"121 700 LINE",
"117 681 LINE",
"144 681 LINE SMOOTH",
"181 681 OFFCURVE",
"200 672 OFFCURVE",
"195 647 CURVE SMOOTH",
"74 52 LINE SMOOTH",
"68 27 OFFCURVE",
"46 18 OFFCURVE",
"9 18 CURVE SMOOTH",
"-18 18 LINE",
"-21 0 LINE"
);
},
{
closed = 1;
nodes = (
"426 255 LINE",
"473 487 LINE",
"457 487 LINE",
"443 434 OFFCURVE",
"430 386 OFFCURVE",
"387 386 CURVE SMOOTH",
"174 386 LINE",
"167 356 LINE",
"380 356 LINE SMOOTH",
"407 356 OFFCURVE",
"415 337 OFFCURVE",
"415 309 CURVE SMOOTH",
"415 293 OFFCURVE",
"413 274 OFFCURVE",
"410 255 CURVE"
);
},
{
closed = 1;
nodes = (
"411 862 LINE",
"418 866 OFFCURVE",
"423 870 OFFCURVE",
"428 870 CURVE SMOOTH",
"432 870 OFFCURVE",
"437 867 OFFCURVE",
"442 863 CURVE",
"516 785 LINE",
"534 803 LINE",
"452 910 LINE",
"420 910 LINE",
"295 803 LINE",
"306 785 LINE"
);
},
{
closed = 1;
nodes = (
"659 954 LINE",
"675 962 OFFCURVE",
"685 974 OFFCURVE",
"687 983 CURVE",
"689 994 OFFCURVE",
"684 1003 OFFCURVE",
"671 1003 CURVE SMOOTH",
"659 1003 OFFCURVE",
"644 994 OFFCURVE",
"635 986 CURVE",
"519 897 LINE",
"527 883 LINE"
);
}
);
width = 551;
}
);
note = Ecircumflexacute;
unicode = 1EBE;
},
{
glyphname = Ecircumflexdotbelow;
lastChange = "2015-10-21 17:44:02 +0000";
layers = (
{
layerId = "5C59C03B-63D5-4D42-95DD-0674E6EE1F81";
name = "Light Italic";
paths = (
{
closed = 1;
nodes = (
"461 0 LINE",
"510 170 LINE",
"493 170 LINE",
"480 123 OFFCURVE",
"444 29 OFFCURVE",
"386 29 CURVE SMOOTH",
"121 29 LINE",
"252 670 LINE",
"509 670 LINE SMOOTH",
"549 670 OFFCURVE",
"559 632 OFFCURVE",
"559 595 CURVE SMOOTH",
"559 574 OFFCURVE",
"556 554 OFFCURVE",
"554 539 CURVE",
"571 539 LINE",
"604 700 LINE",
"121 700 LINE",
"117 681 LINE",
"144 681 LINE SMOOTH",
"181 681 OFFCURVE",
"200 672 OFFCURVE",
"195 647 CURVE SMOOTH",
"74 52 LINE SMOOTH",
"68 27 OFFCURVE",
"46 18 OFFCURVE",
"9 18 CURVE SMOOTH",
"-18 18 LINE",
"-21 0 LINE"
);
},
{
closed = 1;
nodes = (
"248 -136 OFFCURVE",
"264 -122 OFFCURVE",
"268 -100 CURVE",
"269 -96 OFFCURVE",
"269 -93 OFFCURVE",
"269 -90 CURVE SMOOTH",
"269 -74 OFFCURVE",
"259 -64 OFFCURVE",
"242 -64 CURVE SMOOTH",
"223 -64 OFFCURVE",
"205 -78 OFFCURVE",
"201 -100 CURVE",
"200 -103 OFFCURVE",
"200 -106 OFFCURVE",
"200 -108 CURVE SMOOTH",
"200 -125 OFFCURVE",
"211 -136 OFFCURVE",
"228 -136 CURVE SMOOTH"
);
},
{
closed = 1;
nodes = (
"426 255 LINE",
"473 487 LINE",
"457 487 LINE",
"443 434 OFFCURVE",
"430 386 OFFCURVE",
"387 386 CURVE SMOOTH",
"174 386 LINE",
"167 356 LINE",
"380 356 LINE SMOOTH",
"407 356 OFFCURVE",
"415 337 OFFCURVE",
"415 309 CURVE SMOOTH",
"415 293 OFFCURVE",
"413 274 OFFCURVE",
"410 255 CURVE"
);
},
{
closed = 1;
nodes = (
"411 864 LINE",
"418 868 OFFCURVE",
"424 871 OFFCURVE",
"428 871 CURVE SMOOTH",
"432 871 OFFCURVE",
"436 868 OFFCURVE",
"441 864 CURVE",
"515 785 LINE",
"534 803 LINE",
"451 910 LINE",
"420 910 LINE",
"293 803 LINE",
"304 785 LINE"
);
}
);
width = 551;
}
);
note = Ecircumflexdotbelow;
unicode = 1EC6;
},
{
glyphname = Ecircumflexgrave;
lastChange = "2015-10-21 17:44:04 +0000";
layers = (
{
layerId = "5C59C03B-63D5-4D42-95DD-0674E6EE1F81";
name = "Light Italic";
paths = (
{
closed = 1;
nodes = (
"461 0 LINE",
"510 170 LINE",
"493 170 LINE",
"480 123 OFFCURVE",
"444 29 OFFCURVE",
"386 29 CURVE SMOOTH",
"121 29 LINE",
"252 670 LINE",
"509 670 LINE SMOOTH",
"549 670 OFFCURVE",
"559 632 OFFCURVE",
"559 595 CURVE SMOOTH",
"559 574 OFFCURVE",
"556 554 OFFCURVE",
"554 539 CURVE",
"571 539 LINE",
"604 700 LINE",
"121 700 LINE",
"117 681 LINE",
"144 681 LINE SMOOTH",
"181 681 OFFCURVE",
"200 672 OFFCURVE",
"195 647 CURVE SMOOTH",
"74 52 LINE SMOOTH",
"68 27 OFFCURVE",
"46 18 OFFCURVE",
"9 18 CURVE SMOOTH",
"-18 18 LINE",
"-21 0 LINE"
);
},
{
closed = 1;
nodes = (
"426 255 LINE",
"473 487 LINE",
"457 487 LINE",
"443 434 OFFCURVE",
"430 386 OFFCURVE",
"387 386 CURVE SMOOTH",
"174 386 LINE",
"167 356 LINE",
"380 356 LINE SMOOTH",
"407 356 OFFCURVE",
"415 337 OFFCURVE",
"415 309 CURVE SMOOTH",
"415 293 OFFCURVE",
"413 274 OFFCURVE",
"410 255 CURVE"
);
},
{
closed = 1;
nodes = (
"358 897 LINE",
"277 986 LINE",
"272 994 OFFCURVE",
"262 1003 OFFCURVE",
"250 1003 CURVE SMOOTH",
"237 1003 OFFCURVE",
"228 994 OFFCURVE",
"226 983 CURVE",
"224 974 OFFCURVE",
"228 962 OFFCURVE",
"240 954 CURVE SMOOTH",
"345 883 LINE"
);
},
{
closed = 1;
nodes = (
"411 862 LINE",
"418 866 OFFCURVE",
"423 870 OFFCURVE",
"428 870 CURVE SMOOTH",
"432 870 OFFCURVE",
"437 867 OFFCURVE",
"442 863 CURVE",
"516 785 LINE",
"534 803 LINE",
"452 910 LINE",
"420 910 LINE",
"295 803 LINE",
"306 785 LINE"
);
}
);
width = 551;
}
);
note = Ecircumflexgrave;
unicode = 1EC0;
},
{
glyphname = Ecircumflexhookabove;
lastChange = "2015-10-21 17:44:03 +0000";
layers = (
{
layerId = "5C59C03B-63D5-4D42-95DD-0674E6EE1F81";
name = "Light Italic";
paths = (
{
closed = 1;
nodes = (
"461 0 LINE",
"510 170 LINE",
"493 170 LINE",
"480 123 OFFCURVE",
"444 29 OFFCURVE",
"386 29 CURVE SMOOTH",
"121 29 LINE",
"252 670 LINE",
"509 670 LINE SMOOTH",
"549 670 OFFCURVE",
"559 632 OFFCURVE",
"559 595 CURVE SMOOTH",
"559 574 OFFCURVE",
"556 554 OFFCURVE",
"554 539 CURVE",
"571 539 LINE",
"604 700 LINE",
"121 700 LINE",
"117 681 LINE",
"144 681 LINE SMOOTH",
"181 681 OFFCURVE",
"200 672 OFFCURVE",
"195 647 CURVE SMOOTH",
"74 52 LINE SMOOTH",
"68 27 OFFCURVE",
"46 18 OFFCURVE",
"9 18 CURVE SMOOTH",
"-18 18 LINE",
"-21 0 LINE"
);
},
{
closed = 1;
nodes = (
"426 255 LINE",
"473 487 LINE",
"457 487 LINE",
"443 434 OFFCURVE",
"430 386 OFFCURVE",
"387 386 CURVE SMOOTH",
"174 386 LINE",
"167 356 LINE",
"380 356 LINE SMOOTH",
"407 356 OFFCURVE",
"415 337 OFFCURVE",
"415 309 CURVE SMOOTH",
"415 293 OFFCURVE",
"413 274 OFFCURVE",
"410 255 CURVE"
);
},
{
closed = 1;
nodes = (
"398 852 LINE",
"408 860 OFFCURVE",
"420 870 OFFCURVE",
"428 870 CURVE SMOOTH",
"432 870 OFFCURVE",
"437 867 OFFCURVE",
"442 863 CURVE",
"516 785 LINE",
"534 803 LINE",
"452 910 LINE",
"420 910 LINE",
"295 803 LINE",
"306 785 LINE"
);
},
{
closed = 1;
nodes = (
"577 881 LINE",
"562 886 OFFCURVE",
"552 891 OFFCURVE",
"556 908 CURVE",
"561 936 OFFCURVE",
"643 944 OFFCURVE",
"643 992 CURVE SMOOTH",
"643 1020 OFFCURVE",
"613 1032 OFFCURVE",
"580 1032 CURVE SMOOTH",
"553 1032 OFFCURVE",
"512 1023 OFFCURVE",
"506 995 CURVE SMOOTH",
"504 984 OFFCURVE",
"511 976 OFFCURVE",
"520 976 CURVE SMOOTH",
"547 976 OFFCURVE",
"540 1011 OFFCURVE",
"579 1011 CURVE SMOOTH",
"595 1011 OFFCURVE",
"606 1000 OFFCURVE",
"603 987 CURVE SMOOTH",
"596 951 OFFCURVE",
"529 943 OFFCURVE",
"521 907 CURVE",
"517 885 OFFCURVE",
"529 866 OFFCURVE",
"566 866 CURVE"
);
}
);
width = 551;
}
);
note = Ecircumflexhookabove;
unicode = 1EC2;
},
{
glyphname = Ecircumflextilde;
lastChange = "2015-10-21 17:44:04 +0000";
layers = (
{
layerId = "5C59C03B-63D5-4D42-95DD-0674E6EE1F81";
name = "Light Italic";
paths = (
{
closed = 1;
nodes = (
"461 0 LINE",
"510 170 LINE",
"493 170 LINE",
"480 123 OFFCURVE",
"444 29 OFFCURVE",
"386 29 CURVE SMOOTH",
"121 29 LINE",
"252 670 LINE",
"509 670 LINE SMOOTH",
"549 670 OFFCURVE",
"559 632 OFFCURVE",
"559 595 CURVE SMOOTH",
"559 574 OFFCURVE",
"556 554 OFFCURVE",
"554 539 CURVE",
"571 539 LINE",
"604 700 LINE",
"121 700 LINE",
"117 681 LINE",
"144 681 LINE SMOOTH",
"181 681 OFFCURVE",
"200 672 OFFCURVE",
"195 647 CURVE SMOOTH",
"74 52 LINE SMOOTH",
"68 27 OFFCURVE",
"46 18 OFFCURVE",
"9 18 CURVE SMOOTH",
"-18 18 LINE",
"-21 0 LINE"
);
},
{
closed = 1;
nodes = (
"426 255 LINE",
"473 487 LINE",
"457 487 LINE",
"443 434 OFFCURVE",
"430 386 OFFCURVE",
"387 386 CURVE SMOOTH",
"174 386 LINE",
"167 356 LINE",
"380 356 LINE SMOOTH",
"407 356 OFFCURVE",
"415 337 OFFCURVE",
"415 309 CURVE SMOOTH",
"415 293 OFFCURVE",
"413 274 OFFCURVE",
"410 255 CURVE"
);
},
{
closed = 1;
nodes = (
"411 862 LINE",
"418 866 OFFCURVE",
"423 870 OFFCURVE",
"428 870 CURVE SMOOTH",
"432 870 OFFCURVE",
"437 867 OFFCURVE",
"442 863 CURVE",
"516 785 LINE",
"534 803 LINE",
"452 910 LINE",
"420 910 LINE",
"295 803 LINE",
"306 785 LINE"
);
},
{
closed = 1;
nodes = (
"341 979 OFFCURVE",
"363 1002 OFFCURVE",
"392 1002 CURVE SMOOTH",
"434 1002 OFFCURVE",
"465 944 OFFCURVE",
"508 944 CURVE SMOOTH",
"550 944 OFFCURVE",
"583 978 OFFCURVE",
"604 1032 CURVE",
"589 1041 LINE",
"570 1001 OFFCURVE",
"550 976 OFFCURVE",
"519 976 CURVE SMOOTH",
"480 976 OFFCURVE",
"445 1033 OFFCURVE",
"402 1033 CURVE SMOOTH",
"363 1033 OFFCURVE",
"327 1003 OFFCURVE",
"308 950 CURVE",
"322 940 LINE"
);
}
);
width = 551;
}
);
note = Ecircumflextilde;
unicode = 1EC4;
},
{
glyphname = Edieresis;
lastChange = "2015-10-21 17:44:02 +0000";
layers = (
{
layerId = "5C59C03B-63D5-4D42-95DD-0674E6EE1F81";
name = "Light Italic";
paths = (
{
closed = 1;
nodes = (
"461 0 LINE",
"510 170 LINE",
"493 170 LINE",
"480 123 OFFCURVE",
"444 29 OFFCURVE",
"386 29 CURVE SMOOTH",
"121 29 LINE",
"252 670 LINE",
"509 670 LINE SMOOTH",
"549 670 OFFCURVE",
"559 632 OFFCURVE",
"559 595 CURVE SMOOTH",
"559 574 OFFCURVE",
"556 554 OFFCURVE",
"554 539 CURVE",
"571 539 LINE",
"604 700 LINE",
"121 700 LINE",
"117 681 LINE",
"144 681 LINE SMOOTH",
"181 681 OFFCURVE",
"200 672 OFFCURVE",
"195 647 CURVE SMOOTH",
"74 52 LINE SMOOTH",
"68 27 OFFCURVE",
"46 18 OFFCURVE",
"9 18 CURVE SMOOTH",
"-18 18 LINE",
"-21 0 LINE"
);
},
{
closed = 1;
nodes = (
"426 255 LINE",
"473 487 LINE",
"457 487 LINE",
"443 434 OFFCURVE",
"430 386 OFFCURVE",
"387 386 CURVE SMOOTH",
"174 386 LINE",
"167 356 LINE",
"380 356 LINE SMOOTH",
"407 356 OFFCURVE",
"415 337 OFFCURVE",
"415 309 CURVE SMOOTH",
"415 293 OFFCURVE",
"413 274 OFFCURVE",
"410 255 CURVE"
);
},
{
closed = 1;
nodes = (
"337 783 OFFCURVE",
"353 797 OFFCURVE",
"358 819 CURVE",
"359 822 OFFCURVE",
"359 825 OFFCURVE",
"359 828 CURVE SMOOTH",
"359 845 OFFCURVE",
"348 855 OFFCURVE",
"331 855 CURVE SMOOTH",
"311 855 OFFCURVE",
"296 841 OFFCURVE",
"292 819 CURVE",
"291 815 OFFCURVE",
"291 812 OFFCURVE",
"291 808 CURVE SMOOTH",
"291 793 OFFCURVE",
"300 783 OFFCURVE",
"317 783 CURVE SMOOTH"
);
},
{
closed = 1;
nodes = (
"532 783 OFFCURVE",
"548 797 OFFCURVE",
"553 819 CURVE",
"554 822 OFFCURVE",
"554 825 OFFCURVE",
"554 828 CURVE SMOOTH",
"554 845 OFFCURVE",
"543 855 OFFCURVE",
"526 855 CURVE SMOOTH",
"506 855 OFFCURVE",
"490 841 OFFCURVE",
"486 819 CURVE",
"485 815 OFFCURVE",
"485 812 OFFCURVE",
"485 809 CURVE SMOOTH",
"485 793 OFFCURVE",
"494 783 OFFCURVE",
"512 783 CURVE SMOOTH"
);
}
);
width = 551;
}
);
note = Edieresis;
unicode = 00CB;
},
{
glyphname = Edotaccent;
lastChange = "2015-10-21 17:44:04 +0000";
layers = (
{
layerId = "5C59C03B-63D5-4D42-95DD-0674E6EE1F81";
name = "Light Italic";
paths = (
{
closed = 1;
nodes = (
"461 0 LINE",
"510 170 LINE",
"493 170 LINE",
"480 123 OFFCURVE",
"444 29 OFFCURVE",
"386 29 CURVE SMOOTH",
"121 29 LINE",
"252 670 LINE",
"509 670 LINE SMOOTH",
"549 670 OFFCURVE",
"559 632 OFFCURVE",
"559 595 CURVE SMOOTH",
"559 574 OFFCURVE",
"556 554 OFFCURVE",
"554 539 CURVE",
"571 539 LINE",
"604 700 LINE",
"121 700 LINE",
"117 681 LINE",
"144 681 LINE SMOOTH",
"181 681 OFFCURVE",
"200 672 OFFCURVE",
"195 647 CURVE SMOOTH",
"74 52 LINE SMOOTH",
"68 27 OFFCURVE",
"46 18 OFFCURVE",
"9 18 CURVE SMOOTH",
"-18 18 LINE",
"-21 0 LINE"
);
},
{
closed = 1;
nodes = (
"426 255 LINE",
"473 487 LINE",
"457 487 LINE",
"443 434 OFFCURVE",
"430 386 OFFCURVE",
"387 386 CURVE SMOOTH",
"174 386 LINE",
"167 356 LINE",
"380 356 LINE SMOOTH",
"407 356 OFFCURVE",
"415 337 OFFCURVE",
"415 309 CURVE SMOOTH",
"415 293 OFFCURVE",
"413 274 OFFCURVE",
"410 255 CURVE"
);
},
{
closed = 1;
nodes = (
"429 761 OFFCURVE",
"445 774 OFFCURVE",
"450 796 CURVE",
"451 799 OFFCURVE",
"451 802 OFFCURVE",
"451 805 CURVE SMOOTH",
"451 822 OFFCURVE",
"441 832 OFFCURVE",
"424 832 CURVE SMOOTH",
"404 832 OFFCURVE",
"388 818 OFFCURVE",
"384 796 CURVE",
"383 792 OFFCURVE",
"383 789 OFFCURVE",
"383 786 CURVE SMOOTH",
"383 770 OFFCURVE",
"393 761 OFFCURVE",
"410 761 CURVE SMOOTH"
);
}
);
width = 551;
}
);
note = Edotaccent;
unicode = 0116;
},
{
glyphname = Edotbelow;
lastChange = "2015-10-21 17:44:02 +0000";
layers = (
{
layerId = "5C59C03B-63D5-4D42-95DD-0674E6EE1F81";
name = "Light Italic";
paths = (
{
closed = 1;
nodes = (
"461 0 LINE",
"510 170 LINE",
"493 170 LINE",
"480 123 OFFCURVE",
"444 29 OFFCURVE",
"386 29 CURVE SMOOTH",
"121 29 LINE",
"252 670 LINE",
"509 670 LINE SMOOTH",
"549 670 OFFCURVE",
"559 632 OFFCURVE",
"559 595 CURVE SMOOTH",
"559 574 OFFCURVE",
"556 554 OFFCURVE",
"554 539 CURVE",
"571 539 LINE",
"604 700 LINE",
"121 700 LINE",
"117 681 LINE",
"144 681 LINE SMOOTH",
"181 681 OFFCURVE",
"200 672 OFFCURVE",
"195 647 CURVE SMOOTH",
"74 52 LINE SMOOTH",
"68 27 OFFCURVE",
"46 18 OFFCURVE",
"9 18 CURVE SMOOTH",
"-18 18 LINE",
"-21 0 LINE"
);
},
{
closed = 1;
nodes = (
"246 -136 OFFCURVE",
"262 -122 OFFCURVE",
"266 -100 CURVE",
"267 -96 OFFCURVE",
"267 -93 OFFCURVE",
"267 -90 CURVE SMOOTH",
"267 -74 OFFCURVE",
"257 -64 OFFCURVE",
"240 -64 CURVE SMOOTH",
"221 -64 OFFCURVE",
"204 -78 OFFCURVE",
"199 -100 CURVE",
"198 -103 OFFCURVE",
"198 -106 OFFCURVE",
"198 -108 CURVE SMOOTH",
"198 -125 OFFCURVE",
"209 -136 OFFCURVE",
"226 -136 CURVE SMOOTH"
);
},
{
closed = 1;
nodes = (
"426 255 LINE",
"473 487 LINE",
"457 487 LINE",
"443 434 OFFCURVE",
"430 386 OFFCURVE",
"387 386 CURVE SMOOTH",
"174 386 LINE",
"167 356 LINE",
"380 356 LINE SMOOTH",
"407 356 OFFCURVE",
"415 337 OFFCURVE",
"415 309 CURVE SMOOTH",
"415 293 OFFCURVE",
"413 274 OFFCURVE",
"410 255 CURVE"
);
}
);
width = 551;
}
);
note = Edotbelow;
unicode = 1EB8;
},
{
glyphname = Egrave;
lastChange = "2015-10-21 17:44:02 +0000";
layers = (
{
layerId = "5C59C03B-63D5-4D42-95DD-0674E6EE1F81";
name = "Light Italic";
paths = (
{
closed = 1;
nodes = (
"461 0 LINE",
"510 170 LINE",
"493 170 LINE",
"480 123 OFFCURVE",
"444 29 OFFCURVE",
"386 29 CURVE SMOOTH",
"121 29 LINE",
"252 670 LINE",
"509 670 LINE SMOOTH",
"549 670 OFFCURVE",
"559 632 OFFCURVE",
"559 595 CURVE SMOOTH",
"559 574 OFFCURVE",
"556 554 OFFCURVE",
"554 539 CURVE",
"571 539 LINE",
"604 700 LINE",
"121 700 LINE",
"117 681 LINE",
"144 681 LINE SMOOTH",
"181 681 OFFCURVE",
"200 672 OFFCURVE",
"195 647 CURVE SMOOTH",
"74 52 LINE SMOOTH",
"68 27 OFFCURVE",
"46 18 OFFCURVE",
"9 18 CURVE SMOOTH",
"-18 18 LINE",
"-21 0 LINE"
);
},
{
closed = 1;
nodes = (
"426 255 LINE",
"473 487 LINE",
"457 487 LINE",
"443 434 OFFCURVE",
"430 386 OFFCURVE",
"387 386 CURVE SMOOTH",
"174 386 LINE",
"167 356 LINE",
"380 356 LINE SMOOTH",
"407 356 OFFCURVE",
"415 337 OFFCURVE",
"415 309 CURVE SMOOTH",
"415 293 OFFCURVE",
"413 274 OFFCURVE",
"410 255 CURVE"
);
},
{
closed = 1;
nodes = (
"495 801 LINE",
"409 894 LINE SMOOTH",
"401 902 OFFCURVE",
"393 910 OFFCURVE",
"381 910 CURVE SMOOTH",
"371 910 OFFCURVE",
"357 901 OFFCURVE",
"357 885 CURVE SMOOTH",
"357 876 OFFCURVE",
"364 867 OFFCURVE",
"372 861 CURVE SMOOTH",
"482 786 LINE"
);
}
);
width = 551;
}
);
note = Egrave;
unicode = 00C8;
},
{
glyphname = Ehookabove;
lastChange = "2015-10-21 17:44:03 +0000";
layers = (
{
layerId = "5C59C03B-63D5-4D42-95DD-0674E6EE1F81";
name = "Light Italic";
paths = (
{
closed = 1;
nodes = (
"461 0 LINE",
"510 170 LINE",
"493 170 LINE",
"480 123 OFFCURVE",
"444 29 OFFCURVE",
"386 29 CURVE SMOOTH",
"121 29 LINE",
"252 670 LINE",
"509 670 LINE SMOOTH",
"549 670 OFFCURVE",
"559 632 OFFCURVE",
"559 595 CURVE SMOOTH",
"559 574 OFFCURVE",
"556 554 OFFCURVE",
"554 539 CURVE",
"571 539 LINE",
"604 700 LINE",
"121 700 LINE",
"117 681 LINE",
"144 681 LINE SMOOTH",
"181 681 OFFCURVE",
"200 672 OFFCURVE",
"195 647 CURVE SMOOTH",
"74 52 LINE SMOOTH",
"68 27 OFFCURVE",
"46 18 OFFCURVE",
"9 18 CURVE SMOOTH",
"-18 18 LINE",
"-21 0 LINE"
);
},
{
closed = 1;
nodes = (
"426 255 LINE",
"473 487 LINE",
"457 487 LINE",
"443 434 OFFCURVE",
"430 386 OFFCURVE",
"387 386 CURVE SMOOTH",
"174 386 LINE",
"167 356 LINE",
"380 356 LINE SMOOTH",
"407 356 OFFCURVE",
"415 337 OFFCURVE",
"415 309 CURVE SMOOTH",
"415 293 OFFCURVE",
"413 274 OFFCURVE",
"410 255 CURVE"
);
},
{
closed = 1;
nodes = (
"444 795 LINE",
"431 799 OFFCURVE",
"422 803 OFFCURVE",
"422 815 CURVE SMOOTH",
"422 817 OFFCURVE",
"422 820 OFFCURVE",
"423 823 CURVE SMOOTH",
"429 854 OFFCURVE",
"510 871 OFFCURVE",
"519 918 CURVE SMOOTH",
"520 922 OFFCURVE",
"520 926 OFFCURVE",
"520 930 CURVE SMOOTH",
"520 960 OFFCURVE",
"494 974 OFFCURVE",
"458 974 CURVE SMOOTH",
"413 974 OFFCURVE",
"374 954 OFFCURVE",
"374 921 CURVE SMOOTH",
"374 912 OFFCURVE",
"379 908 OFFCURVE",
"388 908 CURVE SMOOTH",
"402 908 OFFCURVE",
"406 917 OFFCURVE",
"414 931 CURVE SMOOTH",
"421 946 OFFCURVE",
"439 951 OFFCURVE",
"454 951 CURVE SMOOTH",
"475 951 OFFCURVE",
"483 941 OFFCURVE",
"483 929 CURVE SMOOTH",
"483 926 OFFCURVE",
"483 924 OFFCURVE",
"482 921 CURVE",
"473 878 OFFCURVE",
"397 866 OFFCURVE",
"389 823 CURVE SMOOTH",
"388 819 OFFCURVE",
"388 816 OFFCURVE",
"388 812 CURVE SMOOTH",
"388 793 OFFCURVE",
"402 778 OFFCURVE",
"433 778 CURVE"
);
}
);
width = 551;
}
);
note = Ehookabove;
unicode = 1EBA;
},
{
glyphname = Emacron;
lastChange = "2015-10-21 17:44:04 +0000";
layers = (
{
layerId = "5C59C03B-63D5-4D42-95DD-0674E6EE1F81";
name = "Light Italic";
paths = (
{
closed = 1;
nodes = (
"461 0 LINE",
"510 170 LINE",
"493 170 LINE",
"480 123 OFFCURVE",
"444 29 OFFCURVE",
"386 29 CURVE SMOOTH",
"121 29 LINE",
"252 670 LINE",
"509 670 LINE SMOOTH",
"549 670 OFFCURVE",
"559 632 OFFCURVE",
"559 595 CURVE SMOOTH",
"559 574 OFFCURVE",
"556 554 OFFCURVE",
"554 539 CURVE",
"571 539 LINE",
"604 700 LINE",
"121 700 LINE",
"117 681 LINE",
"144 681 LINE SMOOTH",
"181 681 OFFCURVE",
"200 672 OFFCURVE",
"195 647 CURVE SMOOTH",
"74 52 LINE SMOOTH",
"68 27 OFFCURVE",
"46 18 OFFCURVE",
"9 18 CURVE SMOOTH",
"-18 18 LINE",
"-21 0 LINE"
);
},
{
closed = 1;
nodes = (
"426 255 LINE",
"473 487 LINE",
"457 487 LINE",
"443 434 OFFCURVE",
"430 386 OFFCURVE",
"387 386 CURVE SMOOTH",
"174 386 LINE",
"167 356 LINE",
"380 356 LINE SMOOTH",
"407 356 OFFCURVE",
"415 337 OFFCURVE",
"415 309 CURVE SMOOTH",
"415 293 OFFCURVE",
"413 274 OFFCURVE",
"410 255 CURVE"
);
},
{
closed = 1;
nodes = (
"553 785 LINE",
"560 814 LINE",
"279 814 LINE",
"273 785 LINE"
);
}
);
width = 551;
}
);
note = Emacron;
unicode = 0112;
},
{
glyphname = Eogonek;
lastChange = "2015-10-21 17:44:04 +0000";
layers = (
{
layerId = "5C59C03B-63D5-4D42-95DD-0674E6EE1F81";
name = "Light Italic";
paths = (
{
closed = 1;
nodes = (
"461 0 LINE",
"510 170 LINE",
"493 170 LINE",
"480 123 OFFCURVE",
"444 29 OFFCURVE",
"386 29 CURVE SMOOTH",
"121 29 LINE",
"252 670 LINE",
"509 670 LINE SMOOTH",
"549 670 OFFCURVE",
"559 632 OFFCURVE",
"559 595 CURVE SMOOTH",
"559 574 OFFCURVE",
"556 554 OFFCURVE",
"554 539 CURVE",
"571 539 LINE",
"604 700 LINE",
"121 700 LINE",
"117 681 LINE",
"144 681 LINE SMOOTH",
"181 681 OFFCURVE",
"200 672 OFFCURVE",
"195 647 CURVE SMOOTH",
"74 52 LINE SMOOTH",
"68 27 OFFCURVE",
"46 18 OFFCURVE",
"9 18 CURVE SMOOTH",
"-18 18 LINE",
"-21 0 LINE"
);
},
{
closed = 1;
nodes = (
"372 -176 OFFCURVE",
"389 -172 OFFCURVE",
"413 -162 CURVE",
"415 -145 LINE",
"398 -150 OFFCURVE",
"384 -153 OFFCURVE",
"372 -153 CURVE SMOOTH",
"345 -153 OFFCURVE",
"323 -142 OFFCURVE",
"323 -114 CURVE SMOOTH",
"323 -110 OFFCURVE",
"324 -105 OFFCURVE",
"324 -100 CURVE SMOOTH",
"333 -60 OFFCURVE",
"369 -22 OFFCURVE",
"413 1 CURVE",
"384 1 LINE",
"334 -21 OFFCURVE",
"296 -58 OFFCURVE",
"286 -104 CURVE SMOOTH",
"285 -109 OFFCURVE",
"284 -114 OFFCURVE",
"284 -119 CURVE SMOOTH",
"284 -147 OFFCURVE",
"300 -176 OFFCURVE",
"349 -176 CURVE SMOOTH"
);
},
{
closed = 1;
nodes = (
"426 255 LINE",
"473 487 LINE",
"457 487 LINE",
"443 434 OFFCURVE",
"430 386 OFFCURVE",
"387 386 CURVE SMOOTH",
"174 386 LINE",
"167 356 LINE",
"380 356 LINE SMOOTH",
"407 356 OFFCURVE",
"415 337 OFFCURVE",
"415 309 CURVE SMOOTH",
"415 293 OFFCURVE",
"413 274 OFFCURVE",
"410 255 CURVE"
);
}
);
width = 551;
}
);
note = Eogonek;
unicode = 0118;
},
{
glyphname = Etilde;
lastChange = "2015-10-21 17:44:03 +0000";
layers = (
{
layerId = "5C59C03B-63D5-4D42-95DD-0674E6EE1F81";
name = "Light Italic";
paths = (
{
closed = 1;
nodes = (
"461 0 LINE",
"510 170 LINE",
"493 170 LINE",
"480 123 OFFCURVE",
"444 29 OFFCURVE",
"386 29 CURVE SMOOTH",
"121 29 LINE",
"252 670 LINE",
"509 670 LINE SMOOTH",
"549 670 OFFCURVE",
"559 632 OFFCURVE",
"559 595 CURVE SMOOTH",
"559 574 OFFCURVE",
"556 554 OFFCURVE",
"554 539 CURVE",
"571 539 LINE",
"604 700 LINE",
"121 700 LINE",
"117 681 LINE",
"144 681 LINE SMOOTH",
"181 681 OFFCURVE",
"200 672 OFFCURVE",
"195 647 CURVE SMOOTH",
"74 52 LINE SMOOTH",
"68 27 OFFCURVE",
"46 18 OFFCURVE",
"9 18 CURVE SMOOTH",
"-18 18 LINE",
"-21 0 LINE"
);
},
{
closed = 1;
nodes = (
"426 255 LINE",
"473 487 LINE",
"457 487 LINE",
"443 434 OFFCURVE",
"430 386 OFFCURVE",
"387 386 CURVE SMOOTH",
"174 386 LINE",
"167 356 LINE",
"380 356 LINE SMOOTH",
"407 356 OFFCURVE",
"415 337 OFFCURVE",
"415 309 CURVE SMOOTH",
"415 293 OFFCURVE",
"413 274 OFFCURVE",
"410 255 CURVE"
);
},
{
closed = 1;
nodes = (
"300 821 OFFCURVE",
"324 844 OFFCURVE",
"352 844 CURVE SMOOTH",
"395 844 OFFCURVE",
"427 786 OFFCURVE",
"471 786 CURVE SMOOTH",
"516 786 OFFCURVE",
"549 820 OFFCURVE",
"569 874 CURVE",
"555 883 LINE",
"536 843 OFFCURVE",
"516 818 OFFCURVE",
"484 818 CURVE SMOOTH",
"444 818 OFFCURVE",
"408 875 OFFCURVE",
"364 875 CURVE SMOOTH",
"324 875 OFFCURVE",
"288 846 OFFCURVE",
"268 792 CURVE",
"282 783 LINE"
);
}
);
width = 551;
}
);
note = Etilde;
unicode = 1EBC;
},
{
glyphname = F;
lastChange = "2015-10-21 17:44:04 +0000";
layers = (
{
layerId = "5C59C03B-63D5-4D42-95DD-0674E6EE1F81";
name = "Light Italic";
paths = (
{
closed = 1;
nodes = (
"200 0 LINE",
"203 18 LINE",
"176 18 LINE SMOOTH",
"143 18 OFFCURVE",
"125 25 OFFCURVE",
"125 44 CURVE SMOOTH",
"125 46 OFFCURVE",
"125 49 OFFCURVE",
"126 52 CURVE SMOOTH",
"252 670 LINE",
"509 670 LINE SMOOTH",
"549 670 OFFCURVE",
"559 632 OFFCURVE",
"559 595 CURVE SMOOTH",
"559 574 OFFCURVE",
"556 554 OFFCURVE",
"554 539 CURVE",
"571 539 LINE",
"604 700 LINE",
"121 700 LINE",
"117 681 LINE",
"144 681 LINE SMOOTH",
"181 681 OFFCURVE",
"200 672 OFFCURVE",
"195 647 CURVE SMOOTH",
"74 52 LINE SMOOTH",
"68 27 OFFCURVE",
"46 18 OFFCURVE",
"9 18 CURVE SMOOTH",
"-18 18 LINE",
"-21 0 LINE"
);
},
{
closed = 1;
nodes = (
"401 231 LINE",
"448 462 LINE",
"431 462 LINE",
"417 410 OFFCURVE",
"403 361 OFFCURVE",
"361 361 CURVE SMOOTH",
"169 361 LINE",
"163 332 LINE",
"355 332 LINE SMOOTH",
"382 332 OFFCURVE",
"389 313 OFFCURVE",
"389 285 CURVE SMOOTH",
"389 269 OFFCURVE",
"387 250 OFFCURVE",
"384 231 CURVE"
);
}
);
width = 516;
}
);
note = F;
unicode = 0046;
},
{
glyphname = G;
lastChange = "2015-10-21 17:48:23 +0000";
layers = (
{
layerId = "5C59C03B-63D5-4D42-95DD-0674E6EE1F81";
name = "Light Italic";
paths = (
{
closed = 1;
nodes = (
"435 -10 OFFCURVE",
"511 29 OFFCURVE",
"566 71 CURVE",
"603 251 LINE SMOOTH",
"616 318 OFFCURVE",
"629 335 OFFCURVE",
"668 335 CURVE SMOOTH",
"676 335 LINE",
"679 352 LINE",
"478 352 LINE",
"475 335 LINE",
"488 335 LINE SMOOTH",
"530 335 OFFCURVE",
"562 325 OFFCURVE",
"562 295 CURVE SMOOTH",
"562 291 OFFCURVE",
"562 288 OFFCURVE",
"561 284 CURVE SMOOTH",
"519 80 LINE",
"457 30 OFFCURVE",
"371 19 OFFCURVE",
"320 19 CURVE SMOOTH",
"178 19 OFFCURVE",
"117 105 OFFCURVE",
"117 236 CURVE SMOOTH",
"117 271 OFFCURVE",
"121 309 OFFCURVE",
"130 350 CURVE SMOOTH",
"169 544 OFFCURVE",
"285 680 OFFCURVE",
"462 680 CURVE SMOOTH",
"563 680 OFFCURVE",
"629 626 OFFCURVE",
"629 542 CURVE SMOOTH",
"629 537 OFFCURVE",
"629 531 OFFCURVE",
"628 525 CURVE",
"645 525 LINE",
"682 705 LINE",
"658 705 LINE",
"648 655 LINE",
"645 643 OFFCURVE",
"642 641 OFFCURVE",
"638 641 CURVE SMOOTH",
"635 641 OFFCURVE",
"632 646 OFFCURVE",
"628 649 CURVE",
"602 673 OFFCURVE",
"555 710 OFFCURVE",
"462 710 CURVE SMOOTH",
"270 710 OFFCURVE",
"125 580 OFFCURVE",
"78 350 CURVE SMOOTH",
"69 307 OFFCURVE",
"65 268 OFFCURVE",
"65 233 CURVE SMOOTH",
"65 76 OFFCURVE",
"148 -10 OFFCURVE",
"302 -10 CURVE SMOOTH"
);
}
);
width = 656;
}
);
leftKerningGroup = G;
note = G;
unicode = 0047;
},
{
glyphname = Gbreve;
lastChange = "2015-10-21 17:44:03 +0000";
layers = (
{
layerId = "5C59C03B-63D5-4D42-95DD-0674E6EE1F81";
name = "Light Italic";
paths = (
{
closed = 1;
nodes = (
"435 -10 OFFCURVE",
"511 29 OFFCURVE",
"566 71 CURVE",
"603 251 LINE SMOOTH",
"616 318 OFFCURVE",
"629 335 OFFCURVE",
"668 335 CURVE SMOOTH",
"676 335 LINE",
"679 352 LINE",
"478 352 LINE",
"475 335 LINE",
"488 335 LINE SMOOTH",
"530 335 OFFCURVE",
"562 325 OFFCURVE",
"562 295 CURVE SMOOTH",
"562 291 OFFCURVE",
"562 288 OFFCURVE",
"561 284 CURVE SMOOTH",
"519 80 LINE",
"457 30 OFFCURVE",
"371 19 OFFCURVE",
"320 19 CURVE SMOOTH",
"178 19 OFFCURVE",
"117 105 OFFCURVE",
"117 236 CURVE SMOOTH",
"117 271 OFFCURVE",
"121 309 OFFCURVE",
"130 350 CURVE SMOOTH",
"169 544 OFFCURVE",
"285 680 OFFCURVE",
"462 680 CURVE SMOOTH",
"563 680 OFFCURVE",
"629 626 OFFCURVE",
"629 542 CURVE SMOOTH",
"629 537 OFFCURVE",
"629 531 OFFCURVE",
"628 525 CURVE",
"645 525 LINE",
"682 705 LINE",
"658 705 LINE",
"648 655 LINE",
"645 643 OFFCURVE",
"642 641 OFFCURVE",
"638 641 CURVE SMOOTH",
"635 641 OFFCURVE",
"632 646 OFFCURVE",
"628 649 CURVE",
"602 673 OFFCURVE",
"555 710 OFFCURVE",
"462 710 CURVE SMOOTH",
"270 710 OFFCURVE",
"125 580 OFFCURVE",
"78 350 CURVE SMOOTH",
"69 307 OFFCURVE",
"65 268 OFFCURVE",
"65 233 CURVE SMOOTH",
"65 76 OFFCURVE",
"148 -10 OFFCURVE",
"302 -10 CURVE SMOOTH"
);
},
{
closed = 1;
nodes = (
"548 776 OFFCURVE",
"603 818 OFFCURVE",
"624 895 CURVE",
"597 895 LINE",
"574 822 OFFCURVE",
"522 808 OFFCURVE",
"477 808 CURVE SMOOTH",
"434 808 OFFCURVE",
"391 820 OFFCURVE",
"391 881 CURVE SMOOTH",
"391 886 OFFCURVE",
"392 890 OFFCURVE",
"392 895 CURVE",
"366 895 LINE",
"365 886 OFFCURVE",
"364 878 OFFCURVE",
"364 870 CURVE SMOOTH",
"364 808 OFFCURVE",
"402 776 OFFCURVE",
"471 776 CURVE SMOOTH"
);
}
);
width = 656;
}
);
leftKerningGroup = G;
note = Gbreve;
unicode = 011E;
},
{
glyphname = Gcaron;
lastChange = "2015-10-21 17:44:02 +0000";
layers = (
{
layerId = "5C59C03B-63D5-4D42-95DD-0674E6EE1F81";
name = "Light Italic";
paths = (
{
closed = 1;
nodes = (
"435 -10 OFFCURVE",
"511 29 OFFCURVE",
"566 71 CURVE",
"603 251 LINE SMOOTH",
"616 318 OFFCURVE",
"629 335 OFFCURVE",
"668 335 CURVE SMOOTH",
"676 335 LINE",
"679 352 LINE",
"478 352 LINE",
"475 335 LINE",
"488 335 LINE SMOOTH",
"530 335 OFFCURVE",
"562 325 OFFCURVE",
"562 295 CURVE SMOOTH",
"562 291 OFFCURVE",
"562 288 OFFCURVE",
"561 284 CURVE SMOOTH",
"519 80 LINE",
"457 30 OFFCURVE",
"371 19 OFFCURVE",
"320 19 CURVE SMOOTH",
"178 19 OFFCURVE",
"117 105 OFFCURVE",
"117 236 CURVE SMOOTH",
"117 271 OFFCURVE",
"121 309 OFFCURVE",
"130 350 CURVE SMOOTH",
"169 544 OFFCURVE",
"285 680 OFFCURVE",
"462 680 CURVE SMOOTH",
"563 680 OFFCURVE",
"629 626 OFFCURVE",
"629 542 CURVE SMOOTH",
"629 537 OFFCURVE",
"629 531 OFFCURVE",
"628 525 CURVE",
"645 525 LINE",
"682 705 LINE",
"658 705 LINE",
"648 655 LINE",
"645 643 OFFCURVE",
"642 641 OFFCURVE",
"638 641 CURVE SMOOTH",
"635 641 OFFCURVE",
"632 646 OFFCURVE",
"628 649 CURVE",
"602 673 OFFCURVE",
"555 710 OFFCURVE",
"462 710 CURVE SMOOTH",
"270 710 OFFCURVE",
"125 580 OFFCURVE",
"78 350 CURVE SMOOTH",
"69 307 OFFCURVE",
"65 268 OFFCURVE",
"65 233 CURVE SMOOTH",
"65 76 OFFCURVE",
"148 -10 OFFCURVE",
"302 -10 CURVE SMOOTH"
);
},
{
closed = 1;
nodes = (
"504 785 LINE",
"631 892 LINE",
"619 910 LINE",
"513 831 LINE",
"506 827 OFFCURVE",
"501 824 OFFCURVE",
"497 824 CURVE SMOOTH",
"493 824 OFFCURVE",
"489 826 OFFCURVE",
"483 831 CURVE",
"409 910 LINE",
"390 892 LINE",
"472 785 LINE"
);
}
);
width = 656;
}
);
leftKerningGroup = G;
note = Gcaron;
unicode = 01E6;
},
{
glyphname = Gcircumflex;
lastChange = "2015-10-21 17:44:03 +0000";
layers = (
{
layerId = "5C59C03B-63D5-4D42-95DD-0674E6EE1F81";
name = "Light Italic";
paths = (
{
closed = 1;
nodes = (
"435 -10 OFFCURVE",
"511 29 OFFCURVE",
"566 71 CURVE",
"603 251 LINE SMOOTH",
"616 318 OFFCURVE",
"629 335 OFFCURVE",
"668 335 CURVE SMOOTH",
"676 335 LINE",
"679 352 LINE",
"478 352 LINE",
"475 335 LINE",
"488 335 LINE SMOOTH",
"530 335 OFFCURVE",
"562 325 OFFCURVE",
"562 295 CURVE SMOOTH",
"562 291 OFFCURVE",
"562 288 OFFCURVE",
"561 284 CURVE SMOOTH",
"519 80 LINE",
"457 30 OFFCURVE",
"371 19 OFFCURVE",
"320 19 CURVE SMOOTH",
"178 19 OFFCURVE",
"117 105 OFFCURVE",
"117 236 CURVE SMOOTH",
"117 271 OFFCURVE",
"121 309 OFFCURVE",
"130 350 CURVE SMOOTH",
"169 544 OFFCURVE",
"285 680 OFFCURVE",
"462 680 CURVE SMOOTH",
"563 680 OFFCURVE",
"629 626 OFFCURVE",
"629 542 CURVE SMOOTH",
"629 537 OFFCURVE",
"629 531 OFFCURVE",
"628 525 CURVE",
"645 525 LINE",
"682 705 LINE",
"658 705 LINE",
"648 655 LINE",
"645 643 OFFCURVE",
"642 641 OFFCURVE",
"638 641 CURVE SMOOTH",
"635 641 OFFCURVE",
"632 646 OFFCURVE",
"628 649 CURVE",
"602 673 OFFCURVE",
"555 710 OFFCURVE",
"462 710 CURVE SMOOTH",
"270 710 OFFCURVE",
"125 580 OFFCURVE",
"78 350 CURVE SMOOTH",
"69 307 OFFCURVE",
"65 268 OFFCURVE",
"65 233 CURVE SMOOTH",
"65 76 OFFCURVE",
"148 -10 OFFCURVE",
"302 -10 CURVE SMOOTH"
);
},
{
closed = 1;
nodes = (
"478 864 LINE",
"485 868 OFFCURVE",
"492 871 OFFCURVE",
"495 871 CURVE SMOOTH",
"499 871 OFFCURVE",
"503 868 OFFCURVE",
"508 864 CURVE",
"582 785 LINE",
"601 803 LINE",
"518 910 LINE",
"487 910 LINE",
"360 803 LINE",
"372 785 LINE"
);
}
);
width = 656;
}
);
leftKerningGroup = G;
note = Gcircumflex;
unicode = 011C;
},
{
glyphname = Gcommaaccent;
lastChange = "2015-10-21 17:44:03 +0000";
layers = (
{
layerId = "5C59C03B-63D5-4D42-95DD-0674E6EE1F81";
name = "Light Italic";
paths = (
{
closed = 1;
nodes = (
"435 -10 OFFCURVE",
"511 29 OFFCURVE",
"566 71 CURVE",
"603 251 LINE SMOOTH",
"616 318 OFFCURVE",
"629 335 OFFCURVE",
"668 335 CURVE SMOOTH",
"676 335 LINE",
"679 352 LINE",
"478 352 LINE",
"475 335 LINE",
"488 335 LINE SMOOTH",
"530 335 OFFCURVE",
"562 325 OFFCURVE",
"562 295 CURVE SMOOTH",
"562 291 OFFCURVE",
"562 288 OFFCURVE",
"561 284 CURVE SMOOTH",
"519 80 LINE",
"457 30 OFFCURVE",
"371 19 OFFCURVE",
"320 19 CURVE SMOOTH",
"178 19 OFFCURVE",
"117 105 OFFCURVE",
"117 236 CURVE SMOOTH",
"117 271 OFFCURVE",
"121 309 OFFCURVE",
"130 350 CURVE SMOOTH",
"169 544 OFFCURVE",
"285 680 OFFCURVE",
"462 680 CURVE SMOOTH",
"563 680 OFFCURVE",
"629 626 OFFCURVE",
"629 542 CURVE SMOOTH",
"629 537 OFFCURVE",
"629 531 OFFCURVE",
"628 525 CURVE",
"645 525 LINE",
"682 705 LINE",
"658 705 LINE",
"648 655 LINE",
"645 643 OFFCURVE",
"642 641 OFFCURVE",
"638 641 CURVE SMOOTH",
"635 641 OFFCURVE",
"632 646 OFFCURVE",
"628 649 CURVE",
"602 673 OFFCURVE",
"555 710 OFFCURVE",
"462 710 CURVE SMOOTH",
"270 710 OFFCURVE",
"125 580 OFFCURVE",
"78 350 CURVE SMOOTH",
"69 307 OFFCURVE",
"65 268 OFFCURVE",
"65 233 CURVE SMOOTH",
"65 76 OFFCURVE",
"148 -10 OFFCURVE",
"302 -10 CURVE SMOOTH"
);
},
{
closed = 1;
nodes = (
"289 -216 OFFCURVE",
"325 -166 OFFCURVE",
"336 -113 CURVE SMOOTH",
"338 -105 OFFCURVE",
"339 -99 OFFCURVE",
"339 -93 CURVE SMOOTH",
"339 -70 OFFCURVE",
"325 -63 OFFCURVE",
"311 -63 CURVE SMOOTH",
"289 -63 OFFCURVE",
"272 -80 OFFCURVE",
"272 -104 CURVE SMOOTH",
"272 -124 OFFCURVE",
"290 -129 OFFCURVE",
"290 -151 CURVE SMOOTH",
"290 -153 OFFCURVE",
"290 -156 OFFCURVE",
"289 -159 CURVE SMOOTH",
"282 -191 OFFCURVE",
"252 -220 OFFCURVE",
"225 -242 CURVE",
"232 -255 LINE"
);
}
);
width = 656;
}
);
leftKerningGroup = G;
note = Gcommaaccent;
unicode = 0122;
},
{
glyphname = Gdotaccent;
lastChange = "2015-10-21 17:44:02 +0000";
layers = (
{
layerId = "5C59C03B-63D5-4D42-95DD-0674E6EE1F81";
name = "Light Italic";
paths = (
{
closed = 1;
nodes = (
"435 -10 OFFCURVE",
"511 29 OFFCURVE",
"566 71 CURVE",
"603 251 LINE SMOOTH",
"616 318 OFFCURVE",
"629 335 OFFCURVE",
"668 335 CURVE SMOOTH",
"676 335 LINE",
"679 352 LINE",
"478 352 LINE",
"475 335 LINE",
"488 335 LINE SMOOTH",
"530 335 OFFCURVE",
"562 325 OFFCURVE",
"562 295 CURVE SMOOTH",
"562 291 OFFCURVE",
"562 288 OFFCURVE",
"561 284 CURVE SMOOTH",
"519 80 LINE",
"457 30 OFFCURVE",
"371 19 OFFCURVE",
"320 19 CURVE SMOOTH",
"178 19 OFFCURVE",
"117 105 OFFCURVE",
"117 236 CURVE SMOOTH",
"117 271 OFFCURVE",
"121 309 OFFCURVE",
"130 350 CURVE SMOOTH",
"169 544 OFFCURVE",
"285 680 OFFCURVE",
"462 680 CURVE SMOOTH",
"563 680 OFFCURVE",
"629 626 OFFCURVE",
"629 542 CURVE SMOOTH",
"629 537 OFFCURVE",
"629 531 OFFCURVE",
"628 525 CURVE",
"645 525 LINE",
"682 705 LINE",
"658 705 LINE",
"648 655 LINE",
"645 643 OFFCURVE",
"642 641 OFFCURVE",
"638 641 CURVE SMOOTH",
"635 641 OFFCURVE",
"632 646 OFFCURVE",
"628 649 CURVE",
"602 673 OFFCURVE",
"555 710 OFFCURVE",
"462 710 CURVE SMOOTH",
"270 710 OFFCURVE",
"125 580 OFFCURVE",
"78 350 CURVE SMOOTH",
"69 307 OFFCURVE",
"65 268 OFFCURVE",
"65 233 CURVE SMOOTH",
"65 76 OFFCURVE",
"148 -10 OFFCURVE",
"302 -10 CURVE SMOOTH"
);
},
{
closed = 1;
nodes = (
"491 761 OFFCURVE",
"507 774 OFFCURVE",
"512 796 CURVE",
"513 799 OFFCURVE",
"513 802 OFFCURVE",
"513 805 CURVE SMOOTH",
"513 822 OFFCURVE",
"502 832 OFFCURVE",
"486 832 CURVE SMOOTH",
"466 832 OFFCURVE",
"449 818 OFFCURVE",
"445 796 CURVE",
"444 792 OFFCURVE",
"444 789 OFFCURVE",
"444 786 CURVE SMOOTH",
"444 770 OFFCURVE",
"454 761 OFFCURVE",
"471 761 CURVE SMOOTH"
);
}
);
width = 656;
}
);
leftKerningGroup = G;
note = Gdotaccent;
unicode = 0120;
},
{
glyphname = Gmacron;
lastChange = "2015-10-21 17:44:04 +0000";
layers = (
{
layerId = "5C59C03B-63D5-4D42-95DD-0674E6EE1F81";
name = "Light Italic";
paths = (
{
closed = 1;
nodes = (
"435 -10 OFFCURVE",
"511 29 OFFCURVE",
"566 71 CURVE",
"603 251 LINE SMOOTH",
"616 318 OFFCURVE",
"629 335 OFFCURVE",
"668 335 CURVE SMOOTH",
"676 335 LINE",
"679 352 LINE",
"478 352 LINE",
"475 335 LINE",
"488 335 LINE SMOOTH",
"530 335 OFFCURVE",
"562 325 OFFCURVE",
"562 295 CURVE SMOOTH",
"562 291 OFFCURVE",
"562 288 OFFCURVE",
"561 284 CURVE SMOOTH",
"519 80 LINE",
"457 30 OFFCURVE",
"371 19 OFFCURVE",
"320 19 CURVE SMOOTH",
"178 19 OFFCURVE",
"117 105 OFFCURVE",
"117 236 CURVE SMOOTH",
"117 271 OFFCURVE",
"121 309 OFFCURVE",
"130 350 CURVE SMOOTH",
"169 544 OFFCURVE",
"285 680 OFFCURVE",
"462 680 CURVE SMOOTH",
"563 680 OFFCURVE",
"629 626 OFFCURVE",
"629 542 CURVE SMOOTH",
"629 537 OFFCURVE",
"629 531 OFFCURVE",
"628 525 CURVE",
"645 525 LINE",
"682 705 LINE",
"658 705 LINE",
"648 655 LINE",
"645 643 OFFCURVE",
"642 641 OFFCURVE",
"638 641 CURVE SMOOTH",
"635 641 OFFCURVE",
"632 646 OFFCURVE",
"628 649 CURVE",
"602 673 OFFCURVE",
"555 710 OFFCURVE",
"462 710 CURVE SMOOTH",
"270 710 OFFCURVE",
"125 580 OFFCURVE",
"78 350 CURVE SMOOTH",
"69 307 OFFCURVE",
"65 268 OFFCURVE",
"65 233 CURVE SMOOTH",
"65 76 OFFCURVE",
"148 -10 OFFCURVE",
"302 -10 CURVE SMOOTH"
);
},
{
closed = 1;
nodes = (
"613 786 LINE",
"620 815 LINE",
"340 815 LINE",
"333 786 LINE"
);
}
);
width = 656;
}
);
leftKerningGroup = G;
note = Gmacron;
unicode = 1E20;
},
{
glyphname = H;
lastChange = "2015-10-21 17:44:02 +0000";
layers = (
{
layerId = "5C59C03B-63D5-4D42-95DD-0674E6EE1F81";
name = "Light Italic";
paths = (
{
closed = 1;
nodes = (
"646 0 LINE",
"649 18 LINE",
"622 18 LINE SMOOTH",
"589 18 OFFCURVE",
"571 25 OFFCURVE",
"571 44 CURVE SMOOTH",
"571 46 OFFCURVE",
"571 49 OFFCURVE",
"572 52 CURVE SMOOTH",
"693 647 LINE SMOOTH",
"698 672 OFFCURVE",
"720 681 OFFCURVE",
"757 681 CURVE SMOOTH",
"784 681 LINE",
"788 700 LINE",
"567 700 LINE",
"564 681 LINE",
"590 681 LINE SMOOTH",
"628 681 OFFCURVE",
"646 672 OFFCURVE",
"641 647 CURVE SMOOTH",
"520 52 LINE SMOOTH",
"515 27 OFFCURVE",
"492 18 OFFCURVE",
"455 18 CURVE SMOOTH",
"428 18 LINE",
"425 0 LINE"
);
},
{
closed = 1;
nodes = (
"208 0 LINE",
"211 18 LINE",
"184 18 LINE SMOOTH",
"152 18 OFFCURVE",
"133 25 OFFCURVE",
"133 44 CURVE SMOOTH",
"133 46 OFFCURVE",
"133 49 OFFCURVE",
"134 52 CURVE SMOOTH",
"255 647 LINE SMOOTH",
"260 672 OFFCURVE",
"282 681 OFFCURVE",
"320 681 CURVE SMOOTH",
"347 681 LINE",
"350 700 LINE",
"130 700 LINE",
"126 681 LINE",
"153 681 LINE SMOOTH",
"190 681 OFFCURVE",
"208 672 OFFCURVE",
"204 647 CURVE SMOOTH",
"83 52 LINE SMOOTH",
"77 27 OFFCURVE",
"55 18 OFFCURVE",
"17 18 CURVE SMOOTH",
"-10 18 LINE",
"-12 0 LINE"
);
},
{
closed = 1;
nodes = (
"610 359 LINE",
"615 389 LINE",
"176 389 LINE",
"170 359 LINE"
);
}
);
width = 710;
}
);
note = H;
unicode = 0048;
},
{
glyphname = Hbar;
lastChange = "2015-10-21 17:44:04 +0000";
layers = (
{
layerId = "5C59C03B-63D5-4D42-95DD-0674E6EE1F81";
name = "Light Italic";
paths = (
{
closed = 1;
nodes = (
"646 0 LINE",
"649 18 LINE",
"622 18 LINE SMOOTH",
"589 18 OFFCURVE",
"571 25 OFFCURVE",
"571 44 CURVE SMOOTH",
"571 46 OFFCURVE",
"571 49 OFFCURVE",
"572 52 CURVE SMOOTH",
"693 647 LINE SMOOTH",
"698 672 OFFCURVE",
"720 681 OFFCURVE",
"757 681 CURVE SMOOTH",
"784 681 LINE",
"788 700 LINE",
"567 700 LINE",
"564 681 LINE",
"590 681 LINE SMOOTH",
"628 681 OFFCURVE",
"646 672 OFFCURVE",
"641 647 CURVE SMOOTH",
"520 52 LINE SMOOTH",
"515 27 OFFCURVE",
"492 18 OFFCURVE",
"455 18 CURVE SMOOTH",
"428 18 LINE",
"425 0 LINE"
);
},
{
closed = 1;
nodes = (
"208 0 LINE",
"211 18 LINE",
"184 18 LINE SMOOTH",
"152 18 OFFCURVE",
"133 25 OFFCURVE",
"133 44 CURVE SMOOTH",
"133 46 OFFCURVE",
"133 49 OFFCURVE",
"134 52 CURVE SMOOTH",
"255 647 LINE SMOOTH",
"260 672 OFFCURVE",
"282 681 OFFCURVE",
"320 681 CURVE SMOOTH",
"347 681 LINE",
"350 700 LINE",
"130 700 LINE",
"126 681 LINE",
"153 681 LINE SMOOTH",
"190 681 OFFCURVE",
"208 672 OFFCURVE",
"204 647 CURVE SMOOTH",
"83 52 LINE SMOOTH",
"77 27 OFFCURVE",
"55 18 OFFCURVE",
"17 18 CURVE SMOOTH",
"-10 18 LINE",
"-12 0 LINE"
);
},
{
closed = 1;
nodes = (
"610 359 LINE",
"615 389 LINE",
"176 389 LINE",
"170 359 LINE"
);
},
{
closed = 1;
nodes = (
"716 514 LINE",
"722 543 LINE",
"117 543 LINE",
"111 514 LINE"
);
}
);
width = 710;
}
);
note = Hbar;
unicode = 0126;
},
{
glyphname = Hbrevebelow;
lastChange = "2015-10-21 17:44:04 +0000";
layers = (
{
layerId = "5C59C03B-63D5-4D42-95DD-0674E6EE1F81";
name = "Light Italic";
paths = (
{
closed = 1;
nodes = (
"646 0 LINE",
"649 18 LINE",
"622 18 LINE SMOOTH",
"589 18 OFFCURVE",
"571 25 OFFCURVE",
"571 44 CURVE SMOOTH",
"571 46 OFFCURVE",
"571 49 OFFCURVE",
"572 52 CURVE SMOOTH",
"693 647 LINE SMOOTH",
"698 672 OFFCURVE",
"720 681 OFFCURVE",
"757 681 CURVE SMOOTH",
"784 681 LINE",
"788 700 LINE",
"567 700 LINE",
"564 681 LINE",
"590 681 LINE SMOOTH",
"628 681 OFFCURVE",
"646 672 OFFCURVE",
"641 647 CURVE SMOOTH",
"520 52 LINE SMOOTH",
"515 27 OFFCURVE",
"492 18 OFFCURVE",
"455 18 CURVE SMOOTH",
"428 18 LINE",
"425 0 LINE"
);
},
{
closed = 1;
nodes = (
"357 -171 OFFCURVE",
"413 -130 OFFCURVE",
"433 -53 CURVE",
"406 -53 LINE",
"384 -125 OFFCURVE",
"332 -139 OFFCURVE",
"288 -139 CURVE SMOOTH",
"242 -139 OFFCURVE",
"196 -125 OFFCURVE",
"202 -53 CURVE",
"176 -53 LINE",
"175 -62 OFFCURVE",
"174 -70 OFFCURVE",
"174 -78 CURVE SMOOTH",
"174 -139 OFFCURVE",
"212 -171 OFFCURVE",
"281 -171 CURVE SMOOTH"
);
},
{
closed = 1;
nodes = (
"208 0 LINE",
"211 18 LINE",
"184 18 LINE SMOOTH",
"152 18 OFFCURVE",
"133 25 OFFCURVE",
"133 44 CURVE SMOOTH",
"133 46 OFFCURVE",
"133 49 OFFCURVE",
"134 52 CURVE SMOOTH",
"255 647 LINE SMOOTH",
"260 672 OFFCURVE",
"282 681 OFFCURVE",
"320 681 CURVE SMOOTH",
"347 681 LINE",
"350 700 LINE",
"130 700 LINE",
"126 681 LINE",
"153 681 LINE SMOOTH",
"190 681 OFFCURVE",
"208 672 OFFCURVE",
"204 647 CURVE SMOOTH",
"83 52 LINE SMOOTH",
"77 27 OFFCURVE",
"55 18 OFFCURVE",
"17 18 CURVE SMOOTH",
"-10 18 LINE",
"-12 0 LINE"
);
},
{
closed = 1;
nodes = (
"610 359 LINE",
"615 389 LINE",
"176 389 LINE",
"170 359 LINE"
);
}
);
width = 710;
}
);
note = Hbrevebelow;
unicode = 1E2A;
},
{
glyphname = Hcircumflex;
lastChange = "2015-10-21 17:44:02 +0000";
layers = (
{
layerId = "5C59C03B-63D5-4D42-95DD-0674E6EE1F81";
name = "Light Italic";
paths = (
{
closed = 1;
nodes = (
"646 0 LINE",
"649 18 LINE",
"622 18 LINE SMOOTH",
"589 18 OFFCURVE",
"571 25 OFFCURVE",
"571 44 CURVE SMOOTH",
"571 46 OFFCURVE",
"571 49 OFFCURVE",
"572 52 CURVE SMOOTH",
"693 647 LINE SMOOTH",
"698 672 OFFCURVE",
"720 681 OFFCURVE",
"757 681 CURVE SMOOTH",
"784 681 LINE",
"788 700 LINE",
"567 700 LINE",
"564 681 LINE",
"590 681 LINE SMOOTH",
"628 681 OFFCURVE",
"646 672 OFFCURVE",
"641 647 CURVE SMOOTH",
"520 52 LINE SMOOTH",
"515 27 OFFCURVE",
"492 18 OFFCURVE",
"455 18 CURVE SMOOTH",
"428 18 LINE",
"425 0 LINE"
);
},
{
closed = 1;
nodes = (
"208 0 LINE",
"211 18 LINE",
"184 18 LINE SMOOTH",
"152 18 OFFCURVE",
"133 25 OFFCURVE",
"133 44 CURVE SMOOTH",
"133 46 OFFCURVE",
"133 49 OFFCURVE",
"134 52 CURVE SMOOTH",
"255 647 LINE SMOOTH",
"260 672 OFFCURVE",
"282 681 OFFCURVE",
"320 681 CURVE SMOOTH",
"347 681 LINE",
"350 700 LINE",
"130 700 LINE",
"126 681 LINE",
"153 681 LINE SMOOTH",
"190 681 OFFCURVE",
"208 672 OFFCURVE",
"204 647 CURVE SMOOTH",
"83 52 LINE SMOOTH",
"77 27 OFFCURVE",
"55 18 OFFCURVE",
"17 18 CURVE SMOOTH",
"-10 18 LINE",
"-12 0 LINE"
);
},
{
closed = 1;
nodes = (
"610 359 LINE",
"615 389 LINE",
"176 389 LINE",
"170 359 LINE"
);
},
{
closed = 1;
nodes = (
"476 864 LINE",
"483 868 OFFCURVE",
"490 871 OFFCURVE",
"493 871 CURVE SMOOTH",
"497 871 OFFCURVE",
"501 868 OFFCURVE",
"506 864 CURVE",
"580 785 LINE",
"599 803 LINE",
"516 910 LINE",
"485 910 LINE",
"358 803 LINE",
"370 785 LINE"
);
}
);
width = 710;
}
);
note = Hcircumflex;
unicode = 0124;
},
{
glyphname = Hdotbelow;
lastChange = "2015-10-21 17:44:04 +0000";
layers = (
{
layerId = "5C59C03B-63D5-4D42-95DD-0674E6EE1F81";
name = "Light Italic";
paths = (
{
closed = 1;
nodes = (
"646 0 LINE",
"649 18 LINE",
"622 18 LINE SMOOTH",
"589 18 OFFCURVE",
"571 25 OFFCURVE",
"571 44 CURVE SMOOTH",
"571 46 OFFCURVE",
"571 49 OFFCURVE",
"572 52 CURVE SMOOTH",
"693 647 LINE SMOOTH",
"698 672 OFFCURVE",
"720 681 OFFCURVE",
"757 681 CURVE SMOOTH",
"784 681 LINE",
"788 700 LINE",
"567 700 LINE",
"564 681 LINE",
"590 681 LINE SMOOTH",
"628 681 OFFCURVE",
"646 672 OFFCURVE",
"641 647 CURVE SMOOTH",
"520 52 LINE SMOOTH",
"515 27 OFFCURVE",
"492 18 OFFCURVE",
"455 18 CURVE SMOOTH",
"428 18 LINE",
"425 0 LINE"
);
},
{
closed = 1;
nodes = (
"309 -136 OFFCURVE",
"325 -122 OFFCURVE",
"329 -100 CURVE",
"330 -96 OFFCURVE",
"330 -93 OFFCURVE",
"330 -90 CURVE SMOOTH",
"330 -74 OFFCURVE",
"321 -64 OFFCURVE",
"303 -64 CURVE SMOOTH",
"284 -64 OFFCURVE",
"267 -78 OFFCURVE",
"262 -100 CURVE",
"261 -103 OFFCURVE",
"261 -106 OFFCURVE",
"261 -108 CURVE SMOOTH",
"261 -125 OFFCURVE",
"273 -136 OFFCURVE",
"289 -136 CURVE SMOOTH"
);
},
{
closed = 1;
nodes = (
"208 0 LINE",
"211 18 LINE",
"184 18 LINE SMOOTH",
"152 18 OFFCURVE",
"133 25 OFFCURVE",
"133 44 CURVE SMOOTH",
"133 46 OFFCURVE",
"133 49 OFFCURVE",
"134 52 CURVE SMOOTH",
"255 647 LINE SMOOTH",
"260 672 OFFCURVE",
"282 681 OFFCURVE",
"320 681 CURVE SMOOTH",
"347 681 LINE",
"350 700 LINE",
"130 700 LINE",
"126 681 LINE",
"153 681 LINE SMOOTH",
"190 681 OFFCURVE",
"208 672 OFFCURVE",
"204 647 CURVE SMOOTH",
"83 52 LINE SMOOTH",
"77 27 OFFCURVE",
"55 18 OFFCURVE",
"17 18 CURVE SMOOTH",
"-10 18 LINE",
"-12 0 LINE"
);
},
{
closed = 1;
nodes = (
"610 359 LINE",
"615 389 LINE",
"176 389 LINE",
"170 359 LINE"
);
}
);
width = 710;
}
);
note = Hdotbelow;
unicode = 1E24;
},
{
glyphname = I;
lastChange = "2015-10-21 17:44:03 +0000";
layers = (
{
layerId = "5C59C03B-63D5-4D42-95DD-0674E6EE1F81";
name = "Light Italic";
paths = (
{
closed = 1;
nodes = (
"211 0 LINE",
"214 18 LINE",
"187 18 LINE SMOOTH",
"155 18 OFFCURVE",
"136 25 OFFCURVE",
"136 44 CURVE SMOOTH",
"136 46 OFFCURVE",
"136 49 OFFCURVE",
"137 52 CURVE SMOOTH",
"258 647 LINE SMOOTH",
"263 672 OFFCURVE",
"285 681 OFFCURVE",
"323 681 CURVE SMOOTH",
"349 681 LINE",
"353 700 LINE",
"132 700 LINE",
"129 681 LINE",
"156 681 LINE SMOOTH",
"193 681 OFFCURVE",
"211 672 OFFCURVE",
"206 647 CURVE SMOOTH",
"85 52 LINE SMOOTH",
"80 27 OFFCURVE",
"58 18 OFFCURVE",
"20 18 CURVE SMOOTH",
"-7 18 LINE",
"-10 0 LINE"
);
}
);
width = 278;
}
);
note = I;
unicode = 0049;
},
{
glyphname = IJ;
lastChange = "2015-10-21 17:44:04 +0000";
layers = (
{
layerId = "5C59C03B-63D5-4D42-95DD-0674E6EE1F81";
name = "Light Italic";
paths = (
{
closed = 1;
nodes = (
"327 -114 OFFCURVE",
"410 -47 OFFCURVE",
"433 68 CURVE SMOOTH",
"551 647 LINE SMOOTH",
"556 672 OFFCURVE",
"578 681 OFFCURVE",
"615 681 CURVE SMOOTH",
"642 681 LINE",
"646 700 LINE",
"425 700 LINE",
"421 681 LINE",
"448 681 LINE SMOOTH",
"486 681 OFFCURVE",
"504 672 OFFCURVE",
"499 647 CURVE SMOOTH",
"381 68 LINE SMOOTH",
"362 -26 OFFCURVE",
"300 -85 OFFCURVE",
"225 -97 CURVE",
"225 -114 LINE"
);
},
{
closed = 1;
nodes = (
"211 0 LINE",
"214 18 LINE",
"187 18 LINE SMOOTH",
"155 18 OFFCURVE",
"136 25 OFFCURVE",
"136 44 CURVE SMOOTH",
"136 46 OFFCURVE",
"136 49 OFFCURVE",
"137 52 CURVE SMOOTH",
"258 647 LINE SMOOTH",
"263 672 OFFCURVE",
"285 681 OFFCURVE",
"323 681 CURVE SMOOTH",
"349 681 LINE",
"353 700 LINE",
"132 700 LINE",
"129 681 LINE",
"156 681 LINE SMOOTH",
"193 681 OFFCURVE",
"211 672 OFFCURVE",
"206 647 CURVE SMOOTH",
"85 52 LINE SMOOTH",
"80 27 OFFCURVE",
"58 18 OFFCURVE",
"20 18 CURVE SMOOTH",
"-7 18 LINE",
"-10 0 LINE"
);
}
);
width = 571;
}
);
note = IJ;
unicode = 0132;
},
{
glyphname = Iacute;
lastChange = "2015-10-21 17:44:03 +0000";
layers = (
{
layerId = "5C59C03B-63D5-4D42-95DD-0674E6EE1F81";
name = "Light Italic";
paths = (
{
closed = 1;
nodes = (
"211 0 LINE",
"214 18 LINE",
"187 18 LINE SMOOTH",
"155 18 OFFCURVE",
"136 25 OFFCURVE",
"136 44 CURVE SMOOTH",
"136 46 OFFCURVE",
"136 49 OFFCURVE",
"137 52 CURVE SMOOTH",
"258 647 LINE SMOOTH",
"263 672 OFFCURVE",
"285 681 OFFCURVE",
"323 681 CURVE SMOOTH",
"349 681 LINE",
"353 700 LINE",
"132 700 LINE",
"129 681 LINE",
"156 681 LINE SMOOTH",
"193 681 OFFCURVE",
"211 672 OFFCURVE",
"206 647 CURVE SMOOTH",
"85 52 LINE SMOOTH",
"80 27 OFFCURVE",
"58 18 OFFCURVE",
"20 18 CURVE SMOOTH",
"-7 18 LINE",
"-10 0 LINE"
);
},
{
closed = 1;
nodes = (
"335 861 LINE SMOOTH",
"351 870 OFFCURVE",
"362 883 OFFCURVE",
"362 895 CURVE SMOOTH",
"362 904 OFFCURVE",
"356 910 OFFCURVE",
"347 910 CURVE SMOOTH",
"334 910 OFFCURVE",
"321 901 OFFCURVE",
"312 894 CURVE",
"187 801 LINE",
"195 786 LINE"
);
}
);
width = 278;
}
);
note = Iacute;
unicode = 00CD;
},
{
glyphname = Ibreve;
lastChange = "2015-10-21 17:44:03 +0000";
layers = (
{
layerId = "5C59C03B-63D5-4D42-95DD-0674E6EE1F81";
name = "Light Italic";
paths = (
{
closed = 1;
nodes = (
"211 0 LINE",
"214 18 LINE",
"187 18 LINE SMOOTH",
"155 18 OFFCURVE",
"136 25 OFFCURVE",
"136 44 CURVE SMOOTH",
"136 46 OFFCURVE",
"136 49 OFFCURVE",
"137 52 CURVE SMOOTH",
"258 647 LINE SMOOTH",
"263 672 OFFCURVE",
"285 681 OFFCURVE",
"323 681 CURVE SMOOTH",
"349 681 LINE",
"353 700 LINE",
"132 700 LINE",
"129 681 LINE",
"156 681 LINE SMOOTH",
"193 681 OFFCURVE",
"211 672 OFFCURVE",
"206 647 CURVE SMOOTH",
"85 52 LINE SMOOTH",
"80 27 OFFCURVE",
"58 18 OFFCURVE",
"20 18 CURVE SMOOTH",
"-7 18 LINE",
"-10 0 LINE"
);
},
{
closed = 1;
nodes = (
"335 776 OFFCURVE",
"390 818 OFFCURVE",
"411 895 CURVE",
"384 895 LINE",
"361 822 OFFCURVE",
"309 808 OFFCURVE",
"264 808 CURVE SMOOTH",
"221 808 OFFCURVE",
"178 820 OFFCURVE",
"178 881 CURVE SMOOTH",
"178 886 OFFCURVE",
"179 890 OFFCURVE",
"179 895 CURVE",
"153 895 LINE",
"152 886 OFFCURVE",
"151 878 OFFCURVE",
"151 870 CURVE SMOOTH",
"151 808 OFFCURVE",
"189 776 OFFCURVE",
"258 776 CURVE SMOOTH"
);
}
);
width = 278;
}
);
note = Ibreve;
unicode = 012C;
},
{
glyphname = Icaron;
lastChange = "2015-10-21 17:44:02 +0000";
layers = (
{
layerId = "5C59C03B-63D5-4D42-95DD-0674E6EE1F81";
name = "Light Italic";
paths = (
{
closed = 1;
nodes = (
"211 0 LINE",
"214 18 LINE",
"187 18 LINE SMOOTH",
"155 18 OFFCURVE",
"136 25 OFFCURVE",
"136 44 CURVE SMOOTH",
"136 46 OFFCURVE",
"136 49 OFFCURVE",
"137 52 CURVE SMOOTH",
"258 647 LINE SMOOTH",
"263 672 OFFCURVE",
"285 681 OFFCURVE",
"323 681 CURVE SMOOTH",
"349 681 LINE",
"353 700 LINE",
"132 700 LINE",
"129 681 LINE",
"156 681 LINE SMOOTH",
"193 681 OFFCURVE",
"211 672 OFFCURVE",
"206 647 CURVE SMOOTH",
"85 52 LINE SMOOTH",
"80 27 OFFCURVE",
"58 18 OFFCURVE",
"20 18 CURVE SMOOTH",
"-7 18 LINE",
"-10 0 LINE"
);
},
{
closed = 1;
nodes = (
"275 785 LINE",
"401 892 LINE",
"390 910 LINE",
"283 831 LINE",
"276 827 OFFCURVE",
"272 824 OFFCURVE",
"268 824 CURVE SMOOTH",
"264 824 OFFCURVE",
"259 826 OFFCURVE",
"253 831 CURVE",
"180 910 LINE",
"160 892 LINE",
"243 785 LINE"
);
}
);
width = 279;
}
);
note = Icaron;
unicode = 01CF;
},
{
glyphname = Icircumflex;
lastChange = "2015-10-21 17:44:04 +0000";
layers = (
{
layerId = "5C59C03B-63D5-4D42-95DD-0674E6EE1F81";
name = "Light Italic";
paths = (
{
closed = 1;
nodes = (
"211 0 LINE",
"214 18 LINE",
"187 18 LINE SMOOTH",
"155 18 OFFCURVE",
"136 25 OFFCURVE",
"136 44 CURVE SMOOTH",
"136 46 OFFCURVE",
"136 49 OFFCURVE",
"137 52 CURVE SMOOTH",
"258 647 LINE SMOOTH",
"263 672 OFFCURVE",
"285 681 OFFCURVE",
"323 681 CURVE SMOOTH",
"349 681 LINE",
"353 700 LINE",
"132 700 LINE",
"129 681 LINE",
"156 681 LINE SMOOTH",
"193 681 OFFCURVE",
"211 672 OFFCURVE",
"206 647 CURVE SMOOTH",
"85 52 LINE SMOOTH",
"80 27 OFFCURVE",
"58 18 OFFCURVE",
"20 18 CURVE SMOOTH",
"-7 18 LINE",
"-10 0 LINE"
);
},
{
closed = 1;
nodes = (
"260 864 LINE",
"267 868 OFFCURVE",
"274 871 OFFCURVE",
"277 871 CURVE SMOOTH",
"281 871 OFFCURVE",
"285 868 OFFCURVE",
"290 864 CURVE",
"364 785 LINE",
"383 803 LINE",
"300 910 LINE",
"269 910 LINE",
"142 803 LINE",
"154 785 LINE"
);
}
);
width = 278;
}
);
note = Icircumflex;
unicode = 00CE;
},
{
glyphname = Idieresis;
lastChange = "2015-10-21 17:44:04 +0000";
layers = (
{
layerId = "5C59C03B-63D5-4D42-95DD-0674E6EE1F81";
name = "Light Italic";
paths = (
{
closed = 1;
nodes = (
"211 0 LINE",
"214 18 LINE",
"187 18 LINE SMOOTH",
"155 18 OFFCURVE",
"136 25 OFFCURVE",
"136 44 CURVE SMOOTH",
"136 46 OFFCURVE",
"136 49 OFFCURVE",
"137 52 CURVE SMOOTH",
"258 647 LINE SMOOTH",
"263 672 OFFCURVE",
"285 681 OFFCURVE",
"323 681 CURVE SMOOTH",
"349 681 LINE",
"353 700 LINE",
"132 700 LINE",
"129 681 LINE",
"156 681 LINE SMOOTH",
"193 681 OFFCURVE",
"211 672 OFFCURVE",
"206 647 CURVE SMOOTH",
"85 52 LINE SMOOTH",
"80 27 OFFCURVE",
"58 18 OFFCURVE",
"20 18 CURVE SMOOTH",
"-7 18 LINE",
"-10 0 LINE"
);
},
{
closed = 1;
nodes = (
"181 783 OFFCURVE",
"198 797 OFFCURVE",
"203 819 CURVE",
"204 822 OFFCURVE",
"204 825 OFFCURVE",
"204 828 CURVE SMOOTH",
"204 845 OFFCURVE",
"193 855 OFFCURVE",
"176 855 CURVE SMOOTH",
"156 855 OFFCURVE",
"140 841 OFFCURVE",
"136 819 CURVE",
"135 815 OFFCURVE",
"135 812 OFFCURVE",
"135 808 CURVE SMOOTH",
"135 793 OFFCURVE",
"145 783 OFFCURVE",
"161 783 CURVE SMOOTH"
);
},
{
closed = 1;
nodes = (
"376 783 OFFCURVE",
"393 797 OFFCURVE",
"397 819 CURVE",
"398 822 OFFCURVE",
"398 825 OFFCURVE",
"398 828 CURVE SMOOTH",
"398 845 OFFCURVE",
"388 855 OFFCURVE",
"371 855 CURVE SMOOTH",
"350 855 OFFCURVE",
"334 841 OFFCURVE",
"330 819 CURVE",
"329 815 OFFCURVE",
"329 812 OFFCURVE",
"329 809 CURVE SMOOTH",
"329 793 OFFCURVE",
"339 783 OFFCURVE",
"356 783 CURVE SMOOTH"
);
}
);
width = 278;
}
);
note = Idieresis;
unicode = 00CF;
},
{
glyphname = Idotaccent;
lastChange = "2015-10-21 17:44:03 +0000";
layers = (
{
layerId = "5C59C03B-63D5-4D42-95DD-0674E6EE1F81";
name = "Light Italic";
paths = (
{
closed = 1;
nodes = (
"211 0 LINE",
"214 18 LINE",
"187 18 LINE SMOOTH",
"155 18 OFFCURVE",
"136 25 OFFCURVE",
"136 44 CURVE SMOOTH",
"136 46 OFFCURVE",
"136 49 OFFCURVE",
"137 52 CURVE SMOOTH",
"258 647 LINE SMOOTH",
"263 672 OFFCURVE",
"285 681 OFFCURVE",
"323 681 CURVE SMOOTH",
"349 681 LINE",
"353 700 LINE",
"132 700 LINE",
"129 681 LINE",
"156 681 LINE SMOOTH",
"193 681 OFFCURVE",
"211 672 OFFCURVE",
"206 647 CURVE SMOOTH",
"85 52 LINE SMOOTH",
"80 27 OFFCURVE",
"58 18 OFFCURVE",
"20 18 CURVE SMOOTH",
"-7 18 LINE",
"-10 0 LINE"
);
},
{
closed = 1;
nodes = (
"274 761 OFFCURVE",
"290 774 OFFCURVE",
"295 796 CURVE",
"296 799 OFFCURVE",
"296 802 OFFCURVE",
"296 805 CURVE SMOOTH",
"296 822 OFFCURVE",
"285 832 OFFCURVE",
"269 832 CURVE SMOOTH",
"249 832 OFFCURVE",
"232 818 OFFCURVE",
"228 796 CURVE",
"228 792 OFFCURVE",
"228 789 OFFCURVE",
"228 786 CURVE SMOOTH",
"228 770 OFFCURVE",
"237 761 OFFCURVE",
"254 761 CURVE SMOOTH"
);
}
);
width = 278;
}
);
note = Idotaccent;
unicode = 0130;
},
{
glyphname = Idotbelow;
lastChange = "2015-10-21 17:44:02 +0000";
layers = (
{
layerId = "5C59C03B-63D5-4D42-95DD-0674E6EE1F81";
name = "Light Italic";
paths = (
{
closed = 1;
nodes = (
"211 0 LINE",
"214 18 LINE",
"187 18 LINE SMOOTH",
"155 18 OFFCURVE",
"136 25 OFFCURVE",
"136 44 CURVE SMOOTH",
"136 46 OFFCURVE",
"136 49 OFFCURVE",
"137 52 CURVE SMOOTH",
"258 647 LINE SMOOTH",
"263 672 OFFCURVE",
"285 681 OFFCURVE",
"323 681 CURVE SMOOTH",
"349 681 LINE",
"353 700 LINE",
"132 700 LINE",
"129 681 LINE",
"156 681 LINE SMOOTH",
"193 681 OFFCURVE",
"211 672 OFFCURVE",
"206 647 CURVE SMOOTH",
"85 52 LINE SMOOTH",
"80 27 OFFCURVE",
"58 18 OFFCURVE",
"20 18 CURVE SMOOTH",
"-7 18 LINE",
"-10 0 LINE"
);
},
{
closed = 1;
nodes = (
"93 -136 OFFCURVE",
"109 -122 OFFCURVE",
"113 -100 CURVE",
"114 -96 OFFCURVE",
"114 -93 OFFCURVE",
"114 -90 CURVE SMOOTH",
"114 -74 OFFCURVE",
"105 -64 OFFCURVE",
"87 -64 CURVE SMOOTH",
"68 -64 OFFCURVE",
"51 -78 OFFCURVE",
"46 -100 CURVE",
"45 -103 OFFCURVE",
"45 -106 OFFCURVE",
"45 -108 CURVE SMOOTH",
"45 -125 OFFCURVE",
"57 -136 OFFCURVE",
"73 -136 CURVE SMOOTH"
);
}
);
width = 279;
}
);
note = Idotbelow;
unicode = 1ECA;
},
{
glyphname = Igrave;
lastChange = "2015-10-21 17:44:02 +0000";
layers = (
{
layerId = "5C59C03B-63D5-4D42-95DD-0674E6EE1F81";
name = "Light Italic";
paths = (
{
closed = 1;
nodes = (
"211 0 LINE",
"214 18 LINE",
"187 18 LINE SMOOTH",
"155 18 OFFCURVE",
"136 25 OFFCURVE",
"136 44 CURVE SMOOTH",
"136 46 OFFCURVE",
"136 49 OFFCURVE",
"137 52 CURVE SMOOTH",
"258 647 LINE SMOOTH",
"263 672 OFFCURVE",
"285 681 OFFCURVE",
"323 681 CURVE SMOOTH",
"349 681 LINE",
"353 700 LINE",
"132 700 LINE",
"129 681 LINE",
"156 681 LINE SMOOTH",
"193 681 OFFCURVE",
"211 672 OFFCURVE",
"206 647 CURVE SMOOTH",
"85 52 LINE SMOOTH",
"80 27 OFFCURVE",
"58 18 OFFCURVE",
"20 18 CURVE SMOOTH",
"-7 18 LINE",
"-10 0 LINE"
);
},
{
closed = 1;
nodes = (
"342 801 LINE",
"255 894 LINE SMOOTH",
"248 902 OFFCURVE",
"239 910 OFFCURVE",
"228 910 CURVE SMOOTH",
"217 910 OFFCURVE",
"204 901 OFFCURVE",
"204 885 CURVE SMOOTH",
"204 876 OFFCURVE",
"210 867 OFFCURVE",
"219 861 CURVE SMOOTH",
"328 786 LINE"
);
}
);
width = 278;
}
);
note = Igrave;
unicode = 00CC;
},
{
glyphname = Ihookabove;
lastChange = "2015-10-21 17:44:02 +0000";
layers = (
{
layerId = "5C59C03B-63D5-4D42-95DD-0674E6EE1F81";
name = "Light Italic";
paths = (
{
closed = 1;
nodes = (
"211 0 LINE",
"214 18 LINE",
"187 18 LINE SMOOTH",
"155 18 OFFCURVE",
"136 25 OFFCURVE",
"136 44 CURVE SMOOTH",
"136 46 OFFCURVE",
"136 49 OFFCURVE",
"137 52 CURVE SMOOTH",
"258 647 LINE SMOOTH",
"263 672 OFFCURVE",
"285 681 OFFCURVE",
"323 681 CURVE SMOOTH",
"349 681 LINE",
"353 700 LINE",
"132 700 LINE",
"129 681 LINE",
"156 681 LINE SMOOTH",
"193 681 OFFCURVE",
"211 672 OFFCURVE",
"206 647 CURVE SMOOTH",
"85 52 LINE SMOOTH",
"80 27 OFFCURVE",
"58 18 OFFCURVE",
"20 18 CURVE SMOOTH",
"-7 18 LINE",
"-10 0 LINE"
);
},
{
closed = 1;
nodes = (
"299 795 LINE",
"285 799 OFFCURVE",
"276 803 OFFCURVE",
"276 815 CURVE SMOOTH",
"276 817 OFFCURVE",
"276 820 OFFCURVE",
"277 823 CURVE SMOOTH",
"283 854 OFFCURVE",
"364 871 OFFCURVE",
"373 918 CURVE SMOOTH",
"374 922 OFFCURVE",
"374 926 OFFCURVE",
"374 930 CURVE SMOOTH",
"374 960 OFFCURVE",
"348 974 OFFCURVE",
"312 974 CURVE SMOOTH",
"267 974 OFFCURVE",
"228 954 OFFCURVE",
"228 921 CURVE SMOOTH",
"228 912 OFFCURVE",
"233 908 OFFCURVE",
"242 908 CURVE SMOOTH",
"256 908 OFFCURVE",
"260 917 OFFCURVE",
"268 931 CURVE SMOOTH",
"276 946 OFFCURVE",
"293 951 OFFCURVE",
"308 951 CURVE SMOOTH",
"329 951 OFFCURVE",
"337 941 OFFCURVE",
"337 929 CURVE SMOOTH",
"337 926 OFFCURVE",
"337 924 OFFCURVE",
"336 921 CURVE",
"327 878 OFFCURVE",
"252 866 OFFCURVE",
"243 823 CURVE SMOOTH",
"242 819 OFFCURVE",
"242 816 OFFCURVE",
"242 812 CURVE SMOOTH",
"242 793 OFFCURVE",
"256 778 OFFCURVE",
"287 778 CURVE"
);
}
);
width = 279;
}
);
note = Ihookabove;
unicode = 1EC8;
},
{
glyphname = Imacron;
lastChange = "2015-10-21 17:44:03 +0000";
layers = (
{
layerId = "5C59C03B-63D5-4D42-95DD-0674E6EE1F81";
name = "Light Italic";
paths = (
{
closed = 1;
nodes = (
"211 0 LINE",
"214 18 LINE",
"187 18 LINE SMOOTH",
"155 18 OFFCURVE",
"136 25 OFFCURVE",
"136 44 CURVE SMOOTH",
"136 46 OFFCURVE",
"136 49 OFFCURVE",
"137 52 CURVE SMOOTH",
"258 647 LINE SMOOTH",
"263 672 OFFCURVE",
"285 681 OFFCURVE",
"323 681 CURVE SMOOTH",
"349 681 LINE",
"353 700 LINE",
"132 700 LINE",
"129 681 LINE",
"156 681 LINE SMOOTH",
"193 681 OFFCURVE",
"211 672 OFFCURVE",
"206 647 CURVE SMOOTH",
"85 52 LINE SMOOTH",
"80 27 OFFCURVE",
"58 18 OFFCURVE",
"20 18 CURVE SMOOTH",
"-7 18 LINE",
"-10 0 LINE"
);
},
{
closed = 1;
nodes = (
"429 786 LINE",
"436 816 LINE",
"99 816 LINE",
"92 786 LINE"
);
}
);
width = 278;
}
);
note = Imacron;
unicode = 012A;
},
{
glyphname = Iogonek;
lastChange = "2015-10-21 17:44:04 +0000";
layers = (
{
layerId = "5C59C03B-63D5-4D42-95DD-0674E6EE1F81";
name = "Light Italic";
paths = (
{
closed = 1;
nodes = (
"211 0 LINE",
"214 18 LINE",
"187 18 LINE SMOOTH",
"155 18 OFFCURVE",
"136 25 OFFCURVE",
"136 44 CURVE SMOOTH",
"136 46 OFFCURVE",
"136 49 OFFCURVE",
"137 52 CURVE SMOOTH",
"258 647 LINE SMOOTH",
"263 672 OFFCURVE",
"285 681 OFFCURVE",
"323 681 CURVE SMOOTH",
"349 681 LINE",
"353 700 LINE",
"132 700 LINE",
"129 681 LINE",
"156 681 LINE SMOOTH",
"193 681 OFFCURVE",
"211 672 OFFCURVE",
"206 647 CURVE SMOOTH",
"85 52 LINE SMOOTH",
"80 27 OFFCURVE",
"58 18 OFFCURVE",
"20 18 CURVE SMOOTH",
"-7 18 LINE",
"-10 0 LINE"
);
},
{
closed = 1;
nodes = (
"132 -176 OFFCURVE",
"150 -172 OFFCURVE",
"174 -162 CURVE",
"176 -145 LINE",
"159 -150 OFFCURVE",
"145 -153 OFFCURVE",
"132 -153 CURVE SMOOTH",
"106 -153 OFFCURVE",
"84 -142 OFFCURVE",
"84 -114 CURVE SMOOTH",
"84 -110 OFFCURVE",
"84 -105 OFFCURVE",
"85 -100 CURVE SMOOTH",
"94 -60 OFFCURVE",
"130 -22 OFFCURVE",
"174 1 CURVE",
"145 1 LINE",
"95 -21 OFFCURVE",
"57 -58 OFFCURVE",
"47 -104 CURVE SMOOTH",
"46 -109 OFFCURVE",
"45 -114 OFFCURVE",
"45 -119 CURVE SMOOTH",
"45 -147 OFFCURVE",
"60 -176 OFFCURVE",
"110 -176 CURVE SMOOTH"
);
}
);
width = 278;
}
);
note = Iogonek;
unicode = 012E;
},
{
glyphname = Itilde;
lastChange = "2015-10-21 17:44:02 +0000";
layers = (
{
layerId = "5C59C03B-63D5-4D42-95DD-0674E6EE1F81";
name = "Light Italic";
paths = (
{
closed = 1;
nodes = (
"211 0 LINE",
"214 18 LINE",
"187 18 LINE SMOOTH",
"155 18 OFFCURVE",
"136 25 OFFCURVE",
"136 44 CURVE SMOOTH",
"136 46 OFFCURVE",
"136 49 OFFCURVE",
"137 52 CURVE SMOOTH",
"258 647 LINE SMOOTH",
"263 672 OFFCURVE",
"285 681 OFFCURVE",
"323 681 CURVE SMOOTH",
"349 681 LINE",
"353 700 LINE",
"132 700 LINE",
"129 681 LINE",
"156 681 LINE SMOOTH",
"193 681 OFFCURVE",
"211 672 OFFCURVE",
"206 647 CURVE SMOOTH",
"85 52 LINE SMOOTH",
"80 27 OFFCURVE",
"58 18 OFFCURVE",
"20 18 CURVE SMOOTH",
"-7 18 LINE",
"-10 0 LINE"
);
},
{
closed = 1;
nodes = (
"152 822 OFFCURVE",
"175 845 OFFCURVE",
"204 845 CURVE SMOOTH",
"246 845 OFFCURVE",
"278 787 OFFCURVE",
"323 787 CURVE SMOOTH",
"367 787 OFFCURVE",
"400 821 OFFCURVE",
"420 875 CURVE",
"406 884 LINE",
"387 844 OFFCURVE",
"367 819 OFFCURVE",
"335 819 CURVE SMOOTH",
"295 819 OFFCURVE",
"259 876 OFFCURVE",
"215 876 CURVE SMOOTH",
"175 876 OFFCURVE",
"139 847 OFFCURVE",
"119 793 CURVE",
"133 784 LINE"
);
}
);
width = 278;
}
);
note = Itilde;
unicode = 0128;
},
{
glyphname = J;
lastChange = "2015-10-21 17:47:16 +0000";
layers = (
{
layerId = "5C59C03B-63D5-4D42-95DD-0674E6EE1F81";
name = "Light Italic";
paths = (
{
closed = 1;
nodes = (
"71 -114 OFFCURVE",
"154 -47 OFFCURVE",
"177 68 CURVE SMOOTH",
"295 647 LINE SMOOTH",
"300 672 OFFCURVE",
"322 681 OFFCURVE",
"359 681 CURVE SMOOTH",
"386 681 LINE",
"390 700 LINE",
"169 700 LINE",
"165 681 LINE",
"192 681 LINE SMOOTH",
"229 681 OFFCURVE",
"248 672 OFFCURVE",
"243 647 CURVE SMOOTH",
"125 68 LINE SMOOTH",
"106 -26 OFFCURVE",
"44 -85 OFFCURVE",
"-32 -97 CURVE",
"-32 -114 LINE"
);
}
);
width = 315;
}
);
note = J;
unicode = 004A;
},
{
glyphname = Jcircumflex;
lastChange = "2015-10-21 17:44:02 +0000";
layers = (
{
layerId = "5C59C03B-63D5-4D42-95DD-0674E6EE1F81";
name = "Light Italic";
paths = (
{
closed = 1;
nodes = (
"71 -114 OFFCURVE",
"154 -47 OFFCURVE",
"177 68 CURVE SMOOTH",
"295 647 LINE SMOOTH",
"300 672 OFFCURVE",
"322 681 OFFCURVE",
"359 681 CURVE SMOOTH",
"386 681 LINE",
"390 700 LINE",
"169 700 LINE",
"165 681 LINE",
"192 681 LINE SMOOTH",
"229 681 OFFCURVE",
"248 672 OFFCURVE",
"243 647 CURVE SMOOTH",
"125 68 LINE SMOOTH",
"106 -26 OFFCURVE",
"44 -85 OFFCURVE",
"-32 -97 CURVE",
"-32 -114 LINE"
);
},
{
closed = 1;
nodes = (
"297 864 LINE",
"303 868 OFFCURVE",
"310 871 OFFCURVE",
"314 871 CURVE SMOOTH",
"318 871 OFFCURVE",
"322 868 OFFCURVE",
"326 864 CURVE",
"400 785 LINE",
"420 803 LINE",
"337 910 LINE",
"305 910 LINE",
"179 803 LINE",
"190 785 LINE"
);
}
);
width = 315;
}
);
note = Jcircumflex;
unicode = 0134;
},
{
glyphname = K;
lastChange = "2015-10-21 17:44:03 +0000";
layers = (
{
layerId = "5C59C03B-63D5-4D42-95DD-0674E6EE1F81";
name = "Light Italic";
paths = (
{
closed = 1;
nodes = (
"208 0 LINE",
"211 18 LINE",
"184 18 LINE SMOOTH",
"152 18 OFFCURVE",
"133 25 OFFCURVE",
"133 44 CURVE SMOOTH",
"133 46 OFFCURVE",
"133 49 OFFCURVE",
"134 52 CURVE SMOOTH",
"255 647 LINE SMOOTH",
"260 672 OFFCURVE",
"282 681 OFFCURVE",
"320 681 CURVE SMOOTH",
"347 681 LINE",
"350 700 LINE",
"130 700 LINE",
"126 681 LINE",
"153 681 LINE SMOOTH",
"190 681 OFFCURVE",
"208 672 OFFCURVE",
"204 647 CURVE SMOOTH",
"83 52 LINE SMOOTH",
"77 27 OFFCURVE",
"55 18 OFFCURVE",
"17 18 CURVE SMOOTH",
"-10 18 LINE",
"-12 0 LINE"
);
},
{
closed = 1;
nodes = (
"565 0 LINE",
"568 18 LINE",
"540 18 LINE SMOOTH",
"507 18 OFFCURVE",
"495 35 OFFCURVE",
"483 52 CURVE SMOOTH",
"236 376 LINE",
"195 342 LINE",
"454 0 LINE"
);
},
{
closed = 1;
nodes = (
"600 655 LINE",
"616 669 OFFCURVE",
"632 681 OFFCURVE",
"662 681 CURVE SMOOTH",
"678 681 LINE",
"682 700 LINE",
"511 700 LINE",
"507 681 LINE",
"521 681 LINE SMOOTH",
"546 681 OFFCURVE",
"559 676 OFFCURVE",
"556 662 CURVE",
"556 659 OFFCURVE",
"553 655 OFFCURVE",
"548 650 CURVE",
"204 386 LINE",
"195 340 LINE"
);
}
);
width = 620;
}
);
note = K;
rightKerningGroup = K;
unicode = 004B;
},
{
glyphname = Kcommaaccent;
lastChange = "2015-10-21 17:44:03 +0000";
layers = (
{
layerId = "5C59C03B-63D5-4D42-95DD-0674E6EE1F81";
name = "Light Italic";
paths = (
{
closed = 1;
nodes = (
"208 0 LINE",
"211 18 LINE",
"184 18 LINE SMOOTH",
"152 18 OFFCURVE",
"133 25 OFFCURVE",
"133 44 CURVE SMOOTH",
"133 46 OFFCURVE",
"133 49 OFFCURVE",
"134 52 CURVE SMOOTH",
"255 647 LINE SMOOTH",
"260 672 OFFCURVE",
"282 681 OFFCURVE",
"320 681 CURVE SMOOTH",
"347 681 LINE",
"350 700 LINE",
"130 700 LINE",
"126 681 LINE",
"153 681 LINE SMOOTH",
"190 681 OFFCURVE",
"208 672 OFFCURVE",
"204 647 CURVE SMOOTH",
"83 52 LINE SMOOTH",
"77 27 OFFCURVE",
"55 18 OFFCURVE",
"17 18 CURVE SMOOTH",
"-10 18 LINE",
"-12 0 LINE"
);
},
{
closed = 1;
nodes = (
"266 -216 OFFCURVE",
"302 -166 OFFCURVE",
"313 -113 CURVE SMOOTH",
"315 -105 OFFCURVE",
"316 -99 OFFCURVE",
"316 -93 CURVE SMOOTH",
"316 -70 OFFCURVE",
"302 -63 OFFCURVE",
"288 -63 CURVE SMOOTH",
"266 -63 OFFCURVE",
"249 -80 OFFCURVE",
"249 -104 CURVE SMOOTH",
"249 -124 OFFCURVE",
"267 -129 OFFCURVE",
"267 -151 CURVE SMOOTH",
"267 -153 OFFCURVE",
"267 -156 OFFCURVE",
"266 -159 CURVE SMOOTH",
"259 -191 OFFCURVE",
"228 -220 OFFCURVE",
"202 -242 CURVE",
"209 -255 LINE"
);
},
{
closed = 1;
nodes = (
"565 0 LINE",
"568 18 LINE",
"540 18 LINE SMOOTH",
"507 18 OFFCURVE",
"495 35 OFFCURVE",
"483 52 CURVE SMOOTH",
"236 376 LINE",
"195 342 LINE",
"454 0 LINE"
);
},
{
closed = 1;
nodes = (
"600 655 LINE",
"616 669 OFFCURVE",
"632 681 OFFCURVE",
"662 681 CURVE SMOOTH",
"678 681 LINE",
"682 700 LINE",
"511 700 LINE",
"507 681 LINE",
"521 681 LINE SMOOTH",
"546 681 OFFCURVE",
"559 676 OFFCURVE",
"556 662 CURVE",
"556 659 OFFCURVE",
"553 655 OFFCURVE",
"548 650 CURVE",
"204 386 LINE",
"195 340 LINE"
);
}
);
width = 620;
}
);
note = Kcommaaccent;
rightKerningGroup = K;
unicode = 0136;
},
{
glyphname = L;
lastChange = "2015-10-21 17:44:02 +0000";
layers = (
{
layerId = "5C59C03B-63D5-4D42-95DD-0674E6EE1F81";
name = "Light Italic";
paths = (
{
closed = 1;
nodes = (
"455 0 LINE",
"504 172 LINE",
"487 172 LINE",
"474 130 OFFCURVE",
"436 29 OFFCURVE",
"379 29 CURVE SMOOTH",
"188 29 LINE SMOOTH",
"152 29 OFFCURVE",
"132 39 OFFCURVE",
"137 65 CURVE SMOOTH",
"256 647 LINE SMOOTH",
"261 672 OFFCURVE",
"283 681 OFFCURVE",
"321 681 CURVE SMOOTH",
"347 681 LINE",
"350 700 LINE",
"131 700 LINE",
"127 681 LINE",
"153 681 LINE SMOOTH",
"190 681 OFFCURVE",
"209 672 OFFCURVE",
"204 647 CURVE SMOOTH",
"84 52 LINE SMOOTH",
"78 27 OFFCURVE",
"55 18 OFFCURVE",
"17 18 CURVE SMOOTH",
"-9 18 LINE",
"-12 0 LINE"
);
}
);
width = 527;
}
);
note = L;
rightKerningGroup = L;
unicode = 004C;
},
{
glyphname = Lacute;
lastChange = "2015-10-21 17:44:04 +0000";
layers = (
{
layerId = "5C59C03B-63D5-4D42-95DD-0674E6EE1F81";
name = "Light Italic";
paths = (
{
closed = 1;
nodes = (
"455 0 LINE",
"504 172 LINE",
"487 172 LINE",
"474 130 OFFCURVE",
"436 29 OFFCURVE",
"379 29 CURVE SMOOTH",
"188 29 LINE SMOOTH",
"152 29 OFFCURVE",
"132 39 OFFCURVE",
"137 65 CURVE SMOOTH",
"256 647 LINE SMOOTH",
"261 672 OFFCURVE",
"283 681 OFFCURVE",
"321 681 CURVE SMOOTH",
"347 681 LINE",
"350 700 LINE",
"131 700 LINE",
"127 681 LINE",
"153 681 LINE SMOOTH",
"190 681 OFFCURVE",
"209 672 OFFCURVE",
"204 647 CURVE SMOOTH",
"84 52 LINE SMOOTH",
"78 27 OFFCURVE",
"55 18 OFFCURVE",
"17 18 CURVE SMOOTH",
"-9 18 LINE",
"-12 0 LINE"
);
},
{
closed = 1;
nodes = (
"389 861 LINE SMOOTH",
"405 870 OFFCURVE",
"416 883 OFFCURVE",
"416 895 CURVE SMOOTH",
"416 904 OFFCURVE",
"410 910 OFFCURVE",
"400 910 CURVE SMOOTH",
"388 910 OFFCURVE",
"374 901 OFFCURVE",
"366 894 CURVE",
"241 801 LINE",
"249 786 LINE"
);
}
);
width = 527;
}
);
note = Lacute;
rightKerningGroup = L;
unicode = 0139;
},
{
glyphname = Lcaron;
lastChange = "2015-10-21 17:44:03 +0000";
layers = (
{
layerId = "5C59C03B-63D5-4D42-95DD-0674E6EE1F81";
name = "Light Italic";
paths = (
{
closed = 1;
nodes = (
"455 0 LINE",
"504 172 LINE",
"487 172 LINE",
"474 130 OFFCURVE",
"436 29 OFFCURVE",
"379 29 CURVE SMOOTH",
"188 29 LINE SMOOTH",
"152 29 OFFCURVE",
"132 39 OFFCURVE",
"137 65 CURVE SMOOTH",
"256 647 LINE SMOOTH",
"261 672 OFFCURVE",
"283 681 OFFCURVE",
"321 681 CURVE SMOOTH",
"347 681 LINE",
"350 700 LINE",
"131 700 LINE",
"127 681 LINE",
"153 681 LINE SMOOTH",
"190 681 OFFCURVE",
"209 672 OFFCURVE",
"204 647 CURVE SMOOTH",
"84 52 LINE SMOOTH",
"78 27 OFFCURVE",
"55 18 OFFCURVE",
"17 18 CURVE SMOOTH",
"-9 18 LINE",
"-12 0 LINE"
);
},
{
closed = 1;
nodes = (
"454 553 OFFCURVE",
"492 603 OFFCURVE",
"502 656 CURVE SMOOTH",
"503 663 OFFCURVE",
"504 669 OFFCURVE",
"504 674 CURVE SMOOTH",
"504 698 OFFCURVE",
"492 705 OFFCURVE",
"476 705 CURVE SMOOTH",
"454 705 OFFCURVE",
"438 688 OFFCURVE",
"438 664 CURVE SMOOTH",
"438 645 OFFCURVE",
"455 639 OFFCURVE",
"455 619 CURVE SMOOTH",
"455 616 OFFCURVE",
"455 613 OFFCURVE",
"454 610 CURVE SMOOTH",
"447 578 OFFCURVE",
"417 548 OFFCURVE",
"390 526 CURVE",
"398 514 LINE"
);
}
);
width = 527;
}
);
note = Lcaron;
rightKerningGroup = L;
unicode = 013D;
},
{
glyphname = Lcommaaccent;
lastChange = "2015-10-21 17:44:02 +0000";
layers = (
{
layerId = "5C59C03B-63D5-4D42-95DD-0674E6EE1F81";
name = "Light Italic";
paths = (
{
closed = 1;
nodes = (
"455 0 LINE",
"504 172 LINE",
"487 172 LINE",
"474 130 OFFCURVE",
"436 29 OFFCURVE",
"379 29 CURVE SMOOTH",
"188 29 LINE SMOOTH",
"152 29 OFFCURVE",
"132 39 OFFCURVE",
"137 65 CURVE SMOOTH",
"256 647 LINE SMOOTH",
"261 672 OFFCURVE",
"283 681 OFFCURVE",
"321 681 CURVE SMOOTH",
"347 681 LINE",
"350 700 LINE",
"131 700 LINE",
"127 681 LINE",
"153 681 LINE SMOOTH",
"190 681 OFFCURVE",
"209 672 OFFCURVE",
"204 647 CURVE SMOOTH",
"84 52 LINE SMOOTH",
"78 27 OFFCURVE",
"55 18 OFFCURVE",
"17 18 CURVE SMOOTH",
"-9 18 LINE",
"-12 0 LINE"
);
},
{
closed = 1;
nodes = (
"193 -216 OFFCURVE",
"229 -166 OFFCURVE",
"240 -113 CURVE SMOOTH",
"242 -105 OFFCURVE",
"243 -99 OFFCURVE",
"243 -93 CURVE SMOOTH",
"243 -70 OFFCURVE",
"229 -63 OFFCURVE",
"215 -63 CURVE SMOOTH",
"193 -63 OFFCURVE",
"176 -80 OFFCURVE",
"176 -104 CURVE SMOOTH",
"176 -124 OFFCURVE",
"194 -129 OFFCURVE",
"194 -151 CURVE SMOOTH",
"194 -153 OFFCURVE",
"194 -156 OFFCURVE",
"193 -159 CURVE SMOOTH",
"186 -191 OFFCURVE",
"156 -220 OFFCURVE",
"129 -242 CURVE",
"136 -255 LINE"
);
}
);
width = 527;
}
);
note = Lcommaaccent;
rightKerningGroup = L;
unicode = 013B;
},
{
glyphname = Ldot;
lastChange = "2015-10-21 17:44:03 +0000";
layers = (
{
layerId = "5C59C03B-63D5-4D42-95DD-0674E6EE1F81";
name = "Light Italic";
paths = (
{
closed = 1;
nodes = (
"455 0 LINE",
"504 172 LINE",
"487 172 LINE",
"474 130 OFFCURVE",
"436 29 OFFCURVE",
"379 29 CURVE SMOOTH",
"188 29 LINE SMOOTH",
"152 29 OFFCURVE",
"132 39 OFFCURVE",
"137 65 CURVE SMOOTH",
"256 647 LINE SMOOTH",
"261 672 OFFCURVE",
"283 681 OFFCURVE",
"321 681 CURVE SMOOTH",
"347 681 LINE",
"350 700 LINE",
"131 700 LINE",
"127 681 LINE",
"153 681 LINE SMOOTH",
"190 681 OFFCURVE",
"209 672 OFFCURVE",
"204 647 CURVE SMOOTH",
"84 52 LINE SMOOTH",
"78 27 OFFCURVE",
"55 18 OFFCURVE",
"17 18 CURVE SMOOTH",
"-9 18 LINE",
"-12 0 LINE"
);
},
{
closed = 1;
nodes = (
"372 310 OFFCURVE",
"391 328 OFFCURVE",
"391 355 CURVE SMOOTH",
"391 371 OFFCURVE",
"380 381 OFFCURVE",
"363 381 CURVE SMOOTH",
"341 381 OFFCURVE",
"323 362 OFFCURVE",
"323 336 CURVE SMOOTH",
"323 320 OFFCURVE",
"332 310 OFFCURVE",
"348 310 CURVE SMOOTH"
);
}
);
width = 527;
}
);
note = Ldot;
rightKerningGroup = L;
unicode = 013F;
},
{
glyphname = Ldotbelow;
lastChange = "2015-10-21 17:44:04 +0000";
layers = (
{
layerId = "5C59C03B-63D5-4D42-95DD-0674E6EE1F81";
name = "Light Italic";
paths = (
{
closed = 1;
nodes = (
"455 0 LINE",
"504 172 LINE",
"487 172 LINE",
"474 130 OFFCURVE",
"436 29 OFFCURVE",
"379 29 CURVE SMOOTH",
"188 29 LINE SMOOTH",
"152 29 OFFCURVE",
"132 39 OFFCURVE",
"137 65 CURVE SMOOTH",
"256 647 LINE SMOOTH",
"261 672 OFFCURVE",
"283 681 OFFCURVE",
"321 681 CURVE SMOOTH",
"347 681 LINE",
"350 700 LINE",
"131 700 LINE",
"127 681 LINE",
"153 681 LINE SMOOTH",
"190 681 OFFCURVE",
"209 672 OFFCURVE",
"204 647 CURVE SMOOTH",
"84 52 LINE SMOOTH",
"78 27 OFFCURVE",
"55 18 OFFCURVE",
"17 18 CURVE SMOOTH",
"-9 18 LINE",
"-12 0 LINE"
);
},
{
closed = 1;
nodes = (
"253 -128 OFFCURVE",
"273 -110 OFFCURVE",
"273 -82 CURVE SMOOTH",
"273 -66 OFFCURVE",
"263 -56 OFFCURVE",
"246 -56 CURVE SMOOTH",
"224 -56 OFFCURVE",
"204 -74 OFFCURVE",
"204 -102 CURVE SMOOTH",
"204 -118 OFFCURVE",
"214 -128 OFFCURVE",
"230 -128 CURVE SMOOTH"
);
}
);
width = 527;
}
);
note = Ldotbelow;
rightKerningGroup = L;
unicode = 1E36;
},
{
glyphname = Ldotbelowmacron;
lastChange = "2015-10-21 17:44:04 +0000";
layers = (
{
layerId = "5C59C03B-63D5-4D42-95DD-0674E6EE1F81";
name = "Light Italic";
paths = (
{
closed = 1;
nodes = (
"455 0 LINE",
"504 172 LINE",
"487 172 LINE",
"474 130 OFFCURVE",
"436 29 OFFCURVE",
"379 29 CURVE SMOOTH",
"188 29 LINE SMOOTH",
"152 29 OFFCURVE",
"132 39 OFFCURVE",
"137 65 CURVE SMOOTH",
"256 647 LINE SMOOTH",
"261 672 OFFCURVE",
"283 681 OFFCURVE",
"321 681 CURVE SMOOTH",
"347 681 LINE",
"350 700 LINE",
"131 700 LINE",
"127 681 LINE",
"153 681 LINE SMOOTH",
"190 681 OFFCURVE",
"209 672 OFFCURVE",
"204 647 CURVE SMOOTH",
"84 52 LINE SMOOTH",
"78 27 OFFCURVE",
"55 18 OFFCURVE",
"17 18 CURVE SMOOTH",
"-9 18 LINE",
"-12 0 LINE"
);
},
{
closed = 1;
nodes = (
"253 -128 OFFCURVE",
"273 -110 OFFCURVE",
"273 -82 CURVE SMOOTH",
"273 -66 OFFCURVE",
"263 -56 OFFCURVE",
"246 -56 CURVE SMOOTH",
"224 -56 OFFCURVE",
"204 -74 OFFCURVE",
"204 -102 CURVE SMOOTH",
"204 -118 OFFCURVE",
"214 -128 OFFCURVE",
"230 -128 CURVE SMOOTH"
);
},
{
closed = 1;
nodes = (
"415 783 LINE",
"420 812 LINE",
"138 812 LINE",
"132 783 LINE"
);
}
);
width = 527;
}
);
note = Ldotbelowmacron;
rightKerningGroup = L;
unicode = 1E38;
},
{
glyphname = Llinebelow;
lastChange = "2015-10-21 17:44:03 +0000";
layers = (
{
layerId = "5C59C03B-63D5-4D42-95DD-0674E6EE1F81";
name = "Light Italic";
paths = (
{
closed = 1;
nodes = (
"455 0 LINE",
"504 172 LINE",
"487 172 LINE",
"474 130 OFFCURVE",
"436 29 OFFCURVE",
"379 29 CURVE SMOOTH",
"188 29 LINE SMOOTH",
"152 29 OFFCURVE",
"132 39 OFFCURVE",
"137 65 CURVE SMOOTH",
"256 647 LINE SMOOTH",
"261 672 OFFCURVE",
"283 681 OFFCURVE",
"321 681 CURVE SMOOTH",
"347 681 LINE",
"350 700 LINE",
"131 700 LINE",
"127 681 LINE",
"153 681 LINE SMOOTH",
"190 681 OFFCURVE",
"209 672 OFFCURVE",
"204 647 CURVE SMOOTH",
"84 52 LINE SMOOTH",
"78 27 OFFCURVE",
"55 18 OFFCURVE",
"17 18 CURVE SMOOTH",
"-9 18 LINE",
"-12 0 LINE"
);
},
{
closed = 1;
nodes = (
"350 -102 LINE",
"356 -75 LINE",
"76 -75 LINE",
"70 -102 LINE"
);
}
);
width = 527;
}
);
note = Llinebelow;
rightKerningGroup = L;
unicode = 1E3A;
},
{
glyphname = Lslash;
lastChange = "2015-10-21 17:44:04 +0000";
layers = (
{
layerId = "5C59C03B-63D5-4D42-95DD-0674E6EE1F81";
name = "Light Italic";
paths = (
{
closed = 1;
nodes = (
"455 0 LINE",
"504 172 LINE",
"487 172 LINE",
"474 130 OFFCURVE",
"436 29 OFFCURVE",
"379 29 CURVE SMOOTH",
"188 29 LINE SMOOTH",
"152 29 OFFCURVE",
"132 39 OFFCURVE",
"137 65 CURVE SMOOTH",
"256 647 LINE SMOOTH",
"261 672 OFFCURVE",
"283 681 OFFCURVE",
"321 681 CURVE SMOOTH",
"347 681 LINE",
"350 700 LINE",
"131 700 LINE",
"127 681 LINE",
"153 681 LINE SMOOTH",
"190 681 OFFCURVE",
"209 672 OFFCURVE",
"204 647 CURVE SMOOTH",
"84 52 LINE SMOOTH",
"78 27 OFFCURVE",
"55 18 OFFCURVE",
"17 18 CURVE SMOOTH",
"-9 18 LINE",
"-12 0 LINE"
);
},
{
closed = 1;
nodes = (
"412 385 LINE",
"420 421 LINE",
"49 290 LINE",
"41 254 LINE"
);
}
);
width = 527;
}
);
note = Lslash;
rightKerningGroup = L;
unicode = 0141;
},
{
glyphname = M;
lastChange = "2015-10-21 17:44:04 +0000";
layers = (
{
layerId = "5C59C03B-63D5-4D42-95DD-0674E6EE1F81";
name = "Light Italic";
paths = (
{
closed = 1;
nodes = (
"193 0 LINE",
"196 18 LINE",
"169 18 LINE SMOOTH",
"136 18 OFFCURVE",
"118 25 OFFCURVE",
"118 44 CURVE SMOOTH",
"118 46 OFFCURVE",
"118 49 OFFCURVE",
"119 52 CURVE SMOOTH",
"239 642 LINE",
"368 78 LINE",
"399 78 LINE",
"760 642 LINE",
"640 52 LINE SMOOTH",
"635 27 OFFCURVE",
"612 18 OFFCURVE",
"574 18 CURVE SMOOTH",
"548 18 LINE",
"545 0 LINE",
"765 0 LINE",
"768 18 LINE",
"742 18 LINE SMOOTH",
"709 18 OFFCURVE",
"691 25 OFFCURVE",
"691 44 CURVE SMOOTH",
"691 46 OFFCURVE",
"691 49 OFFCURVE",
"692 52 CURVE SMOOTH",
"813 647 LINE SMOOTH",
"818 672 OFFCURVE",
"840 681 OFFCURVE",
"877 681 CURVE SMOOTH",
"903 681 LINE",
"907 700 LINE",
"756 700 LINE",
"402 137 LINE",
"277 700 LINE",
"130 700 LINE",
"126 681 LINE",
"153 681 LINE SMOOTH",
"190 681 OFFCURVE",
"208 672 OFFCURVE",
"204 647 CURVE SMOOTH",
"83 52 LINE SMOOTH",
"77 27 OFFCURVE",
"55 18 OFFCURVE",
"17 18 CURVE SMOOTH",
"-10 18 LINE",
"-12 0 LINE"
);
}
);
width = 829;
}
);
note = M;
unicode = 004D;
},
{
glyphname = Mdotbelow;
lastChange = "2015-10-21 17:44:04 +0000";
layers = (
{
layerId = "5C59C03B-63D5-4D42-95DD-0674E6EE1F81";
name = "Light Italic";
paths = (
{
closed = 1;
nodes = (
"193 0 LINE",
"196 18 LINE",
"169 18 LINE SMOOTH",
"136 18 OFFCURVE",
"118 25 OFFCURVE",
"118 44 CURVE SMOOTH",
"118 46 OFFCURVE",
"118 49 OFFCURVE",
"119 52 CURVE SMOOTH",
"239 642 LINE",
"368 78 LINE",
"399 78 LINE",
"760 642 LINE",
"640 52 LINE SMOOTH",
"635 27 OFFCURVE",
"612 18 OFFCURVE",
"574 18 CURVE SMOOTH",
"548 18 LINE",
"545 0 LINE",
"765 0 LINE",
"768 18 LINE",
"742 18 LINE SMOOTH",
"709 18 OFFCURVE",
"691 25 OFFCURVE",
"691 44 CURVE SMOOTH",
"691 46 OFFCURVE",
"691 49 OFFCURVE",
"692 52 CURVE SMOOTH",
"813 647 LINE SMOOTH",
"818 672 OFFCURVE",
"840 681 OFFCURVE",
"877 681 CURVE SMOOTH",
"903 681 LINE",
"907 700 LINE",
"756 700 LINE",
"402 137 LINE",
"277 700 LINE",
"130 700 LINE",
"126 681 LINE",
"153 681 LINE SMOOTH",
"190 681 OFFCURVE",
"208 672 OFFCURVE",
"204 647 CURVE SMOOTH",
"83 52 LINE SMOOTH",
"77 27 OFFCURVE",
"55 18 OFFCURVE",
"17 18 CURVE SMOOTH",
"-10 18 LINE",
"-12 0 LINE"
);
},
{
closed = 1;
nodes = (
"369 -136 OFFCURVE",
"385 -122 OFFCURVE",
"389 -100 CURVE",
"390 -96 OFFCURVE",
"390 -93 OFFCURVE",
"390 -90 CURVE SMOOTH",
"390 -74 OFFCURVE",
"380 -64 OFFCURVE",
"363 -64 CURVE SMOOTH",
"344 -64 OFFCURVE",
"326 -78 OFFCURVE",
"322 -100 CURVE",
"321 -103 OFFCURVE",
"321 -106 OFFCURVE",
"321 -108 CURVE SMOOTH",
"321 -125 OFFCURVE",
"332 -136 OFFCURVE",
"348 -136 CURVE SMOOTH"
);
}
);
width = 830;
}
);
note = Mdotbelow;
unicode = 1E42;
},
{
glyphname = N;
lastChange = "2015-10-21 17:44:02 +0000";
layers = (
{
layerId = "5C59C03B-63D5-4D42-95DD-0674E6EE1F81";
name = "Light Italic";
paths = (
{
closed = 1;
nodes = (
"193 0 LINE",
"196 18 LINE",
"169 18 LINE SMOOTH",
"136 18 OFFCURVE",
"118 25 OFFCURVE",
"118 44 CURVE SMOOTH",
"118 46 OFFCURVE",
"118 49 OFFCURVE",
"119 52 CURVE SMOOTH",
"244 666 LINE",
"519 0 LINE",
"558 0 LINE",
"689 647 LINE SMOOTH",
"694 672 OFFCURVE",
"716 681 OFFCURVE",
"754 681 CURVE SMOOTH",
"780 681 LINE",
"784 700 LINE",
"579 700 LINE",
"575 681 LINE",
"602 681 LINE SMOOTH",
"639 681 OFFCURVE",
"658 672 OFFCURVE",
"653 647 CURVE SMOOTH",
"537 76 LINE",
"284 700 LINE",
"130 700 LINE",
"126 681 LINE",
"153 681 LINE SMOOTH",
"190 681 OFFCURVE",
"208 672 OFFCURVE",
"204 647 CURVE SMOOTH",
"83 52 LINE SMOOTH",
"77 27 OFFCURVE",
"55 18 OFFCURVE",
"17 18 CURVE SMOOTH",
"-10 18 LINE",
"-12 0 LINE"
);
}
);
width = 707;
}
);
note = N;
unicode = 004E;
},
{
glyphname = Nacute;
lastChange = "2015-10-21 17:44:03 +0000";
layers = (
{
layerId = "5C59C03B-63D5-4D42-95DD-0674E6EE1F81";
name = "Light Italic";
paths = (
{
closed = 1;
nodes = (
"193 0 LINE",
"196 18 LINE",
"169 18 LINE SMOOTH",
"136 18 OFFCURVE",
"118 25 OFFCURVE",
"118 44 CURVE SMOOTH",
"118 46 OFFCURVE",
"118 49 OFFCURVE",
"119 52 CURVE SMOOTH",
"244 666 LINE",
"519 0 LINE",
"558 0 LINE",
"689 647 LINE SMOOTH",
"694 672 OFFCURVE",
"716 681 OFFCURVE",
"754 681 CURVE SMOOTH",
"780 681 LINE",
"784 700 LINE",
"579 700 LINE",
"575 681 LINE",
"602 681 LINE SMOOTH",
"639 681 OFFCURVE",
"658 672 OFFCURVE",
"653 647 CURVE SMOOTH",
"537 76 LINE",
"284 700 LINE",
"130 700 LINE",
"126 681 LINE",
"153 681 LINE SMOOTH",
"190 681 OFFCURVE",
"208 672 OFFCURVE",
"204 647 CURVE SMOOTH",
"83 52 LINE SMOOTH",
"77 27 OFFCURVE",
"55 18 OFFCURVE",
"17 18 CURVE SMOOTH",
"-10 18 LINE",
"-12 0 LINE"
);
},
{
closed = 1;
nodes = (
"558 861 LINE SMOOTH",
"574 870 OFFCURVE",
"585 883 OFFCURVE",
"585 895 CURVE SMOOTH",
"585 904 OFFCURVE",
"579 910 OFFCURVE",
"569 910 CURVE SMOOTH",
"557 910 OFFCURVE",
"543 901 OFFCURVE",
"535 894 CURVE",
"410 801 LINE",
"418 786 LINE"
);
}
);
width = 707;
}
);
note = Nacute;
unicode = 0143;
},
{
glyphname = Ncaron;
lastChange = "2015-10-21 17:44:04 +0000";
layers = (
{
layerId = "5C59C03B-63D5-4D42-95DD-0674E6EE1F81";
name = "Light Italic";
paths = (
{
closed = 1;
nodes = (
"193 0 LINE",
"196 18 LINE",
"169 18 LINE SMOOTH",
"136 18 OFFCURVE",
"118 25 OFFCURVE",
"118 44 CURVE SMOOTH",
"118 46 OFFCURVE",
"118 49 OFFCURVE",
"119 52 CURVE SMOOTH",
"244 666 LINE",
"519 0 LINE",
"558 0 LINE",
"689 647 LINE SMOOTH",
"694 672 OFFCURVE",
"716 681 OFFCURVE",
"754 681 CURVE SMOOTH",
"780 681 LINE",
"784 700 LINE",
"579 700 LINE",
"575 681 LINE",
"602 681 LINE SMOOTH",
"639 681 OFFCURVE",
"658 672 OFFCURVE",
"653 647 CURVE SMOOTH",
"537 76 LINE",
"284 700 LINE",
"130 700 LINE",
"126 681 LINE",
"153 681 LINE SMOOTH",
"190 681 OFFCURVE",
"208 672 OFFCURVE",
"204 647 CURVE SMOOTH",
"83 52 LINE SMOOTH",
"77 27 OFFCURVE",
"55 18 OFFCURVE",
"17 18 CURVE SMOOTH",
"-10 18 LINE",
"-12 0 LINE"
);
},
{
closed = 1;
nodes = (
"492 785 LINE",
"619 892 LINE",
"608 910 LINE",
"501 831 LINE",
"494 827 OFFCURVE",
"490 824 OFFCURVE",
"486 824 CURVE SMOOTH",
"482 824 OFFCURVE",
"477 826 OFFCURVE",
"471 831 CURVE",
"397 910 LINE",
"378 892 LINE",
"461 785 LINE"
);
}
);
width = 707;
}
);
note = Ncaron;
unicode = 0147;
},
{
glyphname = Ncommaaccent;
lastChange = "2015-10-21 17:44:04 +0000";
layers = (
{
layerId = "5C59C03B-63D5-4D42-95DD-0674E6EE1F81";
name = "Light Italic";
paths = (
{
closed = 1;
nodes = (
"193 0 LINE",
"196 18 LINE",
"169 18 LINE SMOOTH",
"136 18 OFFCURVE",
"118 25 OFFCURVE",
"118 44 CURVE SMOOTH",
"118 46 OFFCURVE",
"118 49 OFFCURVE",
"119 52 CURVE SMOOTH",
"244 666 LINE",
"519 0 LINE",
"558 0 LINE",
"689 647 LINE SMOOTH",
"694 672 OFFCURVE",
"716 681 OFFCURVE",
"754 681 CURVE SMOOTH",
"780 681 LINE",
"784 700 LINE",
"579 700 LINE",
"575 681 LINE",
"602 681 LINE SMOOTH",
"639 681 OFFCURVE",
"658 672 OFFCURVE",
"653 647 CURVE SMOOTH",
"537 76 LINE",
"284 700 LINE",
"130 700 LINE",
"126 681 LINE",
"153 681 LINE SMOOTH",
"190 681 OFFCURVE",
"208 672 OFFCURVE",
"204 647 CURVE SMOOTH",
"83 52 LINE SMOOTH",
"77 27 OFFCURVE",
"55 18 OFFCURVE",
"17 18 CURVE SMOOTH",
"-10 18 LINE",
"-12 0 LINE"
);
},
{
closed = 1;
nodes = (
"258 -216 OFFCURVE",
"295 -166 OFFCURVE",
"305 -113 CURVE SMOOTH",
"307 -105 OFFCURVE",
"308 -99 OFFCURVE",
"308 -93 CURVE SMOOTH",
"308 -70 OFFCURVE",
"295 -63 OFFCURVE",
"280 -63 CURVE SMOOTH",
"258 -63 OFFCURVE",
"241 -80 OFFCURVE",
"241 -104 CURVE SMOOTH",
"241 -124 OFFCURVE",
"259 -129 OFFCURVE",
"259 -151 CURVE SMOOTH",
"259 -153 OFFCURVE",
"259 -156 OFFCURVE",
"258 -159 CURVE SMOOTH",
"252 -191 OFFCURVE",
"221 -220 OFFCURVE",
"194 -242 CURVE",
"202 -255 LINE"
);
}
);
width = 707;
}
);
note = Ncommaaccent;
unicode = 0145;
},
{
glyphname = Ndotaccent;
lastChange = "2015-10-21 17:44:03 +0000";
layers = (
{
layerId = "5C59C03B-63D5-4D42-95DD-0674E6EE1F81";
name = "Light Italic";
paths = (
{
closed = 1;
nodes = (
"193 0 LINE",
"196 18 LINE",
"169 18 LINE SMOOTH",
"136 18 OFFCURVE",
"118 25 OFFCURVE",
"118 44 CURVE SMOOTH",
"118 46 OFFCURVE",
"118 49 OFFCURVE",
"119 52 CURVE SMOOTH",
"244 666 LINE",
"519 0 LINE",
"558 0 LINE",
"689 647 LINE SMOOTH",
"694 672 OFFCURVE",
"716 681 OFFCURVE",
"754 681 CURVE SMOOTH",
"780 681 LINE",
"784 700 LINE",
"579 700 LINE",
"575 681 LINE",
"602 681 LINE SMOOTH",
"639 681 OFFCURVE",
"658 672 OFFCURVE",
"653 647 CURVE SMOOTH",
"537 76 LINE",
"284 700 LINE",
"130 700 LINE",
"126 681 LINE",
"153 681 LINE SMOOTH",
"190 681 OFFCURVE",
"208 672 OFFCURVE",
"204 647 CURVE SMOOTH",
"83 52 LINE SMOOTH",
"77 27 OFFCURVE",
"55 18 OFFCURVE",
"17 18 CURVE SMOOTH",
"-10 18 LINE",
"-12 0 LINE"
);
},
{
closed = 1;
nodes = (
"487 761 OFFCURVE",
"503 774 OFFCURVE",
"508 796 CURVE",
"509 799 OFFCURVE",
"509 802 OFFCURVE",
"509 805 CURVE SMOOTH",
"509 822 OFFCURVE",
"498 832 OFFCURVE",
"482 832 CURVE SMOOTH",
"462 832 OFFCURVE",
"445 818 OFFCURVE",
"442 796 CURVE",
"441 792 OFFCURVE",
"441 789 OFFCURVE",
"441 786 CURVE SMOOTH",
"441 770 OFFCURVE",
"450 761 OFFCURVE",
"468 761 CURVE SMOOTH"
);
}
);
width = 707;
}
);
note = Ndotaccent;
unicode = 1E44;
},
{
glyphname = Ndotbelow;
lastChange = "2015-10-21 17:44:04 +0000";
layers = (
{
layerId = "5C59C03B-63D5-4D42-95DD-0674E6EE1F81";
name = "Light Italic";
paths = (
{
closed = 1;
nodes = (
"193 0 LINE",
"196 18 LINE",
"169 18 LINE SMOOTH",
"136 18 OFFCURVE",
"118 25 OFFCURVE",
"118 44 CURVE SMOOTH",
"118 46 OFFCURVE",
"118 49 OFFCURVE",
"119 52 CURVE SMOOTH",
"244 666 LINE",
"519 0 LINE",
"558 0 LINE",
"689 647 LINE SMOOTH",
"694 672 OFFCURVE",
"716 681 OFFCURVE",
"754 681 CURVE SMOOTH",
"780 681 LINE",
"784 700 LINE",
"579 700 LINE",
"575 681 LINE",
"602 681 LINE SMOOTH",
"639 681 OFFCURVE",
"658 672 OFFCURVE",
"653 647 CURVE SMOOTH",
"537 76 LINE",
"284 700 LINE",
"130 700 LINE",
"126 681 LINE",
"153 681 LINE SMOOTH",
"190 681 OFFCURVE",
"208 672 OFFCURVE",
"204 647 CURVE SMOOTH",
"83 52 LINE SMOOTH",
"77 27 OFFCURVE",
"55 18 OFFCURVE",
"17 18 CURVE SMOOTH",
"-10 18 LINE",
"-12 0 LINE"
);
},
{
closed = 1;
nodes = (
"321 -136 OFFCURVE",
"337 -122 OFFCURVE",
"341 -100 CURVE",
"342 -96 OFFCURVE",
"342 -93 OFFCURVE",
"342 -90 CURVE SMOOTH",
"342 -74 OFFCURVE",
"332 -64 OFFCURVE",
"315 -64 CURVE SMOOTH",
"296 -64 OFFCURVE",
"278 -78 OFFCURVE",
"274 -100 CURVE",
"273 -103 OFFCURVE",
"273 -106 OFFCURVE",
"273 -108 CURVE SMOOTH",
"273 -125 OFFCURVE",
"284 -136 OFFCURVE",
"300 -136 CURVE SMOOTH"
);
}
);
width = 771;
}
);
note = uni1E46;
unicode = 1E46;
},
{
glyphname = Eng;
lastChange = "2015-10-21 17:44:02 +0000";
layers = (
{
layerId = "5C59C03B-63D5-4D42-95DD-0674E6EE1F81";
name = "Light Italic";
paths = (
{
closed = 1;
nodes = (
"446 -241 OFFCURVE",
"512 -179 OFFCURVE",
"540 -77 CURVE SMOOTH",
"545 -56 OFFCURVE",
"550 -36 OFFCURVE",
"555 -13 CURVE SMOOTH",
"689 647 LINE SMOOTH",
"694 672 OFFCURVE",
"716 681 OFFCURVE",
"754 681 CURVE SMOOTH",
"780 681 LINE",
"784 700 LINE",
"579 700 LINE",
"575 681 LINE",
"602 681 LINE SMOOTH",
"639 681 OFFCURVE",
"658 672 OFFCURVE",
"653 647 CURVE SMOOTH",
"536 75 LINE",
"285 700 LINE",
"130 700 LINE",
"126 681 LINE",
"153 681 LINE SMOOTH",
"190 681 OFFCURVE",
"208 672 OFFCURVE",
"204 647 CURVE SMOOTH",
"83 52 LINE SMOOTH",
"77 27 OFFCURVE",
"56 18 OFFCURVE",
"17 18 CURVE SMOOTH",
"-10 18 LINE",
"-12 0 LINE",
"193 0 LINE",
"196 18 LINE",
"169 18 LINE SMOOTH",
"136 18 OFFCURVE",
"118 25 OFFCURVE",
"118 44 CURVE SMOOTH",
"118 46 OFFCURVE",
"118 49 OFFCURVE",
"119 52 CURVE SMOOTH",
"244 668 LINE",
"257 642 LINE",
"518 0 LINE",
"504 -68 LINE SMOOTH",
"485 -161 OFFCURVE",
"412 -220 OFFCURVE",
"336 -227 CURVE",
"336 -246 LINE"
);
}
);
width = 707;
}
);
note = Eng;
unicode = 014A;
},
{
glyphname = Nlinebelow;
lastChange = "2015-10-21 17:44:03 +0000";
layers = (
{
layerId = "5C59C03B-63D5-4D42-95DD-0674E6EE1F81";
name = "Light Italic";
paths = (
{
closed = 1;
nodes = (
"193 0 LINE",
"196 18 LINE",
"169 18 LINE SMOOTH",
"136 18 OFFCURVE",
"118 25 OFFCURVE",
"118 44 CURVE SMOOTH",
"118 46 OFFCURVE",
"118 49 OFFCURVE",
"119 52 CURVE SMOOTH",
"244 666 LINE",
"519 0 LINE",
"558 0 LINE",
"689 647 LINE SMOOTH",
"694 672 OFFCURVE",
"716 681 OFFCURVE",
"754 681 CURVE SMOOTH",
"780 681 LINE",
"784 700 LINE",
"579 700 LINE",
"575 681 LINE",
"602 681 LINE SMOOTH",
"639 681 OFFCURVE",
"658 672 OFFCURVE",
"653 647 CURVE SMOOTH",
"537 76 LINE",
"284 700 LINE",
"130 700 LINE",
"126 681 LINE",
"153 681 LINE SMOOTH",
"190 681 OFFCURVE",
"208 672 OFFCURVE",
"204 647 CURVE SMOOTH",
"83 52 LINE SMOOTH",
"77 27 OFFCURVE",
"55 18 OFFCURVE",
"17 18 CURVE SMOOTH",
"-10 18 LINE",
"-12 0 LINE"
);
},
{
closed = 1;
nodes = (
"432 -102 LINE",
"438 -75 LINE",
"157 -75 LINE",
"152 -102 LINE"
);
}
);
width = 707;
}
);
note = Nlinebelow;
unicode = 1E48;
},
{
glyphname = Ntilde;
lastChange = "2015-10-21 17:44:02 +0000";
layers = (
{
layerId = "5C59C03B-63D5-4D42-95DD-0674E6EE1F81";
name = "Light Italic";
paths = (
{
closed = 1;
nodes = (
"193 0 LINE",
"196 18 LINE",
"169 18 LINE SMOOTH",
"136 18 OFFCURVE",
"118 25 OFFCURVE",
"118 44 CURVE SMOOTH",
"118 46 OFFCURVE",
"118 49 OFFCURVE",
"119 52 CURVE SMOOTH",
"244 666 LINE",
"519 0 LINE",
"558 0 LINE",
"689 647 LINE SMOOTH",
"694 672 OFFCURVE",
"716 681 OFFCURVE",
"754 681 CURVE SMOOTH",
"780 681 LINE",
"784 700 LINE",
"579 700 LINE",
"575 681 LINE",
"602 681 LINE SMOOTH",
"639 681 OFFCURVE",
"658 672 OFFCURVE",
"653 647 CURVE SMOOTH",
"537 76 LINE",
"284 700 LINE",
"130 700 LINE",
"126 681 LINE",
"153 681 LINE SMOOTH",
"190 681 OFFCURVE",
"208 672 OFFCURVE",
"204 647 CURVE SMOOTH",
"83 52 LINE SMOOTH",
"77 27 OFFCURVE",
"55 18 OFFCURVE",
"17 18 CURVE SMOOTH",
"-10 18 LINE",
"-12 0 LINE"
);
},
{
closed = 1;
nodes = (
"373 822 OFFCURVE",
"396 845 OFFCURVE",
"425 845 CURVE SMOOTH",
"468 845 OFFCURVE",
"500 787 OFFCURVE",
"544 787 CURVE SMOOTH",
"588 787 OFFCURVE",
"622 821 OFFCURVE",
"642 875 CURVE",
"628 884 LINE",
"609 844 OFFCURVE",
"588 819 OFFCURVE",
"557 819 CURVE SMOOTH",
"516 819 OFFCURVE",
"481 876 OFFCURVE",
"437 876 CURVE SMOOTH",
"396 876 OFFCURVE",
"361 847 OFFCURVE",
"341 793 CURVE",
"355 784 LINE"
);
}
);
width = 707;
}
);
note = Ntilde;
unicode = 00D1;
},
{
glyphname = O;
lastChange = "2015-10-21 17:48:37 +0000";
layers = (
{
layerId = "5C59C03B-63D5-4D42-95DD-0674E6EE1F81";
name = "Light Italic";
paths = (
{
closed = 1;
nodes = (
"500 -10 OFFCURVE",
"640 119 OFFCURVE",
"687 350 CURVE SMOOTH",
"696 391 OFFCURVE",
"700 429 OFFCURVE",
"700 463 CURVE SMOOTH",
"700 622 OFFCURVE",
"612 710 OFFCURVE",
"452 710 CURVE SMOOTH",
"256 710 OFFCURVE",
"117 580 OFFCURVE",
"70 350 CURVE SMOOTH",
"61 309 OFFCURVE",
"58 271 OFFCURVE",
"58 236 CURVE SMOOTH",
"58 77 OFFCURVE",
"145 -10 OFFCURVE",
"305 -10 CURVE SMOOTH"
);
},
{
closed = 1;
nodes = (
"172 20 OFFCURVE",
"108 105 OFFCURVE",
"108 238 CURVE SMOOTH",
"108 273 OFFCURVE",
"112 310 OFFCURVE",
"121 350 CURVE SMOOTH",
"160 544 OFFCURVE",
"271 680 OFFCURVE",
"445 680 CURVE SMOOTH",
"586 680 OFFCURVE",
"649 594 OFFCURVE",
"649 461 CURVE SMOOTH",
"649 427 OFFCURVE",
"644 390 OFFCURVE",
"636 350 CURVE SMOOTH",
"596 155 OFFCURVE",
"488 20 OFFCURVE",
"311 20 CURVE SMOOTH"
);
}
);
width = 692;
}
);
leftKerningGroup = O;
note = O;
rightKerningGroup = O;
unicode = 004F;
},
{
glyphname = Oacute;
lastChange = "2015-10-21 17:44:03 +0000";
layers = (
{
layerId = "5C59C03B-63D5-4D42-95DD-0674E6EE1F81";
name = "Light Italic";
paths = (
{
closed = 1;
nodes = (
"500 -10 OFFCURVE",
"640 119 OFFCURVE",
"687 350 CURVE SMOOTH",
"696 391 OFFCURVE",
"700 429 OFFCURVE",
"700 463 CURVE SMOOTH",
"700 622 OFFCURVE",
"612 710 OFFCURVE",
"452 710 CURVE SMOOTH",
"256 710 OFFCURVE",
"117 580 OFFCURVE",
"70 350 CURVE SMOOTH",
"61 309 OFFCURVE",
"58 271 OFFCURVE",
"58 236 CURVE SMOOTH",
"58 77 OFFCURVE",
"145 -10 OFFCURVE",
"305 -10 CURVE SMOOTH"
);
},
{
closed = 1;
nodes = (
"172 20 OFFCURVE",
"108 105 OFFCURVE",
"108 238 CURVE SMOOTH",
"108 273 OFFCURVE",
"112 310 OFFCURVE",
"121 350 CURVE SMOOTH",
"160 544 OFFCURVE",
"271 680 OFFCURVE",
"445 680 CURVE SMOOTH",
"586 680 OFFCURVE",
"649 594 OFFCURVE",
"649 461 CURVE SMOOTH",
"649 427 OFFCURVE",
"644 390 OFFCURVE",
"636 350 CURVE SMOOTH",
"596 155 OFFCURVE",
"488 20 OFFCURVE",
"311 20 CURVE SMOOTH"
);
},
{
closed = 1;
nodes = (
"541 861 LINE SMOOTH",
"558 870 OFFCURVE",
"568 883 OFFCURVE",
"568 895 CURVE SMOOTH",
"568 904 OFFCURVE",
"563 910 OFFCURVE",
"553 910 CURVE SMOOTH",
"540 910 OFFCURVE",
"527 901 OFFCURVE",
"518 894 CURVE",
"394 801 LINE",
"401 786 LINE"
);
}
);
width = 692;
}
);
leftKerningGroup = O;
note = Oacute;
rightKerningGroup = O;
unicode = 00D3;
},
{
glyphname = Obreve;
lastChange = "2015-10-21 17:44:02 +0000";
layers = (
{
layerId = "5C59C03B-63D5-4D42-95DD-0674E6EE1F81";
name = "Light Italic";
paths = (
{
closed = 1;
nodes = (
"500 -10 OFFCURVE",
"640 119 OFFCURVE",
"687 350 CURVE SMOOTH",
"696 391 OFFCURVE",
"700 429 OFFCURVE",
"700 463 CURVE SMOOTH",
"700 622 OFFCURVE",
"612 710 OFFCURVE",
"452 710 CURVE SMOOTH",
"256 710 OFFCURVE",
"117 580 OFFCURVE",
"70 350 CURVE SMOOTH",
"61 309 OFFCURVE",
"58 271 OFFCURVE",
"58 236 CURVE SMOOTH",
"58 77 OFFCURVE",
"145 -10 OFFCURVE",
"305 -10 CURVE SMOOTH"
);
},
{
closed = 1;
nodes = (
"172 20 OFFCURVE",
"108 105 OFFCURVE",
"108 238 CURVE SMOOTH",
"108 273 OFFCURVE",
"112 310 OFFCURVE",
"121 350 CURVE SMOOTH",
"160 544 OFFCURVE",
"271 680 OFFCURVE",
"445 680 CURVE SMOOTH",
"586 680 OFFCURVE",
"649 594 OFFCURVE",
"649 461 CURVE SMOOTH",
"649 427 OFFCURVE",
"644 390 OFFCURVE",
"636 350 CURVE SMOOTH",
"596 155 OFFCURVE",
"488 20 OFFCURVE",
"311 20 CURVE SMOOTH"
);
},
{
closed = 1;
nodes = (
"542 774 OFFCURVE",
"597 816 OFFCURVE",
"618 893 CURVE",
"591 893 LINE",
"568 820 OFFCURVE",
"516 806 OFFCURVE",
"471 806 CURVE SMOOTH",
"428 806 OFFCURVE",
"385 818 OFFCURVE",
"385 879 CURVE SMOOTH",
"385 884 OFFCURVE",
"386 888 OFFCURVE",
"386 893 CURVE",
"360 893 LINE",
"359 884 OFFCURVE",
"358 876 OFFCURVE",
"358 868 CURVE SMOOTH",
"358 806 OFFCURVE",
"396 774 OFFCURVE",
"466 774 CURVE SMOOTH"
);
}
);
width = 692;
}
);
leftKerningGroup = O;
note = Obreve;
rightKerningGroup = O;
unicode = 014E;
},
{
glyphname = Ocaron;
lastChange = "2015-10-21 17:44:03 +0000";
layers = (
{
layerId = "5C59C03B-63D5-4D42-95DD-0674E6EE1F81";
name = "Light Italic";
paths = (
{
closed = 1;
nodes = (
"500 -10 OFFCURVE",
"640 119 OFFCURVE",
"687 350 CURVE SMOOTH",
"696 391 OFFCURVE",
"700 429 OFFCURVE",
"700 463 CURVE SMOOTH",
"700 622 OFFCURVE",
"612 710 OFFCURVE",
"452 710 CURVE SMOOTH",
"256 710 OFFCURVE",
"117 580 OFFCURVE",
"70 350 CURVE SMOOTH",
"61 309 OFFCURVE",
"58 271 OFFCURVE",
"58 236 CURVE SMOOTH",
"58 77 OFFCURVE",
"145 -10 OFFCURVE",
"305 -10 CURVE SMOOTH"
);
},
{
closed = 1;
nodes = (
"172 20 OFFCURVE",
"108 105 OFFCURVE",
"108 238 CURVE SMOOTH",
"108 273 OFFCURVE",
"112 310 OFFCURVE",
"121 350 CURVE SMOOTH",
"160 544 OFFCURVE",
"271 680 OFFCURVE",
"445 680 CURVE SMOOTH",
"586 680 OFFCURVE",
"649 594 OFFCURVE",
"649 461 CURVE SMOOTH",
"649 427 OFFCURVE",
"644 390 OFFCURVE",
"636 350 CURVE SMOOTH",
"596 155 OFFCURVE",
"488 20 OFFCURVE",
"311 20 CURVE SMOOTH"
);
},
{
closed = 1;
nodes = (
"482 785 LINE",
"609 892 LINE",
"597 910 LINE",
"491 831 LINE",
"484 827 OFFCURVE",
"479 824 OFFCURVE",
"475 824 CURVE SMOOTH",
"471 824 OFFCURVE",
"467 826 OFFCURVE",
"461 831 CURVE",
"387 910 LINE",
"368 892 LINE",
"450 785 LINE"
);
}
);
width = 692;
}
);
leftKerningGroup = O;
note = Ocaron;
rightKerningGroup = O;
unicode = 01D1;
},
{
glyphname = Ocircumflex;
lastChange = "2015-10-21 17:44:02 +0000";
layers = (
{
layerId = "5C59C03B-63D5-4D42-95DD-0674E6EE1F81";
name = "Light Italic";
paths = (
{
closed = 1;
nodes = (
"500 -10 OFFCURVE",
"640 119 OFFCURVE",
"687 350 CURVE SMOOTH",
"696 391 OFFCURVE",
"700 429 OFFCURVE",
"700 463 CURVE SMOOTH",
"700 622 OFFCURVE",
"612 710 OFFCURVE",
"452 710 CURVE SMOOTH",
"256 710 OFFCURVE",
"117 580 OFFCURVE",
"70 350 CURVE SMOOTH",
"61 309 OFFCURVE",
"58 271 OFFCURVE",
"58 236 CURVE SMOOTH",
"58 77 OFFCURVE",
"145 -10 OFFCURVE",
"305 -10 CURVE SMOOTH"
);
},
{
closed = 1;
nodes = (
"172 20 OFFCURVE",
"108 105 OFFCURVE",
"108 238 CURVE SMOOTH",
"108 273 OFFCURVE",
"112 310 OFFCURVE",
"121 350 CURVE SMOOTH",
"160 544 OFFCURVE",
"271 680 OFFCURVE",
"445 680 CURVE SMOOTH",
"586 680 OFFCURVE",
"649 594 OFFCURVE",
"649 461 CURVE SMOOTH",
"649 427 OFFCURVE",
"644 390 OFFCURVE",
"636 350 CURVE SMOOTH",
"596 155 OFFCURVE",
"488 20 OFFCURVE",
"311 20 CURVE SMOOTH"
);
},
{
closed = 1;
nodes = (
"468 864 LINE",
"474 868 OFFCURVE",
"481 871 OFFCURVE",
"485 871 CURVE SMOOTH",
"489 871 OFFCURVE",
"492 868 OFFCURVE",
"497 864 CURVE",
"571 785 LINE",
"590 803 LINE",
"508 910 LINE",
"476 910 LINE",
"349 803 LINE",
"361 785 LINE"
);
}
);
width = 692;
}
);
leftKerningGroup = O;
note = Ocircumflex;
rightKerningGroup = O;
unicode = 00D4;
},
{
glyphname = Ocircumflexacute;
lastChange = "2015-10-21 17:44:02 +0000";
layers = (
{
layerId = "5C59C03B-63D5-4D42-95DD-0674E6EE1F81";
name = "Light Italic";
paths = (
{
closed = 1;
nodes = (
"500 -10 OFFCURVE",
"640 119 OFFCURVE",
"687 350 CURVE SMOOTH",
"696 391 OFFCURVE",
"700 429 OFFCURVE",
"700 463 CURVE SMOOTH",
"700 622 OFFCURVE",
"612 710 OFFCURVE",
"452 710 CURVE SMOOTH",
"256 710 OFFCURVE",
"117 580 OFFCURVE",
"70 350 CURVE SMOOTH",
"61 309 OFFCURVE",
"58 271 OFFCURVE",
"58 236 CURVE SMOOTH",
"58 77 OFFCURVE",
"145 -10 OFFCURVE",
"305 -10 CURVE SMOOTH"
);
},
{
closed = 1;
nodes = (
"172 20 OFFCURVE",
"108 105 OFFCURVE",
"108 238 CURVE SMOOTH",
"108 273 OFFCURVE",
"112 310 OFFCURVE",
"121 350 CURVE SMOOTH",
"160 544 OFFCURVE",
"271 680 OFFCURVE",
"445 680 CURVE SMOOTH",
"586 680 OFFCURVE",
"649 594 OFFCURVE",
"649 461 CURVE SMOOTH",
"649 427 OFFCURVE",
"644 390 OFFCURVE",
"636 350 CURVE SMOOTH",
"596 155 OFFCURVE",
"488 20 OFFCURVE",
"311 20 CURVE SMOOTH"
);
},
{
closed = 1;
nodes = (
"467 861 LINE",
"473 865 OFFCURVE",
"479 869 OFFCURVE",
"484 869 CURVE SMOOTH",
"488 869 OFFCURVE",
"492 866 OFFCURVE",
"497 862 CURVE",
"571 784 LINE",
"589 802 LINE",
"508 909 LINE",
"476 909 LINE",
"350 802 LINE",
"362 784 LINE"
);
},
{
closed = 1;
nodes = (
"714 953 LINE",
"731 961 OFFCURVE",
"741 973 OFFCURVE",
"743 982 CURVE",
"745 993 OFFCURVE",
"739 1002 OFFCURVE",
"727 1002 CURVE SMOOTH",
"714 1002 OFFCURVE",
"700 993 OFFCURVE",
"690 985 CURVE",
"575 896 LINE",
"583 882 LINE"
);
}
);
width = 692;
}
);
leftKerningGroup = O;
note = Ocircumflexacute;
rightKerningGroup = O;
unicode = 1ED0;
},
{
glyphname = Ocircumflexdotbelow;
lastChange = "2015-10-21 17:44:03 +0000";
layers = (
{
layerId = "5C59C03B-63D5-4D42-95DD-0674E6EE1F81";
name = "Light Italic";
paths = (
{
closed = 1;
nodes = (
"500 -10 OFFCURVE",
"640 119 OFFCURVE",
"687 350 CURVE SMOOTH",
"696 391 OFFCURVE",
"700 429 OFFCURVE",
"700 463 CURVE SMOOTH",
"700 622 OFFCURVE",
"612 710 OFFCURVE",
"452 710 CURVE SMOOTH",
"256 710 OFFCURVE",
"117 580 OFFCURVE",
"70 350 CURVE SMOOTH",
"61 309 OFFCURVE",
"58 271 OFFCURVE",
"58 236 CURVE SMOOTH",
"58 77 OFFCURVE",
"145 -10 OFFCURVE",
"305 -10 CURVE SMOOTH"
);
},
{
closed = 1;
nodes = (
"298 -136 OFFCURVE",
"314 -122 OFFCURVE",
"318 -100 CURVE",
"319 -96 OFFCURVE",
"319 -93 OFFCURVE",
"319 -90 CURVE SMOOTH",
"319 -74 OFFCURVE",
"309 -64 OFFCURVE",
"292 -64 CURVE SMOOTH",
"273 -64 OFFCURVE",
"255 -78 OFFCURVE",
"251 -100 CURVE",
"250 -103 OFFCURVE",
"250 -106 OFFCURVE",
"250 -108 CURVE SMOOTH",
"250 -125 OFFCURVE",
"261 -136 OFFCURVE",
"277 -136 CURVE SMOOTH"
);
},
{
closed = 1;
nodes = (
"172 20 OFFCURVE",
"108 105 OFFCURVE",
"108 238 CURVE SMOOTH",
"108 273 OFFCURVE",
"112 310 OFFCURVE",
"121 350 CURVE SMOOTH",
"160 544 OFFCURVE",
"271 680 OFFCURVE",
"445 680 CURVE SMOOTH",
"586 680 OFFCURVE",
"649 594 OFFCURVE",
"649 461 CURVE SMOOTH",
"649 427 OFFCURVE",
"644 390 OFFCURVE",
"636 350 CURVE SMOOTH",
"596 155 OFFCURVE",
"488 20 OFFCURVE",
"311 20 CURVE SMOOTH"
);
},
{
closed = 1;
nodes = (
"468 864 LINE",
"474 868 OFFCURVE",
"481 871 OFFCURVE",
"485 871 CURVE SMOOTH",
"489 871 OFFCURVE",
"492 868 OFFCURVE",
"497 864 CURVE",
"571 785 LINE",
"590 803 LINE",
"508 910 LINE",
"476 910 LINE",
"349 803 LINE",
"361 785 LINE"
);
}
);
width = 692;
}
);
leftKerningGroup = O;
note = Ocircumflexdotbelow;
rightKerningGroup = O;
unicode = 1ED8;
},
{
glyphname = Ocircumflexgrave;
lastChange = "2015-10-21 17:44:02 +0000";
layers = (
{
layerId = "5C59C03B-63D5-4D42-95DD-0674E6EE1F81";
name = "Light Italic";
paths = (
{
closed = 1;
nodes = (
"500 -10 OFFCURVE",
"640 119 OFFCURVE",
"687 350 CURVE SMOOTH",
"696 391 OFFCURVE",
"700 429 OFFCURVE",
"700 463 CURVE SMOOTH",
"700 622 OFFCURVE",
"612 710 OFFCURVE",
"452 710 CURVE SMOOTH",
"256 710 OFFCURVE",
"117 580 OFFCURVE",
"70 350 CURVE SMOOTH",
"61 309 OFFCURVE",
"58 271 OFFCURVE",
"58 236 CURVE SMOOTH",
"58 77 OFFCURVE",
"145 -10 OFFCURVE",
"305 -10 CURVE SMOOTH"
);
},
{
closed = 1;
nodes = (
"172 20 OFFCURVE",
"108 105 OFFCURVE",
"108 238 CURVE SMOOTH",
"108 273 OFFCURVE",
"112 310 OFFCURVE",
"121 350 CURVE SMOOTH",
"160 544 OFFCURVE",
"271 680 OFFCURVE",
"445 680 CURVE SMOOTH",
"586 680 OFFCURVE",
"649 594 OFFCURVE",
"649 461 CURVE SMOOTH",
"649 427 OFFCURVE",
"644 390 OFFCURVE",
"636 350 CURVE SMOOTH",
"596 155 OFFCURVE",
"488 20 OFFCURVE",
"311 20 CURVE SMOOTH"
);
},
{
closed = 1;
nodes = (
"414 896 LINE",
"333 985 LINE",
"327 993 OFFCURVE",
"318 1002 OFFCURVE",
"305 1002 CURVE SMOOTH",
"293 1002 OFFCURVE",
"283 993 OFFCURVE",
"281 982 CURVE",
"279 973 OFFCURVE",
"283 961 OFFCURVE",
"296 953 CURVE SMOOTH",
"400 882 LINE"
);
},
{
closed = 1;
nodes = (
"467 861 LINE",
"473 865 OFFCURVE",
"479 869 OFFCURVE",
"484 869 CURVE SMOOTH",
"488 869 OFFCURVE",
"492 866 OFFCURVE",
"497 862 CURVE",
"571 784 LINE",
"589 802 LINE",
"508 909 LINE",
"476 909 LINE",
"350 802 LINE",
"362 784 LINE"
);
}
);
width = 692;
}
);
leftKerningGroup = O;
note = Ocircumflexgrave;
rightKerningGroup = O;
unicode = 1ED2;
},
{
glyphname = Ocircumflexhookabove;
lastChange = "2015-10-21 17:44:02 +0000";
layers = (
{
layerId = "5C59C03B-63D5-4D42-95DD-0674E6EE1F81";
name = "Light Italic";
paths = (
{
closed = 1;
nodes = (
"500 -10 OFFCURVE",
"640 119 OFFCURVE",
"687 350 CURVE SMOOTH",
"696 391 OFFCURVE",
"700 429 OFFCURVE",
"700 463 CURVE SMOOTH",
"700 622 OFFCURVE",
"612 710 OFFCURVE",
"452 710 CURVE SMOOTH",
"256 710 OFFCURVE",
"117 580 OFFCURVE",
"70 350 CURVE SMOOTH",
"61 309 OFFCURVE",
"58 271 OFFCURVE",
"58 236 CURVE SMOOTH",
"58 77 OFFCURVE",
"145 -10 OFFCURVE",
"305 -10 CURVE SMOOTH"
);
},
{
closed = 1;
nodes = (
"172 20 OFFCURVE",
"108 105 OFFCURVE",
"108 238 CURVE SMOOTH",
"108 273 OFFCURVE",
"112 310 OFFCURVE",
"121 350 CURVE SMOOTH",
"160 544 OFFCURVE",
"271 680 OFFCURVE",
"445 680 CURVE SMOOTH",
"586 680 OFFCURVE",
"649 594 OFFCURVE",
"649 461 CURVE SMOOTH",
"649 427 OFFCURVE",
"644 390 OFFCURVE",
"636 350 CURVE SMOOTH",
"596 155 OFFCURVE",
"488 20 OFFCURVE",
"311 20 CURVE SMOOTH"
);
},
{
closed = 1;
nodes = (
"454 852 LINE",
"464 860 OFFCURVE",
"475 870 OFFCURVE",
"484 870 CURVE SMOOTH",
"488 870 OFFCURVE",
"492 867 OFFCURVE",
"497 863 CURVE",
"571 785 LINE",
"589 803 LINE",
"508 910 LINE",
"476 910 LINE",
"350 803 LINE",
"362 785 LINE"
);
},
{
closed = 1;
nodes = (
"633 881 LINE",
"617 886 OFFCURVE",
"608 891 OFFCURVE",
"612 908 CURVE",
"616 936 OFFCURVE",
"699 944 OFFCURVE",
"699 992 CURVE SMOOTH",
"699 1020 OFFCURVE",
"669 1032 OFFCURVE",
"636 1032 CURVE SMOOTH",
"609 1032 OFFCURVE",
"567 1023 OFFCURVE",
"562 995 CURVE SMOOTH",
"560 984 OFFCURVE",
"566 976 OFFCURVE",
"576 976 CURVE SMOOTH",
"603 976 OFFCURVE",
"596 1011 OFFCURVE",
"635 1011 CURVE SMOOTH",
"651 1011 OFFCURVE",
"661 1000 OFFCURVE",
"659 987 CURVE SMOOTH",
"652 951 OFFCURVE",
"585 943 OFFCURVE",
"577 907 CURVE",
"573 885 OFFCURVE",
"585 866 OFFCURVE",
"622 866 CURVE"
);
}
);
width = 692;
}
);
leftKerningGroup = O;
note = Ocircumflexhookabove;
rightKerningGroup = O;
unicode = 1ED4;
},
{
glyphname = Ocircumflextilde;
lastChange = "2015-10-21 17:44:03 +0000";
layers = (
{
layerId = "5C59C03B-63D5-4D42-95DD-0674E6EE1F81";
name = "Light Italic";
paths = (
{
closed = 1;
nodes = (
"500 -10 OFFCURVE",
"640 119 OFFCURVE",
"687 350 CURVE SMOOTH",
"696 391 OFFCURVE",
"700 429 OFFCURVE",
"700 463 CURVE SMOOTH",
"700 622 OFFCURVE",
"612 710 OFFCURVE",
"452 710 CURVE SMOOTH",
"256 710 OFFCURVE",
"117 580 OFFCURVE",
"70 350 CURVE SMOOTH",
"61 309 OFFCURVE",
"58 271 OFFCURVE",
"58 236 CURVE SMOOTH",
"58 77 OFFCURVE",
"145 -10 OFFCURVE",
"305 -10 CURVE SMOOTH"
);
},
{
closed = 1;
nodes = (
"172 20 OFFCURVE",
"108 105 OFFCURVE",
"108 238 CURVE SMOOTH",
"108 273 OFFCURVE",
"112 310 OFFCURVE",
"121 350 CURVE SMOOTH",
"160 544 OFFCURVE",
"271 680 OFFCURVE",
"445 680 CURVE SMOOTH",
"586 680 OFFCURVE",
"649 594 OFFCURVE",
"649 461 CURVE SMOOTH",
"649 427 OFFCURVE",
"644 390 OFFCURVE",
"636 350 CURVE SMOOTH",
"596 155 OFFCURVE",
"488 20 OFFCURVE",
"311 20 CURVE SMOOTH"
);
},
{
closed = 1;
nodes = (
"467 862 LINE",
"473 866 OFFCURVE",
"479 870 OFFCURVE",
"484 870 CURVE SMOOTH",
"488 870 OFFCURVE",
"492 867 OFFCURVE",
"497 863 CURVE",
"571 785 LINE",
"589 803 LINE",
"508 910 LINE",
"476 910 LINE",
"350 803 LINE",
"362 785 LINE"
);
},
{
closed = 1;
nodes = (
"396 979 OFFCURVE",
"419 1002 OFFCURVE",
"447 1002 CURVE SMOOTH",
"490 1002 OFFCURVE",
"520 944 OFFCURVE",
"564 944 CURVE SMOOTH",
"606 944 OFFCURVE",
"638 978 OFFCURVE",
"660 1032 CURVE",
"645 1041 LINE",
"626 1001 OFFCURVE",
"606 976 OFFCURVE",
"575 976 CURVE SMOOTH",
"536 976 OFFCURVE",
"501 1033 OFFCURVE",
"458 1033 CURVE SMOOTH",
"419 1033 OFFCURVE",
"383 1003 OFFCURVE",
"364 950 CURVE",
"377 940 LINE"
);
}
);
width = 692;
}
);
leftKerningGroup = O;
note = Ocircumflextilde;
rightKerningGroup = O;
unicode = 1ED6;
},
{
glyphname = Odieresis;
lastChange = "2015-10-21 17:44:02 +0000";
layers = (
{
layerId = "5C59C03B-63D5-4D42-95DD-0674E6EE1F81";
name = "Light Italic";
paths = (
{
closed = 1;
nodes = (
"500 -10 OFFCURVE",
"640 119 OFFCURVE",
"687 350 CURVE SMOOTH",
"696 391 OFFCURVE",
"700 429 OFFCURVE",
"700 463 CURVE SMOOTH",
"700 622 OFFCURVE",
"612 710 OFFCURVE",
"452 710 CURVE SMOOTH",
"256 710 OFFCURVE",
"117 580 OFFCURVE",
"70 350 CURVE SMOOTH",
"61 309 OFFCURVE",
"58 271 OFFCURVE",
"58 236 CURVE SMOOTH",
"58 77 OFFCURVE",
"145 -10 OFFCURVE",
"305 -10 CURVE SMOOTH"
);
},
{
closed = 1;
nodes = (
"172 20 OFFCURVE",
"108 105 OFFCURVE",
"108 238 CURVE SMOOTH",
"108 273 OFFCURVE",
"112 310 OFFCURVE",
"121 350 CURVE SMOOTH",
"160 544 OFFCURVE",
"271 680 OFFCURVE",
"445 680 CURVE SMOOTH",
"586 680 OFFCURVE",
"649 594 OFFCURVE",
"649 461 CURVE SMOOTH",
"649 427 OFFCURVE",
"644 390 OFFCURVE",
"636 350 CURVE SMOOTH",
"596 155 OFFCURVE",
"488 20 OFFCURVE",
"311 20 CURVE SMOOTH"
);
},
{
closed = 1;
nodes = (
"389 783 OFFCURVE",
"405 797 OFFCURVE",
"410 819 CURVE",
"411 822 OFFCURVE",
"411 825 OFFCURVE",
"411 828 CURVE SMOOTH",
"411 845 OFFCURVE",
"400 855 OFFCURVE",
"383 855 CURVE SMOOTH",
"363 855 OFFCURVE",
"348 841 OFFCURVE",
"344 819 CURVE",
"343 815 OFFCURVE",
"343 812 OFFCURVE",
"343 808 CURVE SMOOTH",
"343 793 OFFCURVE",
"352 783 OFFCURVE",
"369 783 CURVE SMOOTH"
);
},
{
closed = 1;
nodes = (
"584 783 OFFCURVE",
"600 797 OFFCURVE",
"605 819 CURVE",
"606 822 OFFCURVE",
"606 825 OFFCURVE",
"606 828 CURVE SMOOTH",
"606 845 OFFCURVE",
"595 855 OFFCURVE",
"578 855 CURVE SMOOTH",
"558 855 OFFCURVE",
"541 841 OFFCURVE",
"538 819 CURVE",
"537 815 OFFCURVE",
"537 812 OFFCURVE",
"537 809 CURVE SMOOTH",
"537 793 OFFCURVE",
"546 783 OFFCURVE",
"564 783 CURVE SMOOTH"
);
}
);
width = 692;
}
);
leftKerningGroup = O;
note = Odieresis;
rightKerningGroup = O;
unicode = 00D6;
},
{
glyphname = Odotbelow;
lastChange = "2015-10-21 17:44:02 +0000";
layers = (
{
layerId = "5C59C03B-63D5-4D42-95DD-0674E6EE1F81";
name = "Light Italic";
paths = (
{
closed = 1;
nodes = (
"500 -10 OFFCURVE",
"640 119 OFFCURVE",
"687 350 CURVE SMOOTH",
"696 391 OFFCURVE",
"700 429 OFFCURVE",
"700 463 CURVE SMOOTH",
"700 622 OFFCURVE",
"612 710 OFFCURVE",
"452 710 CURVE SMOOTH",
"256 710 OFFCURVE",
"117 580 OFFCURVE",
"70 350 CURVE SMOOTH",
"61 309 OFFCURVE",
"58 271 OFFCURVE",
"58 236 CURVE SMOOTH",
"58 77 OFFCURVE",
"145 -10 OFFCURVE",
"305 -10 CURVE SMOOTH"
);
},
{
closed = 1;
nodes = (
"300 -136 OFFCURVE",
"317 -122 OFFCURVE",
"321 -100 CURVE",
"322 -96 OFFCURVE",
"322 -93 OFFCURVE",
"322 -90 CURVE SMOOTH",
"322 -74 OFFCURVE",
"312 -64 OFFCURVE",
"295 -64 CURVE SMOOTH",
"276 -64 OFFCURVE",
"258 -78 OFFCURVE",
"253 -100 CURVE",
"252 -103 OFFCURVE",
"252 -106 OFFCURVE",
"252 -108 CURVE SMOOTH",
"252 -125 OFFCURVE",
"264 -136 OFFCURVE",
"280 -136 CURVE SMOOTH"
);
},
{
closed = 1;
nodes = (
"172 20 OFFCURVE",
"108 105 OFFCURVE",
"108 238 CURVE SMOOTH",
"108 273 OFFCURVE",
"112 310 OFFCURVE",
"121 350 CURVE SMOOTH",
"160 544 OFFCURVE",
"271 680 OFFCURVE",
"445 680 CURVE SMOOTH",
"586 680 OFFCURVE",
"649 594 OFFCURVE",
"649 461 CURVE SMOOTH",
"649 427 OFFCURVE",
"644 390 OFFCURVE",
"636 350 CURVE SMOOTH",
"596 155 OFFCURVE",
"488 20 OFFCURVE",
"311 20 CURVE SMOOTH"
);
}
);
width = 692;
}
);
leftKerningGroup = O;
note = Odotbelow;
rightKerningGroup = O;
unicode = 1ECC;
},
{
glyphname = Ograve;
lastChange = "2015-10-21 17:44:02 +0000";
layers = (
{
layerId = "5C59C03B-63D5-4D42-95DD-0674E6EE1F81";
name = "Light Italic";
paths = (
{
closed = 1;
nodes = (
"500 -10 OFFCURVE",
"640 119 OFFCURVE",
"687 350 CURVE SMOOTH",
"696 391 OFFCURVE",
"700 429 OFFCURVE",
"700 463 CURVE SMOOTH",
"700 622 OFFCURVE",
"612 710 OFFCURVE",
"452 710 CURVE SMOOTH",
"256 710 OFFCURVE",
"117 580 OFFCURVE",
"70 350 CURVE SMOOTH",
"61 309 OFFCURVE",
"58 271 OFFCURVE",
"58 236 CURVE SMOOTH",
"58 77 OFFCURVE",
"145 -10 OFFCURVE",
"305 -10 CURVE SMOOTH"
);
},
{
closed = 1;
nodes = (
"172 20 OFFCURVE",
"108 105 OFFCURVE",
"108 238 CURVE SMOOTH",
"108 273 OFFCURVE",
"112 310 OFFCURVE",
"121 350 CURVE SMOOTH",
"160 544 OFFCURVE",
"271 680 OFFCURVE",
"445 680 CURVE SMOOTH",
"586 680 OFFCURVE",
"649 594 OFFCURVE",
"649 461 CURVE SMOOTH",
"649 427 OFFCURVE",
"644 390 OFFCURVE",
"636 350 CURVE SMOOTH",
"596 155 OFFCURVE",
"488 20 OFFCURVE",
"311 20 CURVE SMOOTH"
);
},
{
closed = 1;
nodes = (
"530 801 LINE",
"444 894 LINE SMOOTH",
"436 902 OFFCURVE",
"427 910 OFFCURVE",
"416 910 CURVE SMOOTH",
"405 910 OFFCURVE",
"392 901 OFFCURVE",
"392 885 CURVE SMOOTH",
"392 876 OFFCURVE",
"398 867 OFFCURVE",
"407 861 CURVE SMOOTH",
"516 786 LINE"
);
}
);
width = 692;
}
);
leftKerningGroup = O;
note = Ograve;
rightKerningGroup = O;
unicode = 00D2;
},
{
glyphname = Ohookabove;
lastChange = "2015-10-21 17:44:02 +0000";
layers = (
{
layerId = "5C59C03B-63D5-4D42-95DD-0674E6EE1F81";
name = "Light Italic";
paths = (
{
closed = 1;
nodes = (
"500 -10 OFFCURVE",
"640 119 OFFCURVE",
"687 350 CURVE SMOOTH",
"696 391 OFFCURVE",
"700 429 OFFCURVE",
"700 463 CURVE SMOOTH",
"700 622 OFFCURVE",
"612 710 OFFCURVE",
"452 710 CURVE SMOOTH",
"256 710 OFFCURVE",
"117 580 OFFCURVE",
"70 350 CURVE SMOOTH",
"61 309 OFFCURVE",
"58 271 OFFCURVE",
"58 236 CURVE SMOOTH",
"58 77 OFFCURVE",
"145 -10 OFFCURVE",
"305 -10 CURVE SMOOTH"
);
},
{
closed = 1;
nodes = (
"172 20 OFFCURVE",
"108 105 OFFCURVE",
"108 238 CURVE SMOOTH",
"108 273 OFFCURVE",
"112 310 OFFCURVE",
"121 350 CURVE SMOOTH",
"160 544 OFFCURVE",
"271 680 OFFCURVE",
"445 680 CURVE SMOOTH",
"586 680 OFFCURVE",
"649 594 OFFCURVE",
"649 461 CURVE SMOOTH",
"649 427 OFFCURVE",
"644 390 OFFCURVE",
"636 350 CURVE SMOOTH",
"596 155 OFFCURVE",
"488 20 OFFCURVE",
"311 20 CURVE SMOOTH"
);
},
{
closed = 1;
nodes = (
"489 795 LINE",
"475 799 OFFCURVE",
"467 803 OFFCURVE",
"467 815 CURVE SMOOTH",
"467 817 OFFCURVE",
"467 820 OFFCURVE",
"468 823 CURVE SMOOTH",
"473 854 OFFCURVE",
"554 871 OFFCURVE",
"564 918 CURVE SMOOTH",
"564 922 OFFCURVE",
"564 926 OFFCURVE",
"564 930 CURVE SMOOTH",
"564 960 OFFCURVE",
"539 974 OFFCURVE",
"502 974 CURVE SMOOTH",
"457 974 OFFCURVE",
"419 954 OFFCURVE",
"419 921 CURVE SMOOTH",
"419 912 OFFCURVE",
"423 908 OFFCURVE",
"432 908 CURVE SMOOTH",
"446 908 OFFCURVE",
"450 917 OFFCURVE",
"458 931 CURVE SMOOTH",
"466 946 OFFCURVE",
"483 951 OFFCURVE",
"498 951 CURVE SMOOTH",
"519 951 OFFCURVE",
"527 941 OFFCURVE",
"527 929 CURVE SMOOTH",
"527 926 OFFCURVE",
"527 924 OFFCURVE",
"526 921 CURVE",
"517 878 OFFCURVE",
"442 866 OFFCURVE",
"433 823 CURVE SMOOTH",
"432 819 OFFCURVE",
"432 816 OFFCURVE",
"432 812 CURVE SMOOTH",
"432 793 OFFCURVE",
"446 778 OFFCURVE",
"477 778 CURVE"
);
}
);
width = 692;
}
);
leftKerningGroup = O;
note = Ohookabove;
rightKerningGroup = O;
unicode = 1ECE;
},
{
glyphname = Ohorn;
lastChange = "2015-10-21 17:44:04 +0000";
layers = (
{
layerId = "5C59C03B-63D5-4D42-95DD-0674E6EE1F81";
name = "Light Italic";
paths = (
{
closed = 1;
nodes = (
"500 -10 OFFCURVE",
"640 119 OFFCURVE",
"687 350 CURVE SMOOTH",
"696 391 OFFCURVE",
"700 429 OFFCURVE",
"700 463 CURVE SMOOTH",
"700 622 OFFCURVE",
"612 710 OFFCURVE",
"452 710 CURVE SMOOTH",
"256 710 OFFCURVE",
"117 580 OFFCURVE",
"70 350 CURVE SMOOTH",
"61 309 OFFCURVE",
"58 271 OFFCURVE",
"58 236 CURVE SMOOTH",
"58 77 OFFCURVE",
"145 -10 OFFCURVE",
"305 -10 CURVE SMOOTH"
);
},
{
closed = 1;
nodes = (
"172 20 OFFCURVE",
"108 105 OFFCURVE",
"108 238 CURVE SMOOTH",
"108 273 OFFCURVE",
"112 310 OFFCURVE",
"121 350 CURVE SMOOTH",
"160 544 OFFCURVE",
"271 680 OFFCURVE",
"445 680 CURVE SMOOTH",
"586 680 OFFCURVE",
"649 594 OFFCURVE",
"649 461 CURVE SMOOTH",
"649 427 OFFCURVE",
"644 390 OFFCURVE",
"636 350 CURVE SMOOTH",
"596 155 OFFCURVE",
"488 20 OFFCURVE",
"311 20 CURVE SMOOTH"
);
},
{
closed = 1;
nodes = (
"717 608 OFFCURVE",
"768 662 OFFCURVE",
"780 719 CURVE SMOOTH",
"780 726 OFFCURVE",
"781 731 OFFCURVE",
"781 736 CURVE SMOOTH",
"781 762 OFFCURVE",
"767 770 OFFCURVE",
"752 770 CURVE SMOOTH",
"732 770 OFFCURVE",
"717 754 OFFCURVE",
"714 737 CURVE",
"713 734 OFFCURVE",
"713 731 OFFCURVE",
"713 728 CURVE SMOOTH",
"713 709 OFFCURVE",
"730 703 OFFCURVE",
"730 683 CURVE SMOOTH",
"730 681 OFFCURVE",
"730 678 OFFCURVE",
"729 675 CURVE SMOOTH",
"722 643 OFFCURVE",
"687 616 OFFCURVE",
"659 599 CURVE",
"655 579 LINE"
);
}
);
width = 694;
}
);
leftKerningGroup = O;
note = Ohorn;
rightKerningGroup = O;
unicode = 01A0;
},
{
glyphname = Ohornacute;
lastChange = "2015-10-21 17:44:02 +0000";
layers = (
{
layerId = "5C59C03B-63D5-4D42-95DD-0674E6EE1F81";
name = "Light Italic";
paths = (
{
closed = 1;
nodes = (
"500 -10 OFFCURVE",
"640 119 OFFCURVE",
"687 350 CURVE SMOOTH",
"696 391 OFFCURVE",
"700 429 OFFCURVE",
"700 463 CURVE SMOOTH",
"700 622 OFFCURVE",
"612 710 OFFCURVE",
"452 710 CURVE SMOOTH",
"256 710 OFFCURVE",
"117 580 OFFCURVE",
"70 350 CURVE SMOOTH",
"61 309 OFFCURVE",
"58 271 OFFCURVE",
"58 236 CURVE SMOOTH",
"58 77 OFFCURVE",
"145 -10 OFFCURVE",
"305 -10 CURVE SMOOTH"
);
},
{
closed = 1;
nodes = (
"172 20 OFFCURVE",
"108 105 OFFCURVE",
"108 238 CURVE SMOOTH",
"108 273 OFFCURVE",
"112 310 OFFCURVE",
"121 350 CURVE SMOOTH",
"160 544 OFFCURVE",
"271 680 OFFCURVE",
"445 680 CURVE SMOOTH",
"586 680 OFFCURVE",
"649 594 OFFCURVE",
"649 461 CURVE SMOOTH",
"649 427 OFFCURVE",
"644 390 OFFCURVE",
"636 350 CURVE SMOOTH",
"596 155 OFFCURVE",
"488 20 OFFCURVE",
"311 20 CURVE SMOOTH"
);
},
{
closed = 1;
nodes = (
"522 860 LINE SMOOTH",
"539 869 OFFCURVE",
"549 882 OFFCURVE",
"549 894 CURVE SMOOTH",
"549 903 OFFCURVE",
"543 909 OFFCURVE",
"534 909 CURVE SMOOTH",
"521 909 OFFCURVE",
"508 900 OFFCURVE",
"499 893 CURVE",
"374 800 LINE",
"382 785 LINE"
);
},
{
closed = 1;
nodes = (
"710 604 OFFCURVE",
"761 658 OFFCURVE",
"773 715 CURVE SMOOTH",
"774 722 OFFCURVE",
"775 727 OFFCURVE",
"775 732 CURVE SMOOTH",
"775 758 OFFCURVE",
"760 766 OFFCURVE",
"745 766 CURVE SMOOTH",
"725 766 OFFCURVE",
"710 750 OFFCURVE",
"708 733 CURVE",
"707 730 OFFCURVE",
"707 727 OFFCURVE",
"707 724 CURVE SMOOTH",
"707 705 OFFCURVE",
"723 699 OFFCURVE",
"723 679 CURVE SMOOTH",
"723 677 OFFCURVE",
"723 674 OFFCURVE",
"722 671 CURVE SMOOTH",
"715 639 OFFCURVE",
"681 612 OFFCURVE",
"652 595 CURVE",
"648 575 LINE"
);
}
);
width = 694;
}
);
leftKerningGroup = O;
note = Ohornacute;
rightKerningGroup = O;
unicode = 1EDA;
},
{
glyphname = Ohorndotbelow;
lastChange = "2015-10-21 17:44:03 +0000";
layers = (
{
layerId = "5C59C03B-63D5-4D42-95DD-0674E6EE1F81";
name = "Light Italic";
paths = (
{
closed = 1;
nodes = (
"500 -10 OFFCURVE",
"640 119 OFFCURVE",
"687 350 CURVE SMOOTH",
"696 391 OFFCURVE",
"700 429 OFFCURVE",
"700 463 CURVE SMOOTH",
"700 622 OFFCURVE",
"612 710 OFFCURVE",
"452 710 CURVE SMOOTH",
"256 710 OFFCURVE",
"117 580 OFFCURVE",
"70 350 CURVE SMOOTH",
"61 309 OFFCURVE",
"58 271 OFFCURVE",
"58 236 CURVE SMOOTH",
"58 77 OFFCURVE",
"145 -10 OFFCURVE",
"305 -10 CURVE SMOOTH"
);
},
{
closed = 1;
nodes = (
"282 -136 OFFCURVE",
"299 -122 OFFCURVE",
"302 -100 CURVE",
"303 -96 OFFCURVE",
"303 -93 OFFCURVE",
"303 -90 CURVE SMOOTH",
"303 -74 OFFCURVE",
"294 -64 OFFCURVE",
"276 -64 CURVE SMOOTH",
"257 -64 OFFCURVE",
"240 -78 OFFCURVE",
"235 -100 CURVE",
"234 -103 OFFCURVE",
"234 -106 OFFCURVE",
"234 -108 CURVE SMOOTH",
"234 -125 OFFCURVE",
"246 -136 OFFCURVE",
"262 -136 CURVE SMOOTH"
);
},
{
closed = 1;
nodes = (
"172 20 OFFCURVE",
"108 105 OFFCURVE",
"108 238 CURVE SMOOTH",
"108 273 OFFCURVE",
"112 310 OFFCURVE",
"121 350 CURVE SMOOTH",
"160 544 OFFCURVE",
"271 680 OFFCURVE",
"445 680 CURVE SMOOTH",
"586 680 OFFCURVE",
"649 594 OFFCURVE",
"649 461 CURVE SMOOTH",
"649 427 OFFCURVE",
"644 390 OFFCURVE",
"636 350 CURVE SMOOTH",
"596 155 OFFCURVE",
"488 20 OFFCURVE",
"311 20 CURVE SMOOTH"
);
},
{
closed = 1;
nodes = (
"710 604 OFFCURVE",
"761 658 OFFCURVE",
"773 715 CURVE SMOOTH",
"774 722 OFFCURVE",
"775 727 OFFCURVE",
"775 732 CURVE SMOOTH",
"775 758 OFFCURVE",
"760 766 OFFCURVE",
"745 766 CURVE SMOOTH",
"725 766 OFFCURVE",
"710 750 OFFCURVE",
"708 733 CURVE",
"707 730 OFFCURVE",
"707 727 OFFCURVE",
"707 724 CURVE SMOOTH",
"707 705 OFFCURVE",
"723 699 OFFCURVE",
"723 679 CURVE SMOOTH",
"723 677 OFFCURVE",
"723 674 OFFCURVE",
"722 671 CURVE SMOOTH",
"715 639 OFFCURVE",
"681 612 OFFCURVE",
"652 595 CURVE",
"648 575 LINE"
);
}
);
width = 694;
}
);
leftKerningGroup = O;
note = Ohorndotbelow;
rightKerningGroup = O;
unicode = 1EE2;
},
{
glyphname = Ohorngrave;
lastChange = "2015-10-21 17:44:04 +0000";
layers = (
{
layerId = "5C59C03B-63D5-4D42-95DD-0674E6EE1F81";
name = "Light Italic";
paths = (
{
closed = 1;
nodes = (
"500 -10 OFFCURVE",
"640 119 OFFCURVE",
"687 350 CURVE SMOOTH",
"696 391 OFFCURVE",
"700 429 OFFCURVE",
"700 463 CURVE SMOOTH",
"700 622 OFFCURVE",
"612 710 OFFCURVE",
"452 710 CURVE SMOOTH",
"256 710 OFFCURVE",
"117 580 OFFCURVE",
"70 350 CURVE SMOOTH",
"61 309 OFFCURVE",
"58 271 OFFCURVE",
"58 236 CURVE SMOOTH",
"58 77 OFFCURVE",
"145 -10 OFFCURVE",
"305 -10 CURVE SMOOTH"
);
},
{
closed = 1;
nodes = (
"172 20 OFFCURVE",
"108 105 OFFCURVE",
"108 238 CURVE SMOOTH",
"108 273 OFFCURVE",
"112 310 OFFCURVE",
"121 350 CURVE SMOOTH",
"160 544 OFFCURVE",
"271 680 OFFCURVE",
"445 680 CURVE SMOOTH",
"586 680 OFFCURVE",
"649 594 OFFCURVE",
"649 461 CURVE SMOOTH",
"649 427 OFFCURVE",
"644 390 OFFCURVE",
"636 350 CURVE SMOOTH",
"596 155 OFFCURVE",
"488 20 OFFCURVE",
"311 20 CURVE SMOOTH"
);
},
{
closed = 1;
nodes = (
"533 803 LINE",
"446 896 LINE SMOOTH",
"439 904 OFFCURVE",
"430 912 OFFCURVE",
"419 912 CURVE SMOOTH",
"408 912 OFFCURVE",
"395 903 OFFCURVE",
"395 887 CURVE SMOOTH",
"395 878 OFFCURVE",
"401 869 OFFCURVE",
"410 863 CURVE SMOOTH",
"519 788 LINE"
);
},
{
closed = 1;
nodes = (
"710 604 OFFCURVE",
"761 658 OFFCURVE",
"773 715 CURVE SMOOTH",
"774 722 OFFCURVE",
"775 727 OFFCURVE",
"775 732 CURVE SMOOTH",
"775 758 OFFCURVE",
"760 766 OFFCURVE",
"745 766 CURVE SMOOTH",
"725 766 OFFCURVE",
"710 750 OFFCURVE",
"708 733 CURVE",
"707 730 OFFCURVE",
"707 727 OFFCURVE",
"707 724 CURVE SMOOTH",
"707 705 OFFCURVE",
"723 699 OFFCURVE",
"723 679 CURVE SMOOTH",
"723 677 OFFCURVE",
"723 674 OFFCURVE",
"722 671 CURVE SMOOTH",
"715 639 OFFCURVE",
"681 612 OFFCURVE",
"652 595 CURVE",
"648 575 LINE"
);
}
);
width = 694;
}
);
leftKerningGroup = O;
note = Ohorngrave;
rightKerningGroup = O;
unicode = 1EDC;
},
{
glyphname = Ohornhookabove;
lastChange = "2015-10-21 17:44:03 +0000";
layers = (
{
layerId = "5C59C03B-63D5-4D42-95DD-0674E6EE1F81";
name = "Light Italic";
paths = (
{
closed = 1;
nodes = (
"500 -10 OFFCURVE",
"640 119 OFFCURVE",
"687 350 CURVE SMOOTH",
"696 391 OFFCURVE",
"700 429 OFFCURVE",
"700 463 CURVE SMOOTH",
"700 622 OFFCURVE",
"612 710 OFFCURVE",
"452 710 CURVE SMOOTH",
"256 710 OFFCURVE",
"117 580 OFFCURVE",
"70 350 CURVE SMOOTH",
"61 309 OFFCURVE",
"58 271 OFFCURVE",
"58 236 CURVE SMOOTH",
"58 77 OFFCURVE",
"145 -10 OFFCURVE",
"305 -10 CURVE SMOOTH"
);
},
{
closed = 1;
nodes = (
"172 20 OFFCURVE",
"108 105 OFFCURVE",
"108 238 CURVE SMOOTH",
"108 273 OFFCURVE",
"112 310 OFFCURVE",
"121 350 CURVE SMOOTH",
"160 544 OFFCURVE",
"271 680 OFFCURVE",
"445 680 CURVE SMOOTH",
"586 680 OFFCURVE",
"649 594 OFFCURVE",
"649 461 CURVE SMOOTH",
"649 427 OFFCURVE",
"644 390 OFFCURVE",
"636 350 CURVE SMOOTH",
"596 155 OFFCURVE",
"488 20 OFFCURVE",
"311 20 CURVE SMOOTH"
);
},
{
closed = 1;
nodes = (
"500 799 LINE",
"487 803 OFFCURVE",
"478 807 OFFCURVE",
"478 819 CURVE SMOOTH",
"478 821 OFFCURVE",
"478 824 OFFCURVE",
"479 827 CURVE SMOOTH",
"485 858 OFFCURVE",
"565 875 OFFCURVE",
"575 922 CURVE SMOOTH",
"576 926 OFFCURVE",
"576 930 OFFCURVE",
"576 934 CURVE SMOOTH",
"576 964 OFFCURVE",
"550 978 OFFCURVE",
"514 978 CURVE SMOOTH",
"468 978 OFFCURVE",
"430 958 OFFCURVE",
"430 925 CURVE SMOOTH",
"430 916 OFFCURVE",
"435 912 OFFCURVE",
"444 912 CURVE SMOOTH",
"458 912 OFFCURVE",
"462 921 OFFCURVE",
"469 935 CURVE SMOOTH",
"477 950 OFFCURVE",
"494 955 OFFCURVE",
"510 955 CURVE SMOOTH",
"531 955 OFFCURVE",
"539 945 OFFCURVE",
"539 933 CURVE SMOOTH",
"539 930 OFFCURVE",
"539 928 OFFCURVE",
"538 925 CURVE",
"529 882 OFFCURVE",
"453 870 OFFCURVE",
"444 827 CURVE SMOOTH",
"444 823 OFFCURVE",
"444 820 OFFCURVE",
"444 816 CURVE SMOOTH",
"444 797 OFFCURVE",
"458 782 OFFCURVE",
"489 782 CURVE"
);
},
{
closed = 1;
nodes = (
"710 604 OFFCURVE",
"761 658 OFFCURVE",
"773 715 CURVE SMOOTH",
"774 722 OFFCURVE",
"775 727 OFFCURVE",
"775 732 CURVE SMOOTH",
"775 758 OFFCURVE",
"760 766 OFFCURVE",
"745 766 CURVE SMOOTH",
"725 766 OFFCURVE",
"710 750 OFFCURVE",
"708 733 CURVE",
"707 730 OFFCURVE",
"707 727 OFFCURVE",
"707 724 CURVE SMOOTH",
"707 705 OFFCURVE",
"723 699 OFFCURVE",
"723 679 CURVE SMOOTH",
"723 677 OFFCURVE",
"723 674 OFFCURVE",
"722 671 CURVE SMOOTH",
"715 639 OFFCURVE",
"681 612 OFFCURVE",
"652 595 CURVE",
"648 575 LINE"
);
}
);
width = 694;
}
);
leftKerningGroup = O;
note = Ohornhookabove;
rightKerningGroup = O;
unicode = 1EDE;
},
{
glyphname = Ohorntilde;
lastChange = "2015-10-21 17:44:03 +0000";
layers = (
{
layerId = "5C59C03B-63D5-4D42-95DD-0674E6EE1F81";
name = "Light Italic";
paths = (
{
closed = 1;
nodes = (
"500 -10 OFFCURVE",
"640 119 OFFCURVE",
"687 350 CURVE SMOOTH",
"696 391 OFFCURVE",
"700 429 OFFCURVE",
"700 463 CURVE SMOOTH",
"700 622 OFFCURVE",
"612 710 OFFCURVE",
"452 710 CURVE SMOOTH",
"256 710 OFFCURVE",
"117 580 OFFCURVE",
"70 350 CURVE SMOOTH",
"61 309 OFFCURVE",
"58 271 OFFCURVE",
"58 236 CURVE SMOOTH",
"58 77 OFFCURVE",
"145 -10 OFFCURVE",
"305 -10 CURVE SMOOTH"
);
},
{
closed = 1;
nodes = (
"172 20 OFFCURVE",
"108 105 OFFCURVE",
"108 238 CURVE SMOOTH",
"108 273 OFFCURVE",
"112 310 OFFCURVE",
"121 350 CURVE SMOOTH",
"160 544 OFFCURVE",
"271 680 OFFCURVE",
"445 680 CURVE SMOOTH",
"586 680 OFFCURVE",
"649 594 OFFCURVE",
"649 461 CURVE SMOOTH",
"649 427 OFFCURVE",
"644 390 OFFCURVE",
"636 350 CURVE SMOOTH",
"596 155 OFFCURVE",
"488 20 OFFCURVE",
"311 20 CURVE SMOOTH"
);
},
{
closed = 1;
nodes = (
"343 825 OFFCURVE",
"366 848 OFFCURVE",
"395 848 CURVE SMOOTH",
"437 848 OFFCURVE",
"469 790 OFFCURVE",
"514 790 CURVE SMOOTH",
"558 790 OFFCURVE",
"591 824 OFFCURVE",
"612 878 CURVE",
"597 887 LINE",
"578 847 OFFCURVE",
"558 822 OFFCURVE",
"526 822 CURVE SMOOTH",
"486 822 OFFCURVE",
"450 879 OFFCURVE",
"406 879 CURVE SMOOTH",
"366 879 OFFCURVE",
"330 850 OFFCURVE",
"310 796 CURVE",
"324 787 LINE"
);
},
{
closed = 1;
nodes = (
"710 604 OFFCURVE",
"761 658 OFFCURVE",
"773 715 CURVE SMOOTH",
"774 722 OFFCURVE",
"775 727 OFFCURVE",
"775 732 CURVE SMOOTH",
"775 758 OFFCURVE",
"760 766 OFFCURVE",
"745 766 CURVE SMOOTH",
"725 766 OFFCURVE",
"710 750 OFFCURVE",
"708 733 CURVE",
"707 730 OFFCURVE",
"707 727 OFFCURVE",
"707 724 CURVE SMOOTH",
"707 705 OFFCURVE",
"723 699 OFFCURVE",
"723 679 CURVE SMOOTH",
"723 677 OFFCURVE",
"723 674 OFFCURVE",
"722 671 CURVE SMOOTH",
"715 639 OFFCURVE",
"681 612 OFFCURVE",
"652 595 CURVE",
"648 575 LINE"
);
}
);
width = 694;
}
);
leftKerningGroup = O;
note = Ohorntilde;
rightKerningGroup = O;
unicode = 1EE0;
},
{
glyphname = Ohungarumlaut;
lastChange = "2015-10-21 17:44:03 +0000";
layers = (
{
layerId = "5C59C03B-63D5-4D42-95DD-0674E6EE1F81";
name = "Light Italic";
paths = (
{
closed = 1;
nodes = (
"500 -10 OFFCURVE",
"640 119 OFFCURVE",
"687 350 CURVE SMOOTH",
"696 391 OFFCURVE",
"700 429 OFFCURVE",
"700 463 CURVE SMOOTH",
"700 622 OFFCURVE",
"612 710 OFFCURVE",
"452 710 CURVE SMOOTH",
"256 710 OFFCURVE",
"117 580 OFFCURVE",
"70 350 CURVE SMOOTH",
"61 309 OFFCURVE",
"58 271 OFFCURVE",
"58 236 CURVE SMOOTH",
"58 77 OFFCURVE",
"145 -10 OFFCURVE",
"305 -10 CURVE SMOOTH"
);
},
{
closed = 1;
nodes = (
"172 20 OFFCURVE",
"108 105 OFFCURVE",
"108 238 CURVE SMOOTH",
"108 273 OFFCURVE",
"112 310 OFFCURVE",
"121 350 CURVE SMOOTH",
"160 544 OFFCURVE",
"271 680 OFFCURVE",
"445 680 CURVE SMOOTH",
"586 680 OFFCURVE",
"649 594 OFFCURVE",
"649 461 CURVE SMOOTH",
"649 427 OFFCURVE",
"644 390 OFFCURVE",
"636 350 CURVE SMOOTH",
"596 155 OFFCURVE",
"488 20 OFFCURVE",
"311 20 CURVE SMOOTH"
);
},
{
closed = 1;
nodes = (
"507 862 LINE SMOOTH",
"523 871 OFFCURVE",
"534 884 OFFCURVE",
"534 896 CURVE SMOOTH",
"534 904 OFFCURVE",
"528 911 OFFCURVE",
"518 911 CURVE SMOOTH",
"505 911 OFFCURVE",
"492 901 OFFCURVE",
"484 895 CURVE SMOOTH",
"360 801 LINE",
"367 786 LINE"
);
},
{
closed = 1;
nodes = (
"635 862 LINE SMOOTH",
"651 871 OFFCURVE",
"660 884 OFFCURVE",
"660 896 CURVE SMOOTH",
"660 904 OFFCURVE",
"655 911 OFFCURVE",
"645 911 CURVE SMOOTH",
"632 911 OFFCURVE",
"619 901 OFFCURVE",
"611 895 CURVE",
"487 801 LINE",
"494 786 LINE"
);
}
);
width = 692;
}
);
leftKerningGroup = O;
note = Ohungarumlaut;
rightKerningGroup = O;
unicode = 0150;
},
{
glyphname = Omacron;
lastChange = "2015-10-21 17:44:03 +0000";
layers = (
{
layerId = "5C59C03B-63D5-4D42-95DD-0674E6EE1F81";
name = "Light Italic";
paths = (
{
closed = 1;
nodes = (
"500 -10 OFFCURVE",
"640 119 OFFCURVE",
"687 350 CURVE SMOOTH",
"696 391 OFFCURVE",
"700 429 OFFCURVE",
"700 463 CURVE SMOOTH",
"700 622 OFFCURVE",
"612 710 OFFCURVE",
"452 710 CURVE SMOOTH",
"256 710 OFFCURVE",
"117 580 OFFCURVE",
"70 350 CURVE SMOOTH",
"61 309 OFFCURVE",
"58 271 OFFCURVE",
"58 236 CURVE SMOOTH",
"58 77 OFFCURVE",
"145 -10 OFFCURVE",
"305 -10 CURVE SMOOTH"
);
},
{
closed = 1;
nodes = (
"172 20 OFFCURVE",
"108 105 OFFCURVE",
"108 238 CURVE SMOOTH",
"108 273 OFFCURVE",
"112 310 OFFCURVE",
"121 350 CURVE SMOOTH",
"160 544 OFFCURVE",
"271 680 OFFCURVE",
"445 680 CURVE SMOOTH",
"586 680 OFFCURVE",
"649 594 OFFCURVE",
"649 461 CURVE SMOOTH",
"649 427 OFFCURVE",
"644 390 OFFCURVE",
"636 350 CURVE SMOOTH",
"596 155 OFFCURVE",
"488 20 OFFCURVE",
"311 20 CURVE SMOOTH"
);
},
{
closed = 1;
nodes = (
"606 785 LINE",
"612 814 LINE",
"332 814 LINE",
"325 785 LINE"
);
}
);
width = 692;
}
);
leftKerningGroup = O;
note = Omacron;
rightKerningGroup = O;
unicode = 014C;
},
{
glyphname = Oslash;
lastChange = "2015-10-21 17:44:04 +0000";
layers = (
{
layerId = "5C59C03B-63D5-4D42-95DD-0674E6EE1F81";
name = "Light Italic";
paths = (
{
closed = 1;
nodes = (
"725 705 LINE",
"698 723 LINE",
"26 4 LINE",
"53 -14 LINE"
);
},
{
closed = 1;
nodes = (
"500 -10 OFFCURVE",
"640 119 OFFCURVE",
"687 350 CURVE SMOOTH",
"696 391 OFFCURVE",
"700 429 OFFCURVE",
"700 463 CURVE SMOOTH",
"700 622 OFFCURVE",
"612 710 OFFCURVE",
"452 710 CURVE SMOOTH",
"256 710 OFFCURVE",
"117 580 OFFCURVE",
"70 350 CURVE SMOOTH",
"61 309 OFFCURVE",
"58 271 OFFCURVE",
"58 236 CURVE SMOOTH",
"58 77 OFFCURVE",
"145 -10 OFFCURVE",
"305 -10 CURVE SMOOTH"
);
},
{
closed = 1;
nodes = (
"172 20 OFFCURVE",
"108 105 OFFCURVE",
"108 238 CURVE SMOOTH",
"108 273 OFFCURVE",
"112 310 OFFCURVE",
"121 350 CURVE SMOOTH",
"160 544 OFFCURVE",
"271 680 OFFCURVE",
"445 680 CURVE SMOOTH",
"586 680 OFFCURVE",
"649 594 OFFCURVE",
"649 461 CURVE SMOOTH",
"649 427 OFFCURVE",
"644 390 OFFCURVE",
"636 350 CURVE SMOOTH",
"596 155 OFFCURVE",
"488 20 OFFCURVE",
"311 20 CURVE SMOOTH"
);
}
);
width = 692;
}
);
leftKerningGroup = O;
note = Oslash;
rightKerningGroup = O;
unicode = 00D8;
},
{
glyphname = Oslashacute;
lastChange = "2015-10-21 17:44:04 +0000";
layers = (
{
layerId = "5C59C03B-63D5-4D42-95DD-0674E6EE1F81";
name = "Light Italic";
paths = (
{
closed = 1;
nodes = (
"725 705 LINE",
"698 723 LINE",
"26 4 LINE",
"53 -14 LINE"
);
},
{
closed = 1;
nodes = (
"500 -10 OFFCURVE",
"640 119 OFFCURVE",
"687 350 CURVE SMOOTH",
"696 391 OFFCURVE",
"700 429 OFFCURVE",
"700 463 CURVE SMOOTH",
"700 622 OFFCURVE",
"612 710 OFFCURVE",
"452 710 CURVE SMOOTH",
"256 710 OFFCURVE",
"117 580 OFFCURVE",
"70 350 CURVE SMOOTH",
"61 309 OFFCURVE",
"58 271 OFFCURVE",
"58 236 CURVE SMOOTH",
"58 77 OFFCURVE",
"145 -10 OFFCURVE",
"305 -10 CURVE SMOOTH"
);
},
{
closed = 1;
nodes = (
"172 20 OFFCURVE",
"108 105 OFFCURVE",
"108 238 CURVE SMOOTH",
"108 273 OFFCURVE",
"112 310 OFFCURVE",
"121 350 CURVE SMOOTH",
"160 544 OFFCURVE",
"271 680 OFFCURVE",
"445 680 CURVE SMOOTH",
"586 680 OFFCURVE",
"649 594 OFFCURVE",
"649 461 CURVE SMOOTH",
"649 427 OFFCURVE",
"644 390 OFFCURVE",
"636 350 CURVE SMOOTH",
"596 155 OFFCURVE",
"488 20 OFFCURVE",
"311 20 CURVE SMOOTH"
);
},
{
closed = 1;
nodes = (
"547 861 LINE SMOOTH",
"564 870 OFFCURVE",
"574 883 OFFCURVE",
"574 895 CURVE SMOOTH",
"574 904 OFFCURVE",
"568 910 OFFCURVE",
"559 910 CURVE SMOOTH",
"546 910 OFFCURVE",
"533 901 OFFCURVE",
"524 894 CURVE",
"399 801 LINE",
"407 786 LINE"
);
}
);
width = 692;
}
);
leftKerningGroup = O;
note = Oslashacute;
rightKerningGroup = O;
unicode = 01FE;
},
{
glyphname = Otilde;
lastChange = "2015-10-21 17:44:04 +0000";
layers = (
{
layerId = "5C59C03B-63D5-4D42-95DD-0674E6EE1F81";
name = "Light Italic";
paths = (
{
closed = 1;
nodes = (
"500 -10 OFFCURVE",
"640 119 OFFCURVE",
"687 350 CURVE SMOOTH",
"696 391 OFFCURVE",
"700 429 OFFCURVE",
"700 463 CURVE SMOOTH",
"700 622 OFFCURVE",
"612 710 OFFCURVE",
"452 710 CURVE SMOOTH",
"256 710 OFFCURVE",
"117 580 OFFCURVE",
"70 350 CURVE SMOOTH",
"61 309 OFFCURVE",
"58 271 OFFCURVE",
"58 236 CURVE SMOOTH",
"58 77 OFFCURVE",
"145 -10 OFFCURVE",
"305 -10 CURVE SMOOTH"
);
},
{
closed = 1;
nodes = (
"172 20 OFFCURVE",
"108 105 OFFCURVE",
"108 238 CURVE SMOOTH",
"108 273 OFFCURVE",
"112 310 OFFCURVE",
"121 350 CURVE SMOOTH",
"160 544 OFFCURVE",
"271 680 OFFCURVE",
"445 680 CURVE SMOOTH",
"586 680 OFFCURVE",
"649 594 OFFCURVE",
"649 461 CURVE SMOOTH",
"649 427 OFFCURVE",
"644 390 OFFCURVE",
"636 350 CURVE SMOOTH",
"596 155 OFFCURVE",
"488 20 OFFCURVE",
"311 20 CURVE SMOOTH"
);
},
{
closed = 1;
nodes = (
"358 822 OFFCURVE",
"381 845 OFFCURVE",
"410 845 CURVE SMOOTH",
"452 845 OFFCURVE",
"485 787 OFFCURVE",
"529 787 CURVE SMOOTH",
"573 787 OFFCURVE",
"607 821 OFFCURVE",
"627 875 CURVE",
"612 884 LINE",
"593 844 OFFCURVE",
"573 819 OFFCURVE",
"541 819 CURVE SMOOTH",
"501 819 OFFCURVE",
"466 876 OFFCURVE",
"421 876 CURVE SMOOTH",
"381 876 OFFCURVE",
"346 847 OFFCURVE",
"325 793 CURVE",
"340 784 LINE"
);
}
);
width = 692;
}
);
leftKerningGroup = O;
note = Otilde;
rightKerningGroup = O;
unicode = 00D5;
},
{
glyphname = OE;
lastChange = "2015-10-21 17:44:02 +0000";
layers = (
{
layerId = "5C59C03B-63D5-4D42-95DD-0674E6EE1F81";
name = "Light Italic";
paths = (
{
closed = 1;
nodes = (
"398 -10 OFFCURVE",
"479 22 OFFCURVE",
"542 81 CURVE",
"533 116 LINE",
"477 55 OFFCURVE",
"404 19 OFFCURVE",
"316 19 CURVE SMOOTH",
"175 19 OFFCURVE",
"108 106 OFFCURVE",
"108 241 CURVE SMOOTH",
"108 275 OFFCURVE",
"113 311 OFFCURVE",
"121 350 CURVE SMOOTH",
"160 544 OFFCURVE",
"275 680 OFFCURVE",
"450 680 CURVE SMOOTH",
"538 680 OFFCURVE",
"596 644 OFFCURVE",
"628 584 CURVE",
"649 623 LINE",
"610 679 OFFCURVE",
"543 710 OFFCURVE",
"453 710 CURVE SMOOTH",
"261 710 OFFCURVE",
"117 580 OFFCURVE",
"70 350 CURVE SMOOTH",
"61 310 OFFCURVE",
"58 273 OFFCURVE",
"58 239 CURVE SMOOTH",
"58 78 OFFCURVE",
"148 -10 OFFCURVE",
"306 -10 CURVE SMOOTH"
);
},
{
closed = 1;
nodes = (
"869 0 LINE",
"918 170 LINE",
"901 170 LINE",
"887 123 OFFCURVE",
"852 29 OFFCURVE",
"794 29 CURVE SMOOTH",
"554 29 LINE",
"684 670 LINE",
"917 670 LINE SMOOTH",
"957 670 OFFCURVE",
"967 632 OFFCURVE",
"967 595 CURVE SMOOTH",
"967 574 OFFCURVE",
"964 554 OFFCURVE",
"962 539 CURVE",
"978 539 LINE",
"1011 700 LINE",
"638 700 LINE",
"496 0 LINE"
);
},
{
closed = 1;
nodes = (
"838 255 LINE",
"885 487 LINE",
"869 487 LINE",
"854 434 OFFCURVE",
"842 386 OFFCURVE",
"800 386 CURVE SMOOTH",
"612 386 LINE",
"605 356 LINE",
"793 356 LINE SMOOTH",
"820 356 OFFCURVE",
"827 337 OFFCURVE",
"827 310 CURVE SMOOTH",
"827 294 OFFCURVE",
"825 275 OFFCURVE",
"822 255 CURVE"
);
}
);
width = 959;
}
);
leftKerningGroup = O;
note = OE;
rightKerningGroup = E;
unicode = 0152;
},
{
glyphname = P;
lastChange = "2015-10-21 17:44:04 +0000";
layers = (
{
layerId = "5C59C03B-63D5-4D42-95DD-0674E6EE1F81";
name = "Light Italic";
paths = (
{
closed = 1;
nodes = (
"208 0 LINE",
"211 18 LINE",
"184 18 LINE SMOOTH",
"152 18 OFFCURVE",
"133 25 OFFCURVE",
"133 44 CURVE SMOOTH",
"133 46 OFFCURVE",
"133 49 OFFCURVE",
"134 52 CURVE SMOOTH",
"180 278 LINE",
"347 278 LINE SMOOTH",
"490 278 OFFCURVE",
"561 367 OFFCURVE",
"585 489 CURVE SMOOTH",
"589 513 OFFCURVE",
"592 536 OFFCURVE",
"592 557 CURVE SMOOTH",
"592 644 OFFCURVE",
"547 700 OFFCURVE",
"432 700 CURVE SMOOTH",
"130 700 LINE",
"126 681 LINE",
"153 681 LINE SMOOTH",
"190 681 OFFCURVE",
"208 672 OFFCURVE",
"204 647 CURVE SMOOTH",
"83 52 LINE SMOOTH",
"77 27 OFFCURVE",
"55 18 OFFCURVE",
"17 18 CURVE SMOOTH",
"-10 18 LINE",
"-12 0 LINE"
);
},
{
closed = 1;
nodes = (
"260 670 LINE",
"420 670 LINE SMOOTH",
"506 670 OFFCURVE",
"540 624 OFFCURVE",
"540 552 CURVE SMOOTH",
"540 533 OFFCURVE",
"539 512 OFFCURVE",
"534 489 CURVE SMOOTH",
"513 383 OFFCURVE",
"455 308 OFFCURVE",
"347 308 CURVE SMOOTH",
"186 308 LINE"
);
}
);
width = 542;
}
);
note = P;
unicode = 0050;
},
{
glyphname = Thorn;
lastChange = "2015-10-21 17:44:02 +0000";
layers = (
{
layerId = "5C59C03B-63D5-4D42-95DD-0674E6EE1F81";
name = "Light Italic";
paths = (
{
closed = 1;
nodes = (
"208 0 LINE",
"211 18 LINE",
"184 18 LINE SMOOTH",
"152 18 OFFCURVE",
"133 25 OFFCURVE",
"133 44 CURVE SMOOTH",
"133 46 OFFCURVE",
"133 49 OFFCURVE",
"134 52 CURVE SMOOTH",
"156 164 LINE",
"323 164 LINE SMOOTH",
"466 164 OFFCURVE",
"537 252 OFFCURVE",
"562 375 CURVE SMOOTH",
"566 399 OFFCURVE",
"569 422 OFFCURVE",
"569 443 CURVE SMOOTH",
"569 529 OFFCURVE",
"524 585 OFFCURVE",
"409 585 CURVE SMOOTH",
"243 585 LINE",
"266 700 LINE",
"130 700 LINE",
"126 681 LINE",
"153 681 LINE SMOOTH",
"190 681 OFFCURVE",
"208 672 OFFCURVE",
"204 647 CURVE SMOOTH",
"83 52 LINE SMOOTH",
"77 27 OFFCURVE",
"55 18 OFFCURVE",
"17 18 CURVE SMOOTH",
"-10 18 LINE",
"-12 0 LINE"
);
},
{
closed = 1;
nodes = (
"237 556 LINE",
"397 556 LINE SMOOTH",
"483 556 OFFCURVE",
"517 510 OFFCURVE",
"517 438 CURVE SMOOTH",
"517 419 OFFCURVE",
"516 398 OFFCURVE",
"511 375 CURVE SMOOTH",
"490 269 OFFCURVE",
"432 193 OFFCURVE",
"324 193 CURVE SMOOTH",
"163 193 LINE"
);
}
);
width = 542;
}
);
note = Thorn;
unicode = 00DE;
},
{
glyphname = Q;
lastChange = "2015-10-21 17:44:03 +0000";
layers = (
{
layerId = "5C59C03B-63D5-4D42-95DD-0674E6EE1F81";
name = "Light Italic";
paths = (
{
closed = 1;
nodes = (
"500 -10 OFFCURVE",
"640 119 OFFCURVE",
"687 350 CURVE SMOOTH",
"696 391 OFFCURVE",
"700 429 OFFCURVE",
"700 463 CURVE SMOOTH",
"700 622 OFFCURVE",
"612 710 OFFCURVE",
"452 710 CURVE SMOOTH",
"256 710 OFFCURVE",
"117 580 OFFCURVE",
"70 350 CURVE SMOOTH",
"61 309 OFFCURVE",
"58 271 OFFCURVE",
"58 236 CURVE SMOOTH",
"58 77 OFFCURVE",
"145 -10 OFFCURVE",
"305 -10 CURVE SMOOTH"
);
},
{
closed = 1;
nodes = (
"533 -149 OFFCURVE",
"585 -98 OFFCURVE",
"605 -44 CURVE",
"607 -38 OFFCURVE",
"610 -30 OFFCURVE",
"612 -23 CURVE",
"593 -23 LINE",
"569 -74 OFFCURVE",
"524 -113 OFFCURVE",
"480 -113 CURVE SMOOTH",
"397 -113 OFFCURVE",
"334 -33 OFFCURVE",
"260 -33 CURVE SMOOTH",
"249 -33 LINE",
"274 -17 OFFCURVE",
"291 -9 OFFCURVE",
"311 -1 CURVE",
"312 3 LINE",
"274 3 LINE",
"212 -20 OFFCURVE",
"168 -50 OFFCURVE",
"127 -81 CURVE",
"132 -95 LINE",
"165 -74 OFFCURVE",
"205 -54 OFFCURVE",
"232 -54 CURVE SMOOTH",
"305 -54 OFFCURVE",
"356 -149 OFFCURVE",
"462 -149 CURVE SMOOTH"
);
},
{
closed = 1;
nodes = (
"172 20 OFFCURVE",
"108 105 OFFCURVE",
"108 238 CURVE SMOOTH",
"108 273 OFFCURVE",
"112 310 OFFCURVE",
"121 350 CURVE SMOOTH",
"160 544 OFFCURVE",
"271 680 OFFCURVE",
"445 680 CURVE SMOOTH",
"586 680 OFFCURVE",
"649 594 OFFCURVE",
"649 461 CURVE SMOOTH",
"649 427 OFFCURVE",
"644 390 OFFCURVE",
"636 350 CURVE SMOOTH",
"596 155 OFFCURVE",
"488 20 OFFCURVE",
"311 20 CURVE SMOOTH"
);
}
);
width = 692;
}
);
leftKerningGroup = O;
note = Q;
rightKerningGroup = O;
unicode = 0051;
},
{
glyphname = R;
lastChange = "2015-10-21 17:44:04 +0000";
layers = (
{
layerId = "5C59C03B-63D5-4D42-95DD-0674E6EE1F81";
name = "Light Italic";
paths = (
{
closed = 1;
nodes = (
"208 0 LINE",
"211 18 LINE",
"184 18 LINE SMOOTH",
"152 18 OFFCURVE",
"133 25 OFFCURVE",
"133 44 CURVE SMOOTH",
"133 46 OFFCURVE",
"133 49 OFFCURVE",
"134 52 CURVE SMOOTH",
"183 293 LINE",
"344 293 LINE SMOOTH",
"487 293 OFFCURVE",
"558 374 OFFCURVE",
"583 497 CURVE SMOOTH",
"588 520 OFFCURVE",
"589 541 OFFCURVE",
"589 561 CURVE SMOOTH",
"589 647 OFFCURVE",
"542 700 OFFCURVE",
"426 700 CURVE SMOOTH",
"130 700 LINE",
"126 681 LINE",
"153 681 LINE SMOOTH",
"190 681 OFFCURVE",
"208 672 OFFCURVE",
"204 647 CURVE SMOOTH",
"83 52 LINE SMOOTH",
"77 27 OFFCURVE",
"55 18 OFFCURVE",
"17 18 CURVE SMOOTH",
"-10 18 LINE",
"-12 0 LINE"
);
},
{
closed = 1;
nodes = (
"540 0 LINE",
"543 18 LINE",
"468 18 OFFCURVE",
"455 97 OFFCURVE",
"450 173 CURVE SMOOTH",
"447 229 OFFCURVE",
"444 285 OFFCURVE",
"405 305 CURVE",
"363 305 LINE",
"362 301 LINE",
"401 266 OFFCURVE",
"396 177 OFFCURVE",
"400 104 CURVE SMOOTH",
"404 44 OFFCURVE",
"436 0 OFFCURVE",
"489 0 CURVE SMOOTH"
);
},
{
closed = 1;
nodes = (
"260 670 LINE",
"415 670 LINE SMOOTH",
"502 670 OFFCURVE",
"540 627 OFFCURVE",
"540 555 CURVE SMOOTH",
"540 538 OFFCURVE",
"538 518 OFFCURVE",
"533 497 CURVE SMOOTH",
"512 391 OFFCURVE",
"452 323 OFFCURVE",
"344 323 CURVE SMOOTH",
"189 323 LINE"
);
}
);
width = 606;
}
);
note = R;
rightKerningGroup = R;
unicode = 0052;
},
